<?xml version="1.0" encoding="UTF-8"?>
<svg width="242px" height="77px" viewBox="0 0 242 77" version="1.1" xmlns="http://www.w3.org/2000/svg" xmlns:xlink="http://www.w3.org/1999/xlink">
    <title>31FB3DFC-A135-48BE-9913-6B1BAF03CEC0</title>
    <defs>
        <polygon id="path-1" points="0 0 10.490222 0 10.490222 12.6619695 0 12.6619695"></polygon>
        <polygon id="path-3" points="0 0 8.58902095 0 8.58902095 12.6619695 0 12.6619695"></polygon>
        <polygon id="path-5" points="0 0 8.58851545 0 8.58851545 12.6619695 0 12.6619695"></polygon>
        <polygon id="path-7" points="0 0 8.58851545 0 8.58851545 12.6619695 0 12.6619695"></polygon>
        <polygon id="path-9" points="0 0 12.3105425 0 12.3105425 12.6618179 0 12.6618179"></polygon>
        <polygon id="path-11" points="0 0 10.490222 0 10.490222 12.6619695 0 12.6619695"></polygon>
        <polygon id="path-13" points="0 77 242 77 242 0 0 0"></polygon>
    </defs>
    <g id="Home" stroke="none" stroke-width="1" fill="none" fill-rule="evenodd">
        <g id="Home:-Desktops---12-col" transform="translate(-18.000000, -53.000000)">
            <g id="Group" transform="translate(0.000000, 1.000000)">
                <g id="Group-87" transform="translate(18.000000, 52.000000)">
                    <polygon id="Fill-1" fill="#40C8F4" points="43 57 242 57 242 17 43 17"></polygon>
                    <polygon id="Fill-2" fill="#FFFFFF" points="98 77 100 77 100 65 98 65"></polygon>
                    <polygon id="Fill-3" fill="#FFFFFF" points="110.987461 65 110.987461 73.8070568 105.019915 65 103 65 103 77 105.019915 77 105.019915 68.1999006 110.987461 77 113 77 113 65"></polygon>
                    <g id="Group-86">
                        <path d="M118.053416,77 C116.93878,77 115.979838,76.6174509 115.176087,75.8533635 L115.856495,74.248881 C116.472705,74.8451926 117.114695,75.1428431 117.779939,75.1428431 C118.401709,75.1428431 118.890026,74.9371661 119.24489,74.5258122 C119.599754,74.1144582 119.777691,73.5439194 119.777691,72.813185 L119.777691,64.5603334 L121.708717,64.5603334 L121.708717,73.3316729 C121.708717,74.4944805 121.384689,75.3975389 120.739665,76.0383212 C120.093631,76.6796088 119.197878,77 118.053416,77" id="Fill-4" fill="#FFFFFF"></path>
                        <path d="M129.674957,77 C128.189785,77 127.070094,76.6154295 126.312343,75.8457833 C125.556109,75.0771477 125.176475,73.9355647 125.176475,72.422045 L125.176475,64.5603334 L127.122161,64.5603334 L127.122161,71.8894074 C127.122161,73.0037015 127.32689,73.8173131 127.737359,74.3302422 C128.146818,74.8426659 128.791841,75.0993831 129.674957,75.0993831 C130.558072,75.0993831 131.205623,74.8426659 131.617104,74.3302422 C132.028584,73.8173131 132.234324,73.0037015 132.234324,71.8894074 L132.234324,64.5603334 L134.172933,64.5603334 L134.172933,72.422045 C134.172933,73.9355647 133.796332,75.0771477 133.040603,75.8457833 C132.286897,76.6154295 131.164172,77 129.674957,77" id="Fill-6" fill="#FFFFFF"></path>
                        <path d="M139.713662,70.3436969 L141.008259,70.3436969 C141.54662,70.3436969 142.007135,70.2593037 142.392329,70.0890011 C142.777018,69.9186986 143.072737,69.6741097 143.279994,69.3562453 C143.486745,69.0383809 143.591385,68.6578533 143.591385,68.214157 C143.591385,67.5526554 143.365424,67.0377049 142.914009,66.6672842 C142.462088,66.2983796 141.827175,66.1139273 141.008259,66.1139273 L139.713662,66.1139273 L139.713662,70.3436969 Z M137.776065,76.763143 L137.776065,64.560485 L141.577962,64.560485 C142.396373,64.560485 143.107617,64.7034987 143.709167,64.9895262 C144.310717,65.2750482 144.778308,65.6879182 145.110425,66.2281361 C145.444563,66.7673433 145.609863,67.4126738 145.609863,68.1621061 C145.609863,68.7937921 145.49208,69.3552346 145.254999,69.8479497 C145.018423,70.3416755 144.682263,70.7505027 144.245507,71.075442 C143.809257,71.401392 143.285555,71.6277883 142.673389,71.7561469 L146.690125,76.763143 L144.234386,76.763143 L140.572514,71.9704148 L139.713662,71.9704148 L139.713662,76.763143 L137.776065,76.763143 Z" id="Fill-8" fill="#FFFFFF"></path>
                        <polygon id="Fill-10" fill="#FFFFFF" points="150.353008 76.763143 150.353008 71.3791567 146.009211 64.560485 148.340596 64.560485 151.32206 69.3895983 154.303018 64.560485 156.640974 64.560485 152.290606 71.3791567 152.290606 76.763143"></polygon>
                        <polygon id="Fill-12" fill="#FFFFFF" points="163.062393 76.763143 163.062393 64.560485 164.999991 64.560485 164.999991 75.0616335 169.668322 75.0616335 169.668322 76.763143"></polygon>
                        <path d="M174.928648,71.8815745 L178.568278,71.8815745 L176.740881,67.1636379 L174.928648,71.8815745 Z M170.985716,76.7632441 L175.846138,64.5600807 L177.643711,64.5600807 L182.51121,76.7632441 L180.424489,76.7632441 L179.226445,73.5830839 L174.269976,73.5830839 L173.064349,76.7632441 L170.985716,76.7632441 Z" id="Fill-14" fill="#FFFFFF"></path>
                        <polygon id="Fill-16" fill="#FFFFFF" points="185.958395 76.763143 182.400151 64.560485 184.553599 64.560485 187.127626 74.1378559 190.07977 64.560485 191.544721 64.560485 194.503437 74.1378559 197.078475 64.560485 199.230406 64.560485 195.672163 76.763143 193.512143 76.763143 190.819323 68.3177535 188.118414 76.763143"></polygon>
                        <polygon id="Fill-18" fill="#FFFFFF" points="204.579803 76.763143 204.579803 71.3791567 200.236006 64.560485 202.567391 64.560485 205.548854 69.3895983 208.529812 64.560485 210.867769 64.560485 206.5174 71.3791567 206.5174 76.763143"></polygon>
                        <polygon id="Fill-20" fill="#FFFFFF" points="213.131315 76.763143 213.131315 64.560485 219.692759 64.560485 219.692759 66.2614891 215.068913 66.2614891 215.068913 69.7964041 219.515833 69.7964041 219.515833 71.4979136 215.068913 71.4979136 215.068913 75.0616335 219.692759 75.0616335 219.692759 76.763143"></polygon>
                        <path d="M224.923059,70.3436969 L226.217655,70.3436969 C226.756017,70.3436969 227.216531,70.2593037 227.601725,70.0890011 C227.986414,69.9186986 228.282134,69.6741097 228.489391,69.3562453 C228.696142,69.0383809 228.800781,68.6578533 228.800781,68.214157 C228.800781,67.5526554 228.574821,67.0377049 228.123406,66.6672842 C227.671485,66.2983796 227.036572,66.1139273 226.217655,66.1139273 L224.923059,66.1139273 L224.923059,70.3436969 Z M222.985462,76.763143 L222.985462,64.560485 L226.787358,64.560485 C227.605769,64.560485 228.316508,64.7034987 228.918564,64.9895262 C229.520114,65.2750482 229.987199,65.6879182 230.319821,66.2281361 C230.653959,66.7673433 230.819259,67.4126738 230.819259,68.1621061 C230.819259,68.7937921 230.701477,69.3552346 230.464395,69.8479497 C230.227819,70.3416755 229.891659,70.7505027 229.454904,71.075442 C229.018654,71.401392 228.494951,71.6277883 227.882786,71.7561469 L231.899522,76.763143 L229.443783,76.763143 L225.78191,71.9704148 L224.923059,71.9704148 L224.923059,76.763143 L222.985462,76.763143 Z" id="Fill-22" fill="#FFFFFF"></path>
                        <path d="M237.218638,77 C236.632254,77 236.099452,76.9257137 235.621245,76.7776465 C235.142027,76.6295793 234.722459,76.4461377 234.360013,76.2273217 C233.997566,76.0080003 233.693758,75.7866575 233.450105,75.5653147 C233.205441,75.3429612 233.016383,75.1610356 232.88394,75.0175166 L233.905059,73.4494192 C234.043061,73.5929382 234.216449,73.7632408 234.425728,73.9598215 C234.636018,74.1579182 234.881693,74.3499508 235.161742,74.5369298 C235.443308,74.7249196 235.760259,74.8841045 236.113101,75.0139791 C236.465437,75.1453698 236.851642,75.2095491 237.270705,75.2095491 C237.670054,75.2095491 238.027445,75.1418324 238.343385,75.0063989 C238.659325,74.8714708 238.910561,74.6713526 239.098608,74.4080659 C239.285139,74.1442738 239.378658,73.8173131 239.378658,73.4271838 C239.378658,73.0870841 239.308898,72.7965085 239.168368,72.5554571 C239.027332,72.3128897 238.827153,72.1026646 238.565807,71.9227604 C238.304461,71.7423509 237.991554,71.571543 237.629108,71.4088206 C237.266661,71.245593 236.865797,71.073269 236.427524,70.8908381 C236.11209,70.757426 235.800194,70.6017786 235.49588,70.421369 C235.189545,70.2414649 234.910507,70.030229 234.659271,69.7886723 C234.408035,69.5476209 234.20735,69.2641202 234.059743,68.9381702 C233.91163,68.613231 233.838332,68.2387675 233.838332,67.8137691 C233.838332,67.3559231 233.928312,66.9187964 234.108777,66.5018836 C234.287725,66.0849708 234.5425,65.7145501 234.870572,65.3886001 C235.197633,65.0626501 235.591421,64.8069436 236.049407,64.6194592 C236.508911,64.4324801 237.01947,64.3379799 237.581085,64.3379799 C238.039577,64.3379799 238.485432,64.404686 238.917132,64.5380981 C239.348833,64.6715101 239.742621,64.8438341 240.100518,65.0560806 C240.457909,65.2673164 240.752618,65.4921966 240.98515,65.7292052 L240.140452,67.2078559 C239.953921,67.015318 239.728972,66.8344031 239.467626,66.6641005 C239.206281,66.493798 238.919154,66.3573538 238.605742,66.2537573 C238.29334,66.1506661 237.963752,66.0981099 237.617987,66.0981099 C237.214089,66.0981099 236.871357,66.1769443 236.590297,66.3351185 C236.308731,66.4927873 236.092881,66.6984643 235.942746,66.9531601 C235.792611,67.2068452 235.716786,67.4837763 235.716786,67.7849642 C235.716786,68.0361226 235.770369,68.2519065 235.876019,68.4323161 C235.98167,68.6122203 236.127255,68.7658463 236.31227,68.8936995 C236.49779,69.0225635 236.71364,69.1392991 236.959315,69.244917 C237.206506,69.3520509 237.465325,69.4561528 237.73678,69.5597493 C238.274131,69.7821028 238.771547,70.0034456 239.227512,70.225799 C239.683477,70.4471418 240.079286,70.6983002 240.414436,70.9797795 C240.75009,71.2612588 241.010425,71.5957997 241.194934,71.985929 C241.379949,72.3750476 241.47195,72.8389578 241.47195,73.3761436 C241.47195,74.140231 241.291991,74.7926363 240.929544,75.3318435 C240.566592,75.8725668 240.066143,76.2849314 239.427692,76.5709589 C238.788229,76.8564809 238.051709,77 237.218638,77" id="Fill-24" fill="#FFFFFF"></path>
                        <polygon id="Fill-26" fill="#FFFFFF" points="0 12.4251126 0 0.222454551 1.9381029 0.222454551 1.9381029 5.4583737 7.25752303 5.4583737 7.25752303 0.222454551 9.19562593 0.222454551 9.19562593 12.4251126 7.25752303 12.4251126 7.25752303 7.15988318 1.9381029 7.15988318 1.9381029 12.4251126"></polygon>
                        <polygon id="Fill-28" fill="#FFFFFF" points="12.9980281 12.4251126 12.9980281 0.222454551 19.5594719 0.222454551 19.5594719 1.92345869 14.936131 1.92345869 14.936131 5.4583737 19.38204 5.4583737 19.38204 7.15988318 14.936131 7.15988318 14.936131 10.7236031 19.5594719 10.7236031 19.5594719 12.4251126"></polygon>
                        <polygon id="Fill-30" fill="#FFFFFF" points="22.8520732 12.4251126 22.8520732 0.222454551 24.7901761 0.222454551 30.5160216 9.17824637 30.5160216 0.222454551 32.4470474 0.222454551 32.4470474 12.4251126 30.5160216 12.4251126 24.7901761 3.47589027 24.7901761 12.4251126"></polygon>
                        <path d="M38.1954383,6.00566647 L39.4900345,6.00566647 C40.0273854,6.00566647 40.4884052,5.92127322 40.8735993,5.75097066 C41.258288,5.58066811 41.5540079,5.33607928 41.7607591,5.01821487 C41.9685213,4.70035046 42.0716441,4.3198228 42.0716441,3.87612653 C42.0716441,3.21462493 41.8461893,2.69967448 41.3952796,2.32925379 C40.9433589,1.96034915 40.3089512,1.77589683 39.4900345,1.77589683 L38.1954383,1.77589683 L38.1954383,6.00566647 Z M36.2573355,12.4251126 L36.2573355,0.222454551 L40.0597376,0.222454551 C40.8781489,0.222454551 41.5883822,0.365468268 42.1904376,0.651495701 C42.7919876,0.937017786 43.2590734,1.34988777 43.5922006,1.89010566 C43.9248223,2.42931286 44.0911332,3.0746433 44.0911332,3.82407561 C44.0911332,4.45576163 43.9733507,5.01720417 43.7362693,5.50991928 C43.4996934,6.00364507 43.1630276,6.41247227 42.726272,6.73741156 C42.2900219,7.06336155 41.7658141,7.28975783 41.1546596,7.41811643 L45.1713956,12.4251126 L42.7151509,12.4251126 L39.0537844,7.63238433 L38.1954383,7.63238433 L38.1954383,12.4251126 L36.2573355,12.4251126 Z" id="Fill-32" fill="#FFFFFF"></path>
                        <polygon id="Fill-34" fill="#FFFFFF" points="48.833672 12.4251126 48.833672 7.04112621 44.4913914 0.222454551 46.82126 0.222454551 49.803229 5.05156789 52.7841869 0.222454551 55.1221436 0.222454551 50.7717749 7.04112621 50.7717749 12.4251126"></polygon>
                        <g id="Group-38" transform="translate(60.374584, 0.000000)">
                            <mask id="mask-2" fill="white">
                                <use xlink:href="#path-1"></use>
                            </mask>
                            <g id="Clip-37"></g>
                            <path d="M6.59885113,12.6619695 C5.68692165,12.6619695 4.82958661,12.4997526 4.02836254,12.1738026 C3.22663297,11.8478526 2.5239822,11.3975868 1.91990475,10.8204784 C1.31532179,10.2433701 0.844697429,9.5727722 0.506515155,8.80919013 C0.168838385,8.04409201 0,7.21885739 0,6.33146486 C0,5.44862046 0.168838385,4.62338584 0.506515155,3.85727702 C0.844697429,3.09015751 1.31532179,2.41854893 1.91990475,1.84245127 C2.5239822,1.26534292 3.22410545,0.814066417 4.02128548,0.488116427 C4.81745452,0.163177135 5.67681156,-5.05348822e-05 6.59885113,-5.05348822e-05 C7.34851378,-5.05348822e-05 8.06279113,0.107588764 8.7406722,0.322362014 C9.41855326,0.537135263 10.001905,0.826194789 10.490222,1.19055129 L9.63945857,2.83293496 C9.26942953,2.5373059 8.83065193,2.30838288 8.32312577,2.14464987 C7.8145886,1.98243289 7.27976521,1.90157708 6.7171391,1.90157708 C6.05139014,1.90157708 5.4377081,2.01477522 4.87508199,2.24167684 C4.31296138,2.46857846 3.82363336,2.78189473 3.40709795,3.18465774 C2.99005703,3.58590471 2.66703988,4.05537376 2.43754099,4.59357026 C2.20854762,5.13075605 2.09329267,5.7098858 2.09329267,6.33146486 C2.09329267,6.95203321 2.20854762,7.53116296 2.43754099,8.06935945 C2.66703988,8.60654525 2.99005703,9.07601431 3.40709795,9.47827197 C3.82363336,9.88002428 4.31296138,10.1943513 4.87508199,10.4212529 C5.4377081,10.6481545 6.05139014,10.7613526 6.7171391,10.7613526 C7.27976521,10.7613526 7.8145886,10.6794861 8.32312577,10.5167638 C8.83065193,10.3545468 9.26942953,10.1256238 9.63945857,9.82999475 L10.490222,11.4708624 C10.0120151,11.8210691 9.43725691,12.1070965 8.76695841,12.32945 C8.09615441,12.5507928 7.37277798,12.6619695 6.59885113,12.6619695" id="Fill-36" fill="#FFFFFF" mask="url(#mask-2)"></path>
                        </g>
                        <path d="M75.8508466,7.543544 L79.4904765,7.543544 L77.6635845,2.8256074 L75.8508466,7.543544 Z M71.9079143,12.4252136 L76.7678311,0.222050272 L78.5654039,0.222050272 L83.4334088,12.4252136 L81.3471932,12.4252136 L80.1486429,9.24505349 L75.1921747,9.24505349 L73.9865473,12.4252136 L71.9079143,12.4252136 Z" id="Fill-39" fill="#FFFFFF"></path>
                        <path d="M87.7760433,6.00566647 L89.0706394,6.00566647 C89.6079903,6.00566647 90.0690101,5.92127322 90.4542042,5.75097066 C90.8388929,5.58066811 91.1346128,5.33607928 91.341364,5.01821487 C91.5491262,4.70035046 91.6522491,4.3198228 91.6522491,3.87612653 C91.6522491,3.21462493 91.4267942,2.69967448 90.9758845,2.32925379 C90.5239638,1.96034915 89.8895561,1.77589683 89.0706394,1.77589683 L87.7760433,1.77589683 L87.7760433,6.00566647 Z M85.8379404,12.4251126 L85.8379404,0.222454551 L89.6403426,0.222454551 C90.4587538,0.222454551 91.1689871,0.365468268 91.7710426,0.651495701 C92.3725925,0.937017786 92.8396783,1.34988777 93.1728055,1.89010566 C93.5054273,2.42931286 93.6717381,3.0746433 93.6717381,3.82407561 C93.6717381,4.45576163 93.5539557,5.01720417 93.3168742,5.50991928 C93.0802983,6.00364507 92.7436325,6.41247227 92.3068769,6.73741156 C91.8706269,7.06336155 91.3464191,7.28975783 90.7352646,7.41811643 L94.7520005,12.4251126 L92.2957559,12.4251126 L88.6343893,7.63238433 L87.7760433,7.63238433 L87.7760433,12.4251126 L85.8379404,12.4251126 Z" id="Fill-41" fill="#FFFFFF"></path>
                        <path d="M101.240146,12.6619695 C99.755986,12.6619695 98.6352834,12.2773991 97.8775326,11.5077528 C97.1207929,10.7391173 96.7426758,9.59753429 96.7426758,8.08401457 L96.7426758,0.222302947 L98.6878558,0.222302947 L98.6878558,7.55137691 C98.6878558,8.66567106 98.892585,9.47928267 99.3020433,9.99221172 C99.7115017,10.5046354 100.357536,10.7613526 101.240146,10.7613526 C102.122756,10.7613526 102.770307,10.5046354 103.182293,9.99221172 C103.593774,9.47928267 103.800019,8.66567106 103.800019,7.55137691 L103.800019,0.222302947 L105.738122,0.222302947 L105.738122,8.08401457 C105.738122,9.59753429 105.360511,10.7391173 104.605793,11.5077528 C103.852086,12.2773991 102.729361,12.6619695 101.240146,12.6619695" id="Fill-43" fill="#FFFFFF"></path>
                        <g id="Group-47" transform="translate(107.839553, 0.000000)">
                            <mask id="mask-4" fill="white">
                                <use xlink:href="#path-3"></use>
                            </mask>
                            <g id="Clip-46"></g>
                            <path d="M4.33469806,12.6619695 C3.74780774,12.6619695 3.21500637,12.5876833 2.73679945,12.4396161 C2.25859253,12.2915489 1.83801308,12.1081072 1.4755666,11.8892912 C1.11261463,11.6699698 0.809817643,11.448627 0.56565914,11.2272842 C0.321500637,11.0049308 0.13294759,10.8230052 0,10.6794861 L1.02061287,9.11138872 C1.1586155,9.25490779 1.33250893,9.42521034 1.54229315,9.62179103 C1.75207737,9.81988777 1.99724688,10.0119203 2.27881269,10.1988994 C2.55936749,10.3868892 2.87631859,10.546074 3.22916049,10.6759487 C3.58149688,10.8073394 3.96770204,10.8715187 4.38676498,10.8715187 C4.78611326,10.8715187 5.14401019,10.8038019 5.45944478,10.6683684 C5.77538487,10.5334403 6.02662043,10.3333222 6.21416247,10.0700354 C6.40119901,9.80624335 6.49522278,9.47928267 6.49522278,9.08915338 C6.49522278,8.74905362 6.4249577,8.45847805 6.28392204,8.21742666 C6.1438974,7.97485922 5.94270674,7.76463411 5.6813611,7.58472993 C5.42001546,7.4043204 5.1076139,7.2335125 4.74567293,7.07079018 C4.38322645,6.90756251 3.98185616,6.73523856 3.54307856,6.55280764 C3.22814948,6.41939555 2.91726443,6.26374811 2.61092892,6.08333858 C2.30509891,5.9034344 2.02656612,5.6921986 1.77533056,5.45064186 C1.524095,5.20959047 1.32442086,4.92608978 1.17630815,4.60013979 C1.02819543,4.2752005 0.953886324,3.90073702 0.953886324,3.47573866 C0.953886324,3.01789263 1.04386606,2.5807659 1.22433104,2.16385312 C1.40429052,1.74694034 1.6580536,1.37651966 1.98612579,1.05056967 C2.31419798,0.725125025 2.70748021,0.468913172 3.16597247,0.281428759 C3.62446473,0.0944496948 4.13502392,-5.05348822e-05 4.69714453,-5.05348822e-05 C5.15614229,-5.05348822e-05 5.60098594,0.0666555096 6.03268648,0.200067599 C6.46438702,0.333479688 6.85868026,0.505803636 7.21657719,0.718050141 C7.57396863,0.929285949 7.86867754,1.15416617 8.10070395,1.39117477 L7.25752303,2.86982542 C7.06998099,2.67728752 6.84503165,2.49637265 6.583686,2.32607009 C6.32234036,2.15576754 6.035214,2.01932336 5.72230694,1.91572685 C5.40889437,1.81263569 5.07930566,1.76007941 4.73455184,1.76007941 C4.32964301,1.76007941 3.9869112,1.83891383 3.7063564,1.99708801 C3.42479059,2.15475684 3.20894032,2.36043381 3.05880559,2.61512962 C2.90816535,2.86881473 2.83284524,3.14574588 2.83284524,3.44693378 C2.83284524,3.69809214 2.88592317,3.91387609 2.99207904,4.09428562 C3.09823491,4.2741898 3.2433146,4.42781584 3.42883462,4.55566909 C3.61334364,4.68453304 3.82919391,4.80126862 4.07587993,4.90688653 C4.32256596,5.01402048 4.58138408,5.11812233 4.85283981,5.22171884 C5.39019071,5.44407232 5.88760679,5.66541511 6.34357153,5.88776859 C6.79953627,6.10911137 7.19534602,6.36026974 7.53100077,6.64174903 C7.86615002,6.92322833 8.12648466,7.25776925 8.31149917,7.64789854 C8.49651369,8.03701713 8.58902095,8.50092735 8.58902095,9.03811315 C8.58902095,9.80220056 8.40754496,10.4546059 8.04509849,10.9938131 C7.68265202,11.5345363 7.18169741,11.946901 6.54324567,12.2329284 C5.90479393,12.5184505 5.16827439,12.6619695 4.33469806,12.6619695" id="Fill-45" fill="#FFFFFF" mask="url(#mask-4)"></path>
                        </g>
                        <polygon id="Fill-48" fill="#FFFFFF" points="126.038208 10.0877226 126.038208 7.0854453 123.042085 7.0854453 123.042085 5.49511255 126.038208 5.49511255 126.038208 2.4928352 127.636107 2.4928352 127.636107 5.49511255 130.624647 5.49511255 130.624647 7.0854453 127.636107 7.0854453 127.636107 10.0877226"></polygon>
                        <path d="M140.64192,7.543544 L144.28155,7.543544 L142.454658,2.8256074 L140.64192,7.543544 Z M136.698482,12.4252136 L141.558904,0.222050272 L143.356477,0.222050272 L148.224482,12.4252136 L146.138266,12.4252136 L144.939716,9.24505349 L139.983248,9.24505349 L138.77762,12.4252136 L136.698482,12.4252136 Z" id="Fill-50" fill="#FFFFFF"></path>
                        <g id="Group-54" transform="translate(149.127818, 0.000000)">
                            <mask id="mask-6" fill="white">
                                <use xlink:href="#path-5"></use>
                            </mask>
                            <g id="Clip-53"></g>
                            <path d="M4.33469806,12.6619695 C3.74780774,12.6619695 3.21500637,12.5876833 2.73679945,12.4396161 C2.25859253,12.2915489 1.83801308,12.1081072 1.4755666,11.8892912 C1.11261463,11.6699698 0.809817643,11.448627 0.56565914,11.2272842 C0.321500637,11.0049308 0.13294759,10.8230052 0,10.6794861 L1.02061287,9.11138872 C1.1586155,9.25490779 1.33250893,9.42521034 1.54229315,9.62179103 C1.75207737,9.81988777 1.99724688,10.0119203 2.27881269,10.1988994 C2.55936749,10.3868892 2.87631859,10.546074 3.22916049,10.6759487 C3.58149688,10.8073394 3.96770204,10.8715187 4.38676498,10.8715187 C4.78611326,10.8715187 5.14401019,10.8038019 5.45944478,10.6683684 C5.77538487,10.5334403 6.02662043,10.3333222 6.21416247,10.0700354 C6.40119901,9.80624335 6.49522278,9.47928267 6.49522278,9.08915338 C6.49522278,8.74905362 6.4249577,8.45847805 6.28392204,8.21742666 C6.1438974,7.97485922 5.94270674,7.76463411 5.6813611,7.58472993 C5.42001546,7.4043204 5.1076139,7.2335125 4.74567293,7.07079018 C4.38322645,6.90756251 3.98185616,6.73523856 3.54307856,6.55280764 C3.22814948,6.41939555 2.91726443,6.26374811 2.61092892,6.08333858 C2.30509891,5.9034344 2.02656612,5.6921986 1.77533056,5.45064186 C1.524095,5.20959047 1.32442086,4.92608978 1.17630815,4.60013979 C1.02819543,4.2752005 0.953886324,3.90073702 0.953886324,3.47573866 C0.953886324,3.01789263 1.04386606,2.5807659 1.22433104,2.16385312 C1.40429052,1.74694034 1.6580536,1.37651966 1.98612579,1.05056967 C2.31419798,0.725125025 2.70748021,0.468913172 3.16597247,0.281428759 C3.62446473,0.0944496948 4.13502392,-5.05348822e-05 4.69714453,-5.05348822e-05 C5.15614229,-5.05348822e-05 5.60098594,0.0666555096 6.03268648,0.200067599 C6.46438702,0.333479688 6.85868026,0.505803636 7.21657719,0.718050141 C7.57396863,0.929285949 7.86867754,1.15416617 8.10070395,1.39117477 L7.25752303,2.86982542 C7.06998099,2.67728752 6.84503165,2.49637265 6.583686,2.32607009 C6.32234036,2.15576754 6.035214,2.01932336 5.72230694,1.91572685 C5.40889437,1.81263569 5.07930566,1.76007941 4.73455184,1.76007941 C4.32964301,1.76007941 3.9869112,1.83891383 3.7063564,1.99708801 C3.42479059,2.15475684 3.20894032,2.36043381 3.05880559,2.61512962 C2.90816535,2.86881473 2.83284524,3.14574588 2.83284524,3.44693378 C2.83284524,3.69809214 2.88592317,3.91387609 2.99207904,4.09428562 C3.09823491,4.2741898 3.2433146,4.42781584 3.42883462,4.55566909 C3.61334364,4.68453304 3.82919391,4.80126862 4.07587993,4.90688653 C4.32256596,5.01402048 4.58138408,5.11812233 4.85283981,5.22171884 C5.39019071,5.44407232 5.88760679,5.66541511 6.34357153,5.88776859 C6.79953627,6.10911137 7.19534602,6.36026974 7.53100077,6.64174903 C7.86615002,6.92322833 8.12648466,7.25776925 8.31099367,7.64789854 C8.49651369,8.03701713 8.58851545,8.50092735 8.58851545,9.03811315 C8.58851545,9.80220056 8.40754496,10.4546059 8.04509849,10.9938131 C7.68265202,11.5345363 7.18169741,11.946901 6.54324567,12.2329284 C5.90479393,12.5184505 5.16827439,12.6619695 4.33469806,12.6619695" id="Fill-52" fill="#FFFFFF" mask="url(#mask-6)"></path>
                        </g>
                        <g id="Group-57" transform="translate(159.167080, 0.000000)">
                            <mask id="mask-8" fill="white">
                                <use xlink:href="#path-7"></use>
                            </mask>
                            <g id="Clip-56"></g>
                            <path d="M4.33469806,12.6619695 C3.74780774,12.6619695 3.21500637,12.5876833 2.73679945,12.4396161 C2.25859253,12.2915489 1.83801308,12.1081072 1.4755666,11.8892912 C1.11261463,11.6699698 0.809817643,11.448627 0.56565914,11.2272842 C0.321500637,11.0049308 0.13294759,10.8230052 0,10.6794861 L1.02061287,9.11138872 C1.1586155,9.25490779 1.33250893,9.42521034 1.54229315,9.62179103 C1.75207737,9.81988777 1.99724688,10.0119203 2.27881269,10.1988994 C2.55936749,10.3868892 2.87631859,10.546074 3.22916049,10.6759487 C3.58149688,10.8073394 3.96770204,10.8715187 4.38676498,10.8715187 C4.78611326,10.8715187 5.14401019,10.8038019 5.45944478,10.6683684 C5.77538487,10.5334403 6.02662043,10.3333222 6.21416247,10.0700354 C6.40119901,9.80624335 6.49522278,9.47928267 6.49522278,9.08915338 C6.49522278,8.74905362 6.4249577,8.45847805 6.28392204,8.21742666 C6.1438974,7.97485922 5.94270674,7.76463411 5.6813611,7.58472993 C5.41950995,7.4043204 5.1076139,7.2335125 4.74567293,7.07079018 C4.38322645,6.90756251 3.98185616,6.73523856 3.54307856,6.55280764 C3.22814948,6.41939555 2.91726443,6.26374811 2.61092892,6.08333858 C2.30509891,5.9034344 2.02656612,5.6921986 1.77533056,5.45064186 C1.524095,5.20959047 1.32442086,4.92608978 1.17630815,4.60013979 C1.02819543,4.2752005 0.953886324,3.90073702 0.953886324,3.47573866 C0.953886324,3.01789263 1.04386606,2.5807659 1.22433104,2.16385312 C1.40429052,1.74694034 1.6580536,1.37651966 1.98612579,1.05056967 C2.31419798,0.725125025 2.70748021,0.468913172 3.16597247,0.281428759 C3.62446473,0.0944496948 4.13502392,-5.05348822e-05 4.69714453,-5.05348822e-05 C5.15614229,-5.05348822e-05 5.60098594,0.0666555096 6.03268648,0.200067599 C6.46438702,0.333479688 6.85868026,0.505803636 7.21657719,0.718050141 C7.57396863,0.929285949 7.86867754,1.15416617 8.10070395,1.39117477 L7.25752303,2.86982542 C7.06998099,2.67728752 6.84503165,2.49637265 6.583686,2.32607009 C6.32234036,2.15576754 6.035214,2.01932336 5.72230694,1.91572685 C5.40838886,1.81263569 5.07930566,1.76007941 4.73455184,1.76007941 C4.32964301,1.76007941 3.9869112,1.83891383 3.7063564,1.99708801 C3.42479059,2.15475684 3.20894032,2.36043381 3.05880559,2.61512962 C2.90816535,2.86881473 2.83284524,3.14574588 2.83284524,3.44693378 C2.83284524,3.69809214 2.88592317,3.91387609 2.99207904,4.09428562 C3.09823491,4.2741898 3.2433146,4.42781584 3.42883462,4.55566909 C3.61334364,4.68453304 3.82919391,4.80126862 4.07587993,4.90688653 C4.32256596,5.01402048 4.58138408,5.11812233 4.85283981,5.22171884 C5.39019071,5.44407232 5.88760679,5.66541511 6.34357153,5.88776859 C6.79953627,6.10911137 7.19534602,6.36026974 7.53100077,6.64174903 C7.86615002,6.92322833 8.12648466,7.25776925 8.31099367,7.64789854 C8.49651369,8.03701713 8.58851545,8.50092735 8.58851545,9.03811315 C8.58851545,9.80220056 8.40754496,10.4546059 8.04459299,10.9938131 C7.68265202,11.5345363 7.18169741,11.946901 6.54324567,12.2329284 C5.90479393,12.5184505 5.16827439,12.6619695 4.33469806,12.6619695" id="Fill-55" fill="#FFFFFF" mask="url(#mask-8)"></path>
                        </g>
                        <g id="Group-60" transform="translate(169.863699, 0.000000)">
                            <mask id="mask-10" fill="white">
                                <use xlink:href="#path-9"></use>
                            </mask>
                            <g id="Clip-59"></g>
                            <path d="M6.15501849,10.7905113 C6.73735926,10.7905113 7.27622668,10.6793345 7.77162075,10.4579917 C8.26752031,10.2356382 8.69871535,9.92434337 9.06672237,9.52309641 C9.43371838,9.1203334 9.71983373,8.64783225 9.92456291,8.10306622 C10.1292921,7.55779484 10.2319094,6.96754742 10.2319094,6.33131325 C10.2319094,5.6900256 10.1292921,5.09826213 9.92456291,4.55551749 C9.71983373,4.0142889 9.43371838,3.5412824 9.06672237,3.14003544 C8.69871535,2.73777778 8.26752031,2.42597755 7.77162075,2.20362407 C7.27622668,1.98228129 6.73735926,1.87110455 6.15501849,1.87110455 C5.57823826,1.87110455 5.04341487,1.98228129 4.55004282,2.20362407 C4.05667077,2.42597755 3.62598124,2.73777778 3.25898523,3.14003544 C2.89148372,3.5412824 2.60536837,4.0142889 2.4011447,4.55551749 C2.19641552,5.09826213 2.09379817,5.6900256 2.09379817,6.33131325 C2.09379817,6.96754742 2.19641552,7.55779484 2.4011447,8.10306622 C2.60536837,8.64783225 2.89148372,9.1203334 3.25898523,9.52309641 C3.62598124,9.92434337 4.05667077,10.2356382 4.55004282,10.4579917 C5.04341487,10.6793345 5.57823826,10.7905113 6.15501849,10.7905113 M6.15501849,12.6618179 C5.30172749,12.6618179 4.50303094,12.499601 3.75842333,12.173651 C3.01381572,11.8482063 2.36019886,11.3954138 1.79807825,10.816284 C1.23595764,10.2366489 0.795158022,9.56402966 0.477195914,8.79792085 C0.159233806,8.03080134 0,7.20859881 0,6.33131325 C0,5.44846886 0.159233806,4.62576098 0.477195914,3.86066286 C0.795158022,3.09657544 1.23595764,2.42496686 1.79807825,1.84583711 C2.36019886,1.26620201 3.01381572,0.813914813 3.75842333,0.487964822 C4.50303094,0.163530879 5.30172749,-0.000202139529 6.15501849,-0.000202139529 C7.00881499,-0.000202139529 7.80751154,0.163530879 8.55211915,0.487964822 C9.29672676,0.813914813 9.95034362,1.26620201 10.5124642,1.84583711 C11.0745848,2.42496686 11.5153845,3.09657544 11.8333466,3.86066286 C12.1513087,4.62576098 12.3105425,5.44846886 12.3105425,6.33131325 C12.3105425,7.20859881 12.1513087,8.03080134 11.8333466,8.79792085 C11.5153845,9.56402966 11.0745848,10.2366489 10.5124642,10.816284 C9.95034362,11.3954138 9.29672676,11.8482063 8.55211915,12.173651 C7.80751154,12.499601 7.00881499,12.6618179 6.15501849,12.6618179" id="Fill-58" fill="#FFFFFF" mask="url(#mask-10)"></path>
                        </g>
                        <g id="Group-63" transform="translate(183.971814, 0.000000)">
                            <mask id="mask-12" fill="white">
                                <use xlink:href="#path-11"></use>
                            </mask>
                            <g id="Clip-62"></g>
                            <path d="M6.59885113,12.6619695 C5.68692165,12.6619695 4.82958661,12.4997526 4.02836254,12.1738026 C3.22663297,11.8478526 2.5239822,11.3975868 1.91990475,10.8204784 C1.31532179,10.2433701 0.844697429,9.5727722 0.506515155,8.80919013 C0.168838385,8.04409201 0,7.21885739 0,6.33146486 C0,5.44862046 0.168838385,4.62338584 0.506515155,3.85727702 C0.844697429,3.09015751 1.31532179,2.41854893 1.91990475,1.84245127 C2.5239822,1.26534292 3.22410545,0.814066417 4.02128548,0.488116427 C4.81745452,0.163177135 5.67681156,-5.05348822e-05 6.59885113,-5.05348822e-05 C7.34851378,-5.05348822e-05 8.06279113,0.107588764 8.7406722,0.322362014 C9.41855326,0.537135263 10.001905,0.826194789 10.490222,1.19055129 L9.63945857,2.83293496 C9.26942953,2.5373059 8.83065193,2.30838288 8.32312577,2.14464987 C7.8145886,1.98243289 7.27976521,1.90157708 6.7171391,1.90157708 C6.05139014,1.90157708 5.4377081,2.01477522 4.87508199,2.24167684 C4.31296138,2.46857846 3.82363336,2.78189473 3.40709795,3.18465774 C2.99005703,3.58590471 2.66653437,4.05537376 2.43754099,4.59357026 C2.20854762,5.13075605 2.09329267,5.7098858 2.09329267,6.33146486 C2.09329267,6.95203321 2.20854762,7.53116296 2.43754099,8.06935945 C2.66653437,8.60654525 2.99005703,9.07601431 3.40709795,9.47827197 C3.82363336,9.88002428 4.31296138,10.1943513 4.87508199,10.4212529 C5.4377081,10.6481545 6.05139014,10.7613526 6.7171391,10.7613526 C7.27976521,10.7613526 7.8145886,10.6794861 8.32312577,10.5167638 C8.83065193,10.3545468 9.26942953,10.1256238 9.63945857,9.82999475 L10.490222,11.4708624 C10.0120151,11.8210691 9.43725691,12.1070965 8.76695841,12.32945 C8.09615441,12.5507928 7.37277798,12.6619695 6.59885113,12.6619695" id="Fill-61" fill="#FFFFFF" mask="url(#mask-12)"></path>
                        </g>
                        <mask id="mask-14" fill="white">
                            <use xlink:href="#path-13"></use>
                        </mask>
                        <g id="Clip-65"></g>
                        <polygon id="Fill-64" fill="#FFFFFF" mask="url(#mask-14)" points="196.902964 12.4250115 198.841067 12.4250115 198.841067 0.222353482 196.902964 0.222353482"></polygon>
                        <path d="M205.18934,7.543544 L208.82897,7.543544 L207.002078,2.8256074 L205.18934,7.543544 Z M201.246407,12.4252136 L206.106324,0.222050272 L207.903897,0.222050272 L212.771902,12.4252136 L210.685686,12.4252136 L209.487136,9.24505349 L204.530668,9.24505349 L203.32504,12.4252136 L201.246407,12.4252136 Z" id="Fill-66" fill="#FFFFFF" mask="url(#mask-14)"></path>
                        <polygon id="Fill-67" fill="#FFFFFF" mask="url(#mask-14)" points="216.485538 12.4251126 216.485538 1.94569403 213.164375 1.94569403 213.164375 0.222454551 221.745814 0.222454551 221.745814 1.94569403 218.416563 1.94569403 218.416563 12.4251126"></polygon>
                        <polygon id="Fill-68" fill="#FFFFFF" mask="url(#mask-14)" points="224.238404 12.4251126 224.238404 0.222454551 230.799848 0.222454551 230.799848 1.92345869 226.176507 1.92345869 226.176507 5.4583737 230.622416 5.4583737 230.622416 7.15988318 226.176507 7.15988318 226.176507 10.7236031 230.799848 10.7236031 230.799848 12.4251126"></polygon>
                        <path d="M237.221419,12.6619695 C236.634528,12.6619695 236.101727,12.5876833 235.62352,12.4396161 C235.145313,12.2915489 234.724734,12.1081072 234.362287,11.8892912 C233.999335,11.6699698 233.696538,11.448627 233.45238,11.2272842 C233.208221,11.0049308 233.019668,10.8230052 232.886721,10.6794861 L233.907334,9.11138872 C234.045336,9.25490779 234.21923,9.42521034 234.429014,9.62179103 C234.638798,9.81988777 234.883968,10.0119203 235.165533,10.1988994 C235.446088,10.3868892 235.763039,10.546074 236.115881,10.6759487 C236.468218,10.8073394 236.854423,10.8715187 237.273486,10.8715187 C237.672834,10.8715187 238.030731,10.8038019 238.346165,10.6683684 C238.662106,10.5334403 238.913341,10.3333222 239.100883,10.0700354 C239.28792,9.80624335 239.381943,9.47928267 239.381943,9.08915338 C239.381943,8.74905362 239.311678,8.45847805 239.170643,8.21742666 C239.030618,7.97485922 238.829427,7.76463411 238.568082,7.58472993 C238.306736,7.4043204 237.994335,7.2335125 237.632394,7.07079018 C237.269947,6.90756251 236.868577,6.73523856 236.429799,6.55280764 C236.11487,6.41939555 235.803985,6.26374811 235.49765,6.08333858 C235.19182,5.9034344 234.913287,5.6921986 234.662051,5.45064186 C234.410816,5.20959047 234.211142,4.92608978 234.063029,4.60013979 C233.914916,4.2752005 233.840607,3.90073702 233.840607,3.47573866 C233.840607,3.01789263 233.930587,2.5807659 234.111052,2.16385312 C234.291011,1.74694034 234.544774,1.37651966 234.872846,1.05056967 C235.200919,0.725125025 235.594201,0.468913172 236.052693,0.281428759 C236.511185,0.0944496948 237.021745,-5.05348822e-05 237.583865,-5.05348822e-05 C238.042863,-5.05348822e-05 238.487707,0.0666555096 238.919407,0.200067599 C239.351108,0.333479688 239.745401,0.505803636 240.103298,0.718050141 C240.460689,0.929285949 240.755398,1.15416617 240.987425,1.39117477 L240.144244,2.86982542 C239.956702,2.67728752 239.731752,2.49637265 239.470407,2.32607009 C239.209061,2.15576754 238.921935,2.01932336 238.609028,1.91572685 C238.295615,1.81263569 237.966026,1.76007941 237.621273,1.76007941 C237.216364,1.76007941 236.873632,1.83891383 236.593077,1.99708801 C236.311511,2.15475684 236.095661,2.36043381 235.945526,2.61512962 C235.794886,2.86881473 235.719566,3.14574588 235.719566,3.44693378 C235.719566,3.69809214 235.772644,3.91387609 235.8788,4.09428562 C235.984956,4.2741898 236.130035,4.42781584 236.315555,4.55566909 C236.500064,4.68453304 236.715915,4.80126862 236.962601,4.90688653 C237.209287,5.01402048 237.468105,5.11812233 237.739561,5.22171884 C238.276911,5.44407232 238.774327,5.66541511 239.230292,5.88776859 C239.686257,6.10911137 240.082067,6.36026974 240.417721,6.64174903 C240.752871,6.92322833 241.013205,7.25776925 241.19822,7.64789854 C241.383234,8.03701713 241.475236,8.50092735 241.475236,9.03811315 C241.475236,9.80220056 241.294266,10.4546059 240.931819,10.9938131 C240.569373,11.5345363 240.068418,11.946901 239.429966,12.2329284 C238.791515,12.5184505 238.054995,12.6619695 237.221419,12.6619695" id="Fill-69" fill="#FFFFFF" mask="url(#mask-14)"></path>
                        <polygon id="Fill-70" fill="#FFFFFF" mask="url(#mask-14)" points="56.9050567 43.9491258 56.9050567 38.6490274 52.5400284 32.1633806 55.8622017 32.1633806 58.276995 35.8569751 60.6988653 32.1633806 64.0210386 32.1633806 59.6560103 38.6490274 59.6560103 43.9491258"></polygon>
                        <path d="M70.9802636,41.5207226 C71.4225797,41.5207226 71.8264776,41.4383507 72.1904405,41.2741124 C72.5554145,41.1103793 72.8693326,40.8743814 73.1337113,40.5671294 C73.3985955,40.2598773 73.6028191,39.8950154 73.7484043,39.4700171 C73.8939895,39.0465348 73.9667821,38.577571 73.9667821,38.0636313 C73.9667821,37.5491862 73.8939895,37.0797171 73.7484043,36.6562348 C73.6028191,36.2327525 73.3985955,35.86688 73.1337113,35.5606386 C72.8693326,35.2528811 72.5554145,35.0173886 72.1904405,34.8536556 C71.8264776,34.6884065 71.4225797,34.6070454 70.9802636,34.6070454 C70.541486,34.6070454 70.1416322,34.6884065 69.7796913,34.8536556 C69.4167393,35.0173886 69.1038322,35.2528811 68.8399591,35.5606386 C68.5750749,35.86688 68.3708512,36.2327525 68.225266,36.6562348 C68.0796808,37.0797171 68.0078992,37.5491862 68.0078992,38.0636313 C68.0078992,38.577571 68.0796808,39.0465348 68.225266,39.4700171 C68.3708512,39.8950154 68.5750749,40.2598773 68.8399591,40.5671294 C69.1038322,40.8743814 69.4167393,41.1103793 69.7796913,41.2741124 C70.1416322,41.4383507 70.541486,41.5207226 70.9802636,41.5207226 M70.9868352,44.1773413 C70.1633689,44.1773413 69.3909586,44.0206832 68.6716262,43.7058509 C67.9522938,43.3920293 67.3214246,42.9554079 66.7780076,42.3959867 C66.2361072,41.8355549 65.8099672,41.1861817 65.5026207,40.4453403 C65.1962852,39.7050043 65.0421064,38.9111013 65.0421064,38.0636313 C65.0421064,37.215656 65.1962852,36.421753 65.5026207,35.6809116 C65.8099672,34.9415863 66.2361072,34.290697 66.7780076,33.7317812 C67.3214246,33.17236 67.9522938,32.7357387 68.6716262,32.4209063 C69.3909586,32.1065794 70.1633689,31.9494159 70.9868352,31.9494159 C71.8113124,31.9494159 72.5827118,32.1065794 73.3020442,32.4209063 C74.0208711,32.7357387 74.6522457,33.17236 75.1956627,33.7317812 C75.7385741,34.290697 76.1631976,34.9415863 76.4710497,35.6809116 C76.7773852,36.421753 76.9315639,37.215656 76.9315639,38.0636313 C76.9315639,38.9111013 76.7773852,39.7050043 76.4710497,40.4453403 C76.1631976,41.1861817 75.7385741,41.8355549 75.1956627,42.3959867 C74.6522457,42.9554079 74.0208711,43.3920293 73.3020442,43.7058509 C72.5827118,44.0206832 71.8113124,44.1773413 70.9868352,44.1773413" id="Fill-71" fill="#FFFFFF" mask="url(#mask-14)"></path>
                        <path d="M84.1548643,44.1771897 C82.6307693,44.1771897 81.4782199,43.8077797 80.6967105,43.0674437 C79.9157066,42.3266023 79.5244463,41.2305008 79.5244463,39.7776229 L79.5244463,32.1635322 L82.2688284,32.1635322 L82.2688284,38.9705808 C82.2688284,39.8852622 82.4103695,40.5300873 82.6934518,40.9060668 C82.9770397,41.283057 83.4638402,41.4705414 84.1548643,41.4705414 C84.8357784,41.4705414 85.3185349,41.283057 85.6021227,40.9060668 C85.8857105,40.5300873 86.0267462,39.8852622 86.0267462,38.9705808 L86.0267462,32.1635322 L88.7852823,32.1635322 L88.7852823,39.7776229 C88.7852823,41.2305008 88.3940221,42.3266023 87.6130182,43.0674437 C86.8315088,43.8077797 85.6789593,44.1771897 84.1548643,44.1771897" id="Fill-72" fill="#FFFFFF" mask="url(#mask-14)"></path>
                        <path d="M99.6662591,41.4848934 L100.037805,41.4848934 C100.513484,41.4848934 100.953778,41.3999947 101.356665,41.2317136 C101.758541,41.0624217 102.106328,40.8244024 102.39952,40.5171504 C102.691701,40.2098983 102.920189,39.8480685 103.081951,39.4311557 C103.243712,39.0152537 103.324087,38.5569023 103.324087,38.0561016 C103.324087,37.5608597 103.244723,37.1060458 103.084984,36.689133 C102.925244,36.2717149 102.698273,35.9103905 102.403059,35.6026331 C102.107339,35.295381 101.759552,35.056351 101.359698,34.8850377 C100.96035,34.7132191 100.519045,34.6273098 100.037805,34.6273098 L99.6662591,34.6273098 L99.6662591,41.4848934 Z M96.9092394,43.9489742 L96.9092394,32.163229 L100.359305,32.163229 C101.197937,32.163229 101.976919,32.3143283 102.696251,32.6140001 C103.415583,32.913672 104.045441,33.3331115 104.58532,33.8708027 C105.126209,34.4095045 105.5478,35.036137 105.850091,35.7527217 C106.152888,36.4693063 106.304034,37.2414793 106.304034,38.0702514 C106.304034,38.8990234 106.154405,39.6711964 105.854135,40.384749 C105.55336,41.0993122 105.132781,41.7229126 104.592902,42.2560557 C104.052013,42.7891987 103.420638,43.2051007 102.699284,43.5027512 C101.97793,43.8004017 101.197937,43.9489742 100.359305,43.9489742 L96.9092394,43.9489742 Z" id="Fill-73" fill="#FFFFFF" mask="url(#mask-14)"></path>
                        <polygon id="Fill-74" fill="#FFFFFF" mask="url(#mask-14)" points="109.068939 43.9491258 109.068939 32.1633806 115.849267 32.1633806 115.849267 34.5850121 111.825959 34.5850121 111.825959 36.8353304 115.677395 36.8353304 115.677395 39.2498871 111.825959 39.2498871 111.825959 41.528505 115.849267 41.528505 115.849267 43.9491258"></polygon>
                        <path d="M122.38589,44.1771897 C121.862188,44.1771897 121.368816,44.1281709 120.907291,44.0316493 C120.444754,43.934117 120.024175,43.8047477 119.646058,43.6450574 C119.26693,43.4863779 118.933297,43.3191074 118.645665,43.1452674 C118.357528,42.9714274 118.124996,42.8066837 117.94908,42.6490149 L119.32759,40.3345173 C119.51766,40.4724775 119.730982,40.618018 119.963009,40.770128 C120.197057,40.9232487 120.449809,41.0632303 120.721771,41.1915889 C120.993226,41.3209582 121.275803,41.4250601 121.571017,41.5064212 C121.866737,41.5867717 122.164479,41.6282103 122.464243,41.6282103 C122.749853,41.6282103 122.996539,41.5867717 123.203796,41.5064212 C123.411558,41.4250601 123.571297,41.303271 123.683014,41.1415594 C123.79473,40.9798477 123.850336,40.780235 123.850336,40.5422157 C123.850336,40.3127873 123.79928,40.1162066 123.697168,39.9489361 C123.594045,39.7831817 123.43835,39.6275343 123.229071,39.4855313 C123.019287,39.3420122 122.754403,39.1944504 122.432397,39.0423404 C122.110896,38.8902304 121.730757,38.7133583 121.29299,38.5132401 C120.969468,38.3656783 120.666165,38.192849 120.384599,37.9952576 C120.10455,37.7976662 119.859886,37.5753127 119.652629,37.3276918 C119.445878,37.0800709 119.284117,36.8051611 119.16684,36.5029625 C119.050574,36.2002586 118.991935,35.8732979 118.991935,35.5215751 C118.991935,35.0586756 119.087476,34.6164954 119.277545,34.1920024 C119.467615,33.76852 119.737048,33.387487 120.084835,33.0494087 C120.432622,32.7118357 120.850674,32.4434954 121.338486,32.245904 C121.827308,32.0483127 122.369714,31.9492643 122.964692,31.9492643 C123.3787,31.9492643 123.806862,31.9992938 124.246651,32.0993529 C124.687956,32.1989066 125.108536,32.332824 125.508389,32.5000945 C125.907738,32.6663543 126.25148,32.8538387 126.53709,33.0635584 L125.422454,35.256267 C125.198515,35.0991035 124.95284,34.9596272 124.686945,34.8383435 C124.419533,34.7175651 124.144539,34.6230649 123.861457,34.5568642 C123.577869,34.4896528 123.302875,34.4568051 123.035463,34.4568051 C122.755414,34.4568051 122.514288,34.4982437 122.314109,34.5821317 C122.114434,34.6645035 121.961267,34.7817444 121.853594,34.931833 C121.745922,35.0814163 121.692844,35.256267 121.692844,35.4563851 C121.692844,35.603947 121.723174,35.7333163 121.786362,35.8419663 C121.847023,35.951627 121.941552,36.0471379 122.067423,36.128499 C122.193799,36.2088495 122.353538,36.2912214 122.54664,36.3740986 C122.740249,36.4574811 122.959637,36.5565295 123.207334,36.670233 C123.798269,36.9178539 124.32096,37.1634534 124.775914,37.4065262 C125.231373,37.6490937 125.612523,37.911875 125.921892,38.1918383 C126.231766,38.4733176 126.467331,38.7992676 126.630608,39.170699 C126.79237,39.5421303 126.872745,39.9772357 126.872745,40.4780364 C126.872745,41.2491987 126.68773,41.9127217 126.318712,42.466584 C125.9502,43.021457 125.430036,43.4449393 124.757716,43.738547 C124.085901,44.0316493 123.295292,44.1771897 122.38589,44.1771897" id="Fill-75" fill="#FFFFFF" mask="url(#mask-14)"></path>
                        <polygon id="Fill-76" fill="#FFFFFF" mask="url(#mask-14)" points="129.717874 43.9491258 129.717874 32.1633806 136.498201 32.1633806 136.498201 34.5850121 132.474894 34.5850121 132.474894 36.8353304 136.32633 36.8353304 136.32633 39.2498871 132.474894 39.2498871 132.474894 41.528505 136.498201 41.528505 136.498201 43.9491258"></polygon>
                        <path d="M142.677383,37.4132979 L143.398737,37.4132979 C143.837515,37.4132979 144.207038,37.3556881 144.506802,37.2384472 C144.806566,37.122217 145.033537,36.9493877 145.189233,36.7204647 C145.343412,36.4925523 145.421765,36.2166319 145.421765,35.8916926 C145.421765,35.3974614 145.24686,35.0184498 144.899073,34.7566791 C144.551287,34.4949084 144.051848,34.3635178 143.398737,34.3635178 L142.677383,34.3635178 L142.677383,37.4132979 Z M139.920363,43.9489742 L139.920363,32.163229 L144.285391,32.163229 C145.100264,32.163229 145.809486,32.3077587 146.414575,32.5958076 C147.018652,32.8843618 147.486749,33.2992531 147.81836,33.8425031 C148.149465,34.3852478 148.314765,35.0422012 148.314765,35.8133635 C148.314765,36.3904719 148.221247,36.9124972 148.032188,37.3819663 C147.844141,37.85093 147.568135,38.2526823 147.203161,38.5882339 C146.839198,38.9237855 146.397388,39.1845455 145.877729,39.3705139 L149.70844,43.9489742 L146.220967,43.9489742 L142.934684,39.6919157 L142.677383,39.6919157 L142.677383,43.9489742 L139.920363,43.9489742 Z" id="Fill-77" fill="#FFFFFF" mask="url(#mask-14)"></path>
                        <polygon id="Fill-78" fill="#FFFFFF" mask="url(#mask-14)" points="155.044794 43.9491258 150.100458 32.1633806 153.208803 32.1633806 156.12354 39.8067815 159.039288 32.1633806 162.147633 32.1633806 157.203297 43.9491258"></polygon>
                        <polygon id="Fill-79" fill="#FFFFFF" mask="url(#mask-14)" points="164.247598 43.9491258 164.247598 32.1633806 171.027926 32.1633806 171.027926 34.5850121 167.004618 34.5850121 167.004618 36.8353304 170.856054 36.8353304 170.856054 39.2498871 167.004618 39.2498871 167.004618 41.528505 171.027926 41.528505 171.027926 43.9491258"></polygon>
                        <polygon id="Fill-80" fill="#FFFFFF" mask="url(#mask-14)" points="178.579197 43.9491258 179.622052 32.1633806 182.551954 32.1633806 185.131036 38.8632953 187.710118 32.1633806 190.64002 32.1633806 191.683381 43.9491258 188.924845 43.9491258 188.403165 37.0915423 185.960063 43.813187 184.302515 43.813187 181.858908 37.0915423 181.337733 43.9491258"></polygon>
                        <path d="M199.914707,41.5207226 C200.357023,41.5207226 200.760921,41.4383507 201.124884,41.2741124 C201.489858,41.1103793 201.803776,40.8743814 202.068155,40.5671294 C202.333039,40.2598773 202.537263,39.8950154 202.682848,39.4700171 C202.828433,39.0465348 202.901226,38.577571 202.901226,38.0636313 C202.901226,37.5491862 202.828433,37.0797171 202.682848,36.6562348 C202.537263,36.2327525 202.333039,35.86688 202.068155,35.5606386 C201.803776,35.2528811 201.489858,35.0173886 201.124884,34.8536556 C200.760921,34.6884065 200.357023,34.6070454 199.914707,34.6070454 C199.47593,34.6070454 199.076076,34.6884065 198.714135,34.8536556 C198.351183,35.0173886 198.038276,35.2528811 197.774403,35.5606386 C197.509519,35.86688 197.305295,36.2327525 197.15971,36.6562348 C197.014124,37.0797171 196.942343,37.5491862 196.942343,38.0636313 C196.942343,38.577571 197.014124,39.0465348 197.15971,39.4700171 C197.305295,39.8950154 197.509519,40.2598773 197.774403,40.5671294 C198.038276,40.8743814 198.351183,41.1103793 198.714135,41.2741124 C199.076076,41.4383507 199.47593,41.5207226 199.914707,41.5207226 M199.921279,44.1773413 C199.097813,44.1773413 198.325402,44.0206832 197.60607,43.7058509 C196.886737,43.3920293 196.255868,42.9554079 195.712451,42.3959867 C195.170551,41.8355549 194.744411,41.1861817 194.437064,40.4453403 C194.130729,39.7050043 193.97655,38.9111013 193.97655,38.0636313 C193.97655,37.215656 194.130729,36.421753 194.437064,35.6809116 C194.744411,34.9415863 195.170551,34.290697 195.712451,33.7317812 C196.255868,33.17236 196.886737,32.7357387 197.60607,32.4209063 C198.325402,32.1065794 199.097813,31.9494159 199.921279,31.9494159 C200.745756,31.9494159 201.517155,32.1065794 202.236488,32.4209063 C202.955315,32.7357387 203.586689,33.17236 204.130106,33.7317812 C204.673018,34.290697 205.097641,34.9415863 205.405493,35.6809116 C205.711829,36.421753 205.866008,37.215656 205.866008,38.0636313 C205.866008,38.9111013 205.711829,39.7050043 205.405493,40.4453403 C205.097641,41.1861817 204.673018,41.8355549 204.130106,42.3959867 C203.586689,42.9554079 202.955315,43.3920293 202.236488,43.7058509 C201.517155,44.0206832 200.745756,44.1773413 199.921279,44.1773413" id="Fill-81" fill="#FFFFFF" mask="url(#mask-14)"></path>
                        <path d="M211.416291,37.4132979 L212.137646,37.4132979 C212.576423,37.4132979 212.945947,37.3556881 213.245711,37.2384472 C213.545475,37.122217 213.772446,36.9493877 213.928142,36.7204647 C214.08232,36.4925523 214.160673,36.2166319 214.160673,35.8916926 C214.160673,35.3974614 213.985769,35.0184498 213.637982,34.7566791 C213.290195,34.4949084 212.790757,34.3635178 212.137646,34.3635178 L211.416291,34.3635178 L211.416291,37.4132979 Z M208.659272,43.9489742 L208.659272,32.163229 L213.0243,32.163229 C213.839173,32.163229 214.548395,32.3077587 215.153484,32.5958076 C215.757561,32.8843618 216.225658,33.2992531 216.557269,33.8425031 C216.888374,34.3852478 217.053674,35.0422012 217.053674,35.8133635 C217.053674,36.3904719 216.960155,36.9124972 216.771097,37.3819663 C216.583049,37.85093 216.307044,38.2526823 215.94207,38.5882339 C215.578107,38.9237855 215.136296,39.1845455 214.616638,39.3705139 L218.447349,43.9489742 L214.959876,43.9489742 L211.673593,39.6919157 L211.416291,39.6919157 L211.416291,43.9489742 L208.659272,43.9489742 Z" id="Fill-82" fill="#FFFFFF" mask="url(#mask-14)"></path>
                        <polygon id="Fill-83" fill="#FFFFFF" mask="url(#mask-14)" points="220.440905 43.9491258 220.440905 32.1633806 227.221232 32.1633806 227.221232 34.5850121 223.197925 34.5850121 223.197925 36.8353304 227.049361 36.8353304 227.049361 39.2498871 223.197925 39.2498871 223.197925 41.528505 227.221232 41.528505 227.221232 43.9491258"></polygon>
                        <polygon id="Fill-84" fill="#40C8F4" mask="url(#mask-14)" points="39.8386807 17.4982083 0.122230903 17.4982083 0.122230903 54.7110849 0.122230903 57.2024546 0.122230903 64.2844129 7.20636601 57.2024546 39.8386807 57.2024546"></polygon>
                        <polygon id="Fill-85" fill="#FFFFFF" mask="url(#mask-14)" points="22.3332743 39.2645928 22.3332743 47.2870053 17.3121016 47.2870053 17.3121016 39.2645928 9.88927872 39.2645928 9.88927872 34.4092013 17.3121016 34.4092013 17.3121016 26.4443985 22.3332743 26.4443985 22.3332743 34.4092013 29.7540752 34.4092013 29.7540752 39.2645928"></polygon>
                    </g>
                </g>
            </g>
        </g>
    </g>
</svg>