<?xml version="1.0" encoding="UTF-8"?>
<svg width="239px" height="94px" viewBox="0 0 239 94" version="1.1" xmlns="http://www.w3.org/2000/svg" xmlns:xlink="http://www.w3.org/1999/xlink">
    <title>8BDB02EB-622C-479B-B176-5D35E5759D0F</title>
    <defs>
        <polygon id="path-1" points="0 0 17 0 17 21 0 21"></polygon>
        <polygon id="path-3" points="0 94 239 94 239 0 0 0"></polygon>
    </defs>
    <g id="home" stroke="none" stroke-width="1" fill="none" fill-rule="evenodd">
        <g id="home1-alt-nav:-Desktops---12-col-Copy" transform="translate(-31.000000, -12.000000)">
            <g id="Group-52" transform="translate(31.000000, 12.000000)">
                <path d="M66,38.2857989 L64.7990401,38.2857989 C64.6550191,36.7565033 64.2175723,35.6276717 63.4893915,34.9031048 C62.7615472,34.1775014 61.6800439,33.8157362 60.2448817,33.8157362 L58.9436455,33.8157362 L58.9436455,49.0603189 C58.9436455,50.1331754 59.1267002,50.8529049 59.4944921,51.2181253 C59.8609379,51.5833457 60.6681957,51.7668197 61.9129003,51.7668197 L61.9129003,53 L51.2701544,53 L51.2701544,51.7668197 C52.4936597,51.7668197 53.28914,51.5833457 53.6555859,51.2181253 C54.0230412,50.8529049 54.2064324,50.1331754 54.2064324,49.0603189 L54.2064324,33.8157362 L52.7053167,33.8157362 C51.2926998,33.8157362 50.2243199,34.1470951 49.5021961,34.8084308 C48.7787263,35.4711486 48.3507013,36.6303865 48.2171118,38.2857989 L47,38.2857989 L47.1995431,32 L65.8001204,32 L66,38.2857989 Z" id="Fill-1" fill="#FEFEFE"></path>
                <path d="M91,53 L80.4063664,53 L80.4063664,51.7667994 C81.6600068,51.7667994 82.4605486,51.5494603 82.8066373,51.1151277 C83.1540806,50.6818316 83.3278022,49.9282282 83.3278022,48.853972 L83.3278022,43.5106786 L75.6721978,43.5106786 L75.6721978,48.853972 C75.6721978,49.9282282 75.8459194,50.6818316 76.1933627,51.1151277 C76.5394514,51.5494603 77.3399932,51.7667994 78.5936336,51.7667994 L78.5936336,53 L68,53 L68,51.7667994 C69.2431426,51.7667994 70.036573,51.5494603 70.3836776,51.1151277 C70.7311209,50.6818316 70.9048425,49.9282282 70.9048425,48.853972 L70.9048425,36.1446459 C70.9048425,35.0596782 70.7311209,34.303656 70.3836776,33.8751974 C70.036573,33.4467388 69.2431426,33.2332006 68,33.2332006 L68,32 L78.5936336,32 L78.5936336,33.2332006 C77.3399932,33.2332006 76.5394514,33.4467388 76.1933627,33.8751974 C75.8459194,34.303656 75.6721978,35.0596782 75.6721978,36.1446459 L75.6721978,41.5577366 L83.3278022,41.5577366 L83.3278022,36.1446459 C83.3278022,35.0596782 83.1540806,34.303656 82.8066373,33.8751974 C82.4605486,33.4467388 81.6600068,33.2332006 80.4063664,33.2332006 L80.4063664,32 L91,32 L91,33.2332006 C89.7687098,33.2332006 88.9790044,33.4467388 88.6329157,33.8751974 C88.2854724,34.303656 88.1117508,35.0596782 88.1117508,36.1446459 L88.1117508,48.853972 C88.1117508,49.9282282 88.2854724,50.6818316 88.6329157,51.1151277 C88.9790044,51.5494603 89.7687098,51.7667994 91,51.7667994 L91,53 Z" id="Fill-3" fill="#FEFEFE"></path>
                <path d="M110,46.9200342 L107.925441,53 L92,53 L92,51.7667994 C92.8331457,51.7667994 93.4540186,51.6697051 93.8599612,51.4755167 C94.266236,51.2813282 94.5356464,50.9440898 94.6675279,50.4644926 C94.7994094,49.9852409 94.8648519,49.3176747 94.8648519,48.4607575 L94.8648519,36.4701362 C94.8648519,35.602162 94.8050568,34.9311406 94.6838055,34.4577629 C94.5625542,33.9843853 94.3021131,33.6554396 93.90215,33.4723081 C93.500526,33.2902132 92.8670296,33.198993 92,33.198993 L92,32 L108.122432,32 L108.352312,37.6521982 L107.2172,37.6521982 C106.985992,36.750362 106.760764,36.0161083 106.541515,35.4504739 C106.321934,34.8862215 105.973129,34.4722752 105.495765,34.2089805 C105.017403,33.9467224 104.27993,33.8157661 103.280022,33.8157661 L99.5089416,33.8157661 L99.5089416,41.4036297 L101.321067,41.4036297 C102.144579,41.4036297 102.764455,41.2726734 103.182025,41.0093787 C103.598597,40.7471206 103.89857,40.3442313 104.079284,39.8017474 C104.26033,39.2603001 104.406164,38.5830591 104.515789,37.7724431 L105.701393,37.7724431 L105.701393,46.5427142 L104.515789,46.5427142 C104.406164,45.7210412 104.262656,45.0666052 104.087589,44.581134 C103.911193,44.0956628 103.614875,43.7449487 103.198302,43.5276096 C102.780733,43.310616 102.155209,43.2024648 101.321067,43.2024648 L99.5089416,43.2024648 L99.5089416,48.666003 C99.5089416,49.4766191 99.5833533,50.1079044 99.7315124,50.5591681 C99.8796715,51.0107773 100.370988,51.2353725 101.205463,51.2353725 L102.802658,51.2353725 C103.977964,51.2353725 104.899806,51.0812656 105.569512,50.7730519 C106.239217,50.4644926 106.805278,49.9938792 107.266033,49.3601751 C107.72712,48.726471 108.22641,47.9123996 108.764234,46.9200342 L110,46.9200342 Z" id="Fill-5" fill="#FEFEFE"></path>
                <path d="M135.655247,47.4163088 C135.655247,45.8289649 135.21723,44.6783652 134.339844,43.9645096 C133.462458,43.2509996 132.237295,42.8940718 130.661988,42.8940718 C130.203693,42.8940718 129.879574,42.9110025 129.689631,42.9452095 L129.689631,49.3346661 C129.689631,50.0761637 129.827525,50.5675009 130.10061,50.8066045 C130.374709,51.0470902 130.790081,51.167333 131.349432,51.167333 C131.985841,51.167333 132.636444,51.0726591 133.301243,50.8843477 C133.966042,50.6963819 134.524041,50.3332346 134.976253,49.7969791 C135.428465,49.2603781 135.655247,48.4667062 135.655247,47.4163088 M134.951243,37.2931043 C134.951243,36.1387038 134.643684,35.2769633 134.02992,34.7065008 C133.415141,34.1350017 132.293061,33.8499432 130.661988,33.8499432 C130.438924,33.8499432 130.251347,33.8606545 130.10061,33.8838047 C129.949873,33.9069549 129.81333,33.9297596 129.689631,33.9529098 L129.689631,41.1633348 C129.757564,41.1633348 129.879574,41.1695543 130.059039,41.1816477 C130.237152,41.1927045 130.438924,41.1985784 130.661988,41.1985784 C132.113934,41.1985784 133.191739,40.8440693 133.895743,40.1367787 C134.599747,39.4277605 134.951243,38.4799842 134.951243,37.2931043 M141,47.2622045 C141,48.5285552 140.628226,49.5882818 139.886369,50.4389654 C139.14316,51.289649 138.187363,51.9292166 137.020332,52.3576682 C135.853639,52.7861197 134.621378,53 133.325916,53 L122,53 L122,51.7668197 C123.240372,51.7668197 124.035968,51.5494842 124.387125,51.1151587 C124.739972,50.6818698 124.915719,49.9279333 124.915719,48.8540402 L124.915719,36.1449232 C124.915719,35.0599733 124.739972,34.3036181 124.387125,33.8751666 C124.035968,33.446715 123.240372,33.2331803 122,33.2331803 L122,32 L133.460092,32 C135.023569,32 136.285572,32.2622538 137.247114,32.787798 C138.207642,33.3133422 138.907928,33.9529098 139.349663,34.7065008 C139.791398,35.4604373 140.011082,36.1908781 140.011082,36.8985142 C140.011082,37.6071869 139.907661,38.2688682 139.701158,38.8852856 C139.494655,39.5020485 139.045822,40.0566168 138.352634,40.5469174 C137.660459,41.0382546 136.59313,41.4667062 135.152,41.8322721 C137.218724,42.2545042 138.709874,42.9196407 139.626465,43.827336 C140.541704,44.7353769 141,45.8811392 141,47.2622045" id="Fill-7" fill="#FEFEFE"></path>
                <path d="M154,53 L143,53 L143,51.7667994 C143.859732,51.7667994 144.508135,51.6890549 144.944155,51.534948 C145.380175,51.3808411 145.670268,51.1102902 145.816194,50.7219133 C145.960713,50.3335363 146.033501,49.7799954 146.033501,49.060254 L146.033501,36.1446459 C146.033501,35.0596782 145.850654,34.303656 145.483905,33.8751974 C145.118211,33.4467388 144.290829,33.2332006 143,33.2332006 L143,32 L154,32 L154,33.2332006 C152.721478,33.2332006 151.90148,33.4467388 151.542116,33.8751974 C151.181345,34.303656 151.000959,35.0596782 151.000959,36.1446459 L151.000959,49.060254 C151.000959,49.7799954 151.074098,50.3335363 151.219672,50.7219133 C151.364191,51.1102902 151.652175,51.3808411 152.081866,51.534948 C152.511556,51.6890549 153.15152,51.7667994 154,51.7667994 L154,53 Z" id="Fill-9" fill="#FEFEFE"></path>
                <path d="M171,47.5853139 C171,48.8569401 170.67004,49.9745139 170.011507,50.9387292 C169.352627,51.9015566 168.46534,52.6520416 167.348953,53.1922658 C166.23118,53.7307553 164.985859,54 163.611257,54 C162.569042,54 161.781575,53.8990332 161.248163,53.6991815 C160.716138,53.4979419 160.280466,53.2980901 159.943228,53.0971975 C159.604603,52.8959579 159.20671,52.796032 158.748856,52.796032 C158.359282,52.796032 158.043879,52.9056729 157.804034,53.1225259 C157.56315,53.3407668 157.345141,53.6332582 157.150354,54 L156,54 L156,46.0534641 L157.219673,46.0534641 C157.321919,47.0284353 157.628657,48.0172852 158.138847,49.0203605 C158.647997,50.0234359 159.367184,50.8644787 160.295023,51.5407132 C161.222862,52.2172946 162.357272,52.5545445 163.697907,52.5545445 C164.613268,52.5545445 165.426383,52.2974435 166.137599,51.7808128 C166.847428,51.2652231 167.20269,50.5487407 167.20269,49.6310187 C167.20269,48.8059363 166.938583,48.0915356 166.412796,47.4902456 C165.885623,46.8882615 165.203868,46.3435267 164.367531,45.8560411 C163.530847,45.3685555 162.64356,44.8810699 161.703591,44.3935843 C160.765008,43.9071396 159.877374,43.3769773 159.041037,42.8030974 C158.2047,42.2302585 157.522945,41.5526361 156.995772,40.7726592 C156.468598,39.9937231 156.205532,39.0652452 156.205532,37.9865315 C156.205532,36.816566 156.485582,35.7819168 157.048108,34.8825839 C157.609247,33.9818632 158.387356,33.2761367 159.384514,32.7667923 C160.381325,32.2560601 161.520934,32 162.804034,32 C163.719742,32 164.479481,32.118315 165.080826,32.3535572 C165.682171,32.5887993 166.194787,32.8240415 166.618328,33.0578958 C167.042215,33.293138 167.442534,33.411453 167.821364,33.411453 C168.096562,33.411453 168.30452,33.273708 168.448357,32.9982179 C168.591848,32.7227278 168.691668,32.3899885 168.748856,32 L169.934909,32 L169.934909,39.8438343 L168.64557,39.8438343 C168.520103,38.5482675 168.170733,37.4272241 167.597116,36.481398 C167.024886,35.5355718 166.323721,34.8045169 165.493623,34.2889271 C164.662138,33.7722964 163.793914,33.5138076 162.889297,33.5138076 C162.05296,33.5138076 161.326147,33.7698677 160.707819,34.280253 C160.089145,34.7899443 159.779981,35.4637501 159.779981,36.3009762 C159.779981,37.023704 160.048939,37.6537922 160.587204,38.1926286 C161.125468,38.7325059 161.82178,39.2331761 162.675101,39.6977621 C163.528421,40.162001 164.433038,40.6324854 165.38999,41.1088681 C166.345557,41.5842099 167.25156,42.1143722 168.10488,42.699355 C168.9582,43.2843377 169.653473,43.9730629 170.192777,44.7637958 C170.731041,45.5548756 171,46.4958443 171,47.5853139" id="Fill-11" fill="#FEFEFE"></path>
                <path d="M195,53 L184.406366,53 L184.406366,51.7667994 C185.660007,51.7667994 186.460549,51.5494603 186.806637,51.1151277 C187.154081,50.6818316 187.327802,49.9282282 187.327802,48.853972 L187.327802,43.5106786 L179.672198,43.5106786 L179.672198,48.853972 C179.672198,49.9282282 179.845919,50.6818316 180.193363,51.1151277 C180.539451,51.5494603 181.339993,51.7667994 182.593634,51.7667994 L182.593634,53 L172,53 L172,51.7667994 C173.243143,51.7667994 174.036573,51.5494603 174.383678,51.1151277 C174.731121,50.6818316 174.904843,49.9282282 174.904843,48.853972 L174.904843,36.1446459 C174.904843,35.0596782 174.731121,34.303656 174.383678,33.8751974 C174.036573,33.4467388 173.243143,33.2332006 172,33.2332006 L172,32 L182.593634,32 L182.593634,33.2332006 C181.339993,33.2332006 180.539451,33.4467388 180.193363,33.8751974 C179.845919,34.303656 179.672198,35.0596782 179.672198,36.1446459 L179.672198,41.5577366 L187.327802,41.5577366 L187.327802,36.1446459 C187.327802,35.0596782 187.154081,34.303656 186.806637,33.8751974 C186.460549,33.4467388 185.660007,33.2332006 184.406366,33.2332006 L184.406366,32 L195,32 L195,33.2332006 C193.76871,33.2332006 192.979004,33.4467388 192.632916,33.8751974 C192.285472,34.303656 192.111751,35.0596782 192.111751,36.1446459 L192.111751,48.853972 C192.111751,49.9282282 192.285472,50.6818316 192.632916,51.1151277 C192.979004,51.5494603 193.76871,51.7667994 195,51.7667994 L195,53 Z" id="Fill-13" fill="#FEFEFE"></path>
                <path d="M213.495913,43.0867123 C213.495913,42.0337031 213.408725,40.9526552 213.234008,39.8425301 C213.059292,38.7337896 212.766054,37.7039729 212.355997,36.7544646 C211.944238,35.8046102 211.381943,35.0351035 210.66775,34.4466368 C209.952536,33.8567855 209.055112,33.5625521 207.973775,33.5625521 C206.893461,33.5625521 205.998762,33.8543624 205.289337,34.4379828 C204.580934,35.0216033 204.023748,35.7789946 203.618119,36.7118873 C203.21249,37.644434 202.925382,38.6534812 202.756796,39.7404138 C202.587869,40.8276925 202.504428,41.8682401 202.504428,42.863095 C202.504428,43.7786799 202.587869,44.782881 202.756796,45.8746597 C202.925382,46.9678231 203.21249,48.0080245 203.618119,48.997687 C204.023748,49.9876957 204.580934,50.7997797 205.289337,51.4346314 C205.998762,52.0705216 206.893461,52.3876013 207.973775,52.3876013 C209.055112,52.3876013 209.952536,52.0923295 210.66775,51.5038628 C211.381943,50.9140115 211.944238,50.1503894 212.355997,49.2129966 C212.766054,48.2742192 213.059292,47.2658642 213.234008,46.1837778 C213.408725,45.1027299 213.495913,44.0704901 213.495913,43.0867123 M219,42.9832114 C219,44.4595705 218.748994,45.8576981 218.248684,47.179325 C217.747693,48.5006058 217.02158,49.6726929 216.070345,50.6962788 C215.11945,51.7212493 213.968295,52.5274487 212.617902,53.1159153 C211.267168,53.7057667 209.735928,54 208.025203,54 C205.751161,54 203.789089,53.4966879 202.14069,52.4897176 C200.49195,51.4830934 199.222955,50.1420817 198.332683,48.4663362 C197.443774,46.7902447 197,44.9628825 197,42.9832114 C197,41.4514672 197.272803,40.0201086 197.81841,38.6936354 C198.364016,37.3657777 199.129637,36.2023444 200.113908,35.2016049 C201.099882,34.1998269 202.258871,33.4168201 203.592916,32.8501613 C204.926961,32.2835025 206.387361,32 207.973775,32 C210.258716,32 212.223172,32.5012352 213.866803,33.5016285 C215.510434,34.5037527 216.776023,35.8364566 217.666295,37.5007789 C218.555205,39.1654473 219,40.9928094 219,42.9832114" id="Fill-15" fill="#FEFEFE"></path>
                <g id="Group-19" transform="translate(222.000000, 32.000000)">
                    <mask id="mask-2" fill="white">
                        <use xlink:href="#path-1"></use>
                    </mask>
                    <g id="Clip-18"></g>
                    <path d="M12.0109619,5.703243 C12.0109619,4.55022459 11.7486949,3.61454169 11.2254939,2.89481218 C10.7022929,2.17508268 9.67555265,1.81573622 8.14460656,1.81573622 C7.90233451,1.81573622 7.68239014,1.84372378 7.48310721,1.90073548 L7.48310721,9.91727134 C7.58274868,9.92936473 7.69871934,9.94629547 7.83101921,9.96944568 C7.96331908,9.99225036 8.06729278,10.0033072 8.14460656,10.0033072 C9.15835014,10.0033072 9.94481788,9.80912187 10.5066758,9.42075127 C11.0685336,9.03238067 11.459768,8.51305593 11.6797124,7.86243151 C11.8996568,7.21077052 12.0109619,6.4920776 12.0109619,5.703243 M17.0000333,5.703243 C17.0000333,6.77748161 16.7271024,7.77605015 16.1815737,8.70102177 C15.637378,9.62599339 14.7642655,10.3709462 13.563236,10.9365714 C12.3632062,11.5021966 10.7876047,11.7848364 8.83876431,11.7848364 C8.54150617,11.7848364 8.27324069,11.7765438 8.03696712,11.759613 C7.8003603,11.7426823 7.61540708,11.7278247 7.48310721,11.7157313 L7.48310721,17.231354 C7.48310721,18.2364875 7.65406397,18.9099166 7.99597749,19.2523323 C8.33655801,19.5957846 9.09736557,19.7668197 10.2760674,19.7668197 L10.2760674,21 L0,21 L0,19.7668197 C0.814460656,19.7668197 1.42097391,19.6928772 1.81654052,19.5436102 C2.21344013,19.3953798 2.47204139,19.1296708 2.59367729,18.7471741 C2.71431344,18.365023 2.77529801,17.8139099 2.77529801,17.0941804 L2.77529801,3.49429883 C2.77529801,2.84263784 2.71431344,2.35475591 2.59367729,2.02927094 C2.47204139,1.7041315 2.21344013,1.48921467 1.81654052,1.38728466 C1.42097391,1.28431808 0.814460656,1.23318031 0,1.23318031 L0,0 L9.68155114,0 C11.982969,0 13.7785148,0.51967027 15.0671889,1.55866528 C16.3548632,2.59731477 17.0000333,3.97976208 17.0000333,5.703243" id="Fill-17" fill="#FEFEFE" mask="url(#mask-2)"></path>
                </g>
                <path d="M64,74.7210606 L63.0066688,78 L54,78 L54,77.6572462 C54.5418805,77.6572462 54.9587654,77.5697499 55.2520513,77.3929497 C55.544988,77.216511 55.6909326,76.8090389 55.6909326,76.1701717 L55.6909326,67.8312745 C55.6909326,67.1978307 55.544988,66.789997 55.2520513,66.6070503 C54.9587654,66.4241036 54.5418805,66.3326303 54,66.3326303 L54,66 L59.0368353,66 L59.0368353,66.3326303 C58.4823854,66.3326303 58.0567718,66.4241036 57.761391,66.6070503 C57.4646137,66.789997 57.3172724,67.1978307 57.3172724,67.8312745 L57.3172724,75.7294366 C57.3172724,76.3238325 57.4178276,76.7211811 57.6189379,76.9232901 C57.8214448,77.1264839 58.2090011,77.2266345 58.7816068,77.2266345 L59.9442757,77.2266345 C60.6886631,77.2266345 61.2811704,77.1619162 61.7214483,77.0310334 C62.1627736,76.9005122 62.529381,76.6528472 62.8226668,76.2869539 C63.1156035,75.9225068 63.4099368,75.3841519 63.7067142,74.6729738 L64,74.7210606 Z" id="Fill-20" fill="#FEFEFE"></path>
                <path d="M81.4448882,73.4421155 L79.5212034,68.6532237 L77.5608056,73.4421155 L81.4448882,73.4421155 Z M86,78 L81.5366703,78 L81.5366703,77.6646325 C81.7875414,77.6646325 82.0394323,77.6186433 82.2913232,77.5266649 C82.5421943,77.4332714 82.6686496,77.2309189 82.6686496,76.9178385 C82.6686496,76.7650128 82.6268378,76.5524012 82.5445738,76.2814186 C82.4609501,76.0093747 82.3606697,75.7235341 82.2399932,75.4242505 C82.1206765,75.1235518 82.0084983,74.8486778 81.9044786,74.6003361 C81.8007988,74.3516406 81.722954,74.1751128 81.6740036,74.073229 L77.3038158,74.073229 C77.2609841,74.1690988 77.1821195,74.3417352 77.0685816,74.5904307 C76.9553837,74.8401875 76.835727,75.117184 76.7106314,75.4242505 C76.5838362,75.7299018 76.4753973,76.0206951 76.3832753,76.2952154 C76.2914932,76.5697356 76.2449222,76.7773945 76.2449222,76.9178385 C76.2449222,77.1226674 76.3248067,77.2769081 76.4849154,77.3823295 C76.6436645,77.4881047 76.8275686,77.5588573 77.0366279,77.5974175 C77.2453472,77.6359777 77.4197332,77.6582648 77.5608056,77.6646325 L77.5608056,78 L74,78 L74,77.6646325 C74.3559106,77.6458831 74.6424747,77.5439993 74.8596924,77.3589812 C75.0782697,77.1736093 75.2621739,76.9326966 75.4127645,76.6355355 C75.5630152,76.3387282 75.7112263,76.0143274 75.8590975,75.6637481 L79.8438005,66 L80.1290048,66 L84.0491204,75.7398072 C84.1959718,76.0914478 84.3404436,76.4080658 84.4811762,76.6928451 C84.6222487,76.9772707 84.8085323,77.2036791 85.0376477,77.3724242 C85.2681227,77.541523 85.5883403,77.6395153 86,77.6646325 L86,78 Z" id="Fill-22" fill="#FEFEFE"></path>
                <path d="M112,66 L112,66.3063349 C111.562511,66.3063349 111.228774,66.4464443 110.997752,66.7263102 C110.767076,67.006529 110.573751,67.3823893 110.417085,67.8545968 L107.019194,78 L106.663324,78 L104.05153,70.5000882 L101.458067,78 L101.130209,78 L97.7506485,68.2548085 C97.6385959,67.911417 97.5268892,67.5916711 97.4189867,67.2955708 C97.3097008,66.9991177 97.150268,66.7598377 96.9413799,66.5787895 C96.7314543,66.3966825 96.4177762,66.3063349 96,66.3063349 L96,66 L100.231022,66 L100.231022,66.3063349 C100.000346,66.3063349 99.7596403,66.3433916 99.5106346,66.4164461 C99.2605914,66.4895006 99.1364344,66.6853714 99.1364344,67.0040586 C99.1364344,67.1826363 99.1827771,67.4155638 99.2761542,67.7056644 C99.3698772,67.995765 99.4452706,68.2241045 99.5009511,68.3889183 L101.748228,74.9814717 L103.657963,69.3830951 C103.526889,68.8921828 103.372644,68.4111523 103.195227,67.9400035 C103.016773,67.4688548 102.790593,67.0785248 102.515995,66.7697194 C102.241743,66.461267 101.889331,66.3063349 101.458067,66.3063349 L101.458067,66 L105.942936,66 L105.942936,66.3063349 C105.754799,66.3063349 105.567698,66.3172755 105.380598,66.3395094 C105.193498,66.3620963 105.03787,66.4252691 104.913021,66.5304394 C104.787826,66.6359626 104.725921,66.8155991 104.725921,67.0711135 C104.725921,67.3065114 104.767076,67.5694371 104.852153,67.858126 C104.935846,68.1482266 105.016082,68.3949179 105.090437,68.5996118 L107.300017,74.9814717 L109.491613,68.5039704 C109.553519,68.3257455 109.625108,68.0914064 109.706381,67.8013058 C109.786616,67.5112052 109.828117,67.2779248 109.828117,67.0997 C109.828117,66.7612493 109.689435,66.545615 109.411378,66.4499735 C109.132976,66.354685 108.859761,66.3063349 108.592426,66.3063349 L108.592426,66 L112,66 Z" id="Fill-24" fill="#FEFEFE"></path>
                <path d="M148,71.4720719 L148,71.7705862 C147.57731,71.7705862 147.273157,71.8362317 147.087543,71.9671772 C146.901573,72.0981228 146.785875,72.2888403 146.740802,72.5376022 C146.696084,72.7877462 146.67479,73.0897155 146.67479,73.4452378 L146.67479,76.9527813 C146.046611,77.3141771 145.378327,77.5788322 144.671359,77.7474375 C143.963327,77.9163883 143.244292,78 142.513545,78 C141.309358,78 140.214835,77.7695497 139.228913,77.3083036 C138.241571,76.8470575 137.457234,76.1809283 136.875192,75.3106069 C136.291731,74.4416676 136,73.3896119 136,72.1540942 C136,71.301048 136.158287,70.5012093 136.476281,69.7559599 C136.792855,69.0110561 137.235419,68.356674 137.801491,67.7959231 C138.368627,67.2355177 139.031941,66.7950017 139.79108,66.4767937 C140.548799,66.1589312 141.370401,66 142.254466,66 C142.850349,66 143.383769,66.0594265 143.855081,66.1782794 C144.324973,66.2960958 144.708979,66.4149488 145.006743,66.5338017 C145.304862,66.6516181 145.492961,66.7110446 145.569265,66.7110446 C145.730037,66.7110446 145.842186,66.6177588 145.905714,66.4308419 C145.969242,66.2439249 146.005442,66.1005413 146.011475,66 L146.318467,66 L146.626168,69.6008292 L146.318467,69.6008292 C146.011475,68.684556 145.545487,67.9503628 144.920857,67.399286 C144.296226,66.8471726 143.462203,66.570425 142.417722,66.570425 C141.64971,66.570425 140.987815,66.7158816 140.434165,67.0061039 C139.879451,67.2959807 139.42198,67.6867442 139.060334,68.1794311 C138.699042,68.6721179 138.43109,69.2304503 138.257542,69.8544282 C138.085768,70.4770241 137.998462,71.1224231 137.998462,71.7899344 C137.998462,72.4574456 138.089317,73.1215018 138.272448,73.781412 C138.454513,74.4430496 138.732758,75.0459519 139.103987,75.5921916 C139.474506,76.1370494 139.945463,76.5741103 140.515438,76.9016469 C141.086123,77.228147 141.76186,77.3919152 142.543712,77.3919152 C142.966048,77.3919152 143.384834,77.3421628 143.801491,77.2426581 C144.217792,77.1431533 144.605347,76.9866406 144.96451,76.7755384 L144.96451,73.4452378 C144.96451,73.021997 144.932213,72.6906599 144.868331,72.4539906 C144.803738,72.2173212 144.662842,72.0473339 144.445996,71.9440286 C144.22773,71.8410688 143.891281,71.7840608 143.436295,71.7705862 L143.436295,71.4720719 L148,71.4720719 Z" id="Fill-26" fill="#FEFEFE"></path>
                <path d="M165.41028,69.2106056 C165.41028,68.4408557 165.169213,67.8251281 164.687078,67.3616149 C164.205307,66.8981018 163.577588,66.6656222 162.80501,66.6656222 C162.57556,66.6656222 162.344659,66.6818921 162.112668,66.7151552 C161.879224,66.7480566 161.641787,66.783489 161.399631,66.8228985 L161.399631,71.7949985 C161.510725,71.8141609 161.68136,71.8242844 161.911173,71.8242844 C162.487339,71.8242844 163.042084,71.7443808 163.576498,71.5842121 C164.110913,71.4240434 164.549481,71.1550467 164.893656,70.7764989 C165.238193,70.3979512 165.41028,69.8762278 165.41028,69.2106056 L165.41028,69.2106056 Z M170,78 L166.765921,78 L162.687744,72.4020488 C162.464466,72.4212112 162.228482,72.4313347 161.97979,72.4313347 C161.875231,72.4313347 161.774665,72.4298885 161.680271,72.426273 C161.584425,72.4222959 161.491483,72.4186803 161.399631,72.4110877 L161.399631,75.8856282 C161.399631,76.3758964 161.440293,76.7479361 161.523432,77.0021091 C161.605119,77.2559205 161.773213,77.4287436 162.028439,77.5202169 C162.284755,77.6116903 162.664509,77.6572462 163.168426,77.6572462 L163.168426,78 L158,78 L158,77.6572462 C158.516262,77.6572462 158.896379,77.6116903 159.139987,77.5202169 C159.382144,77.4287436 159.537894,77.2559205 159.606511,77.0021091 C159.675491,76.7479361 159.709981,76.3758964 159.709981,75.8856282 L159.709981,68.1147334 C159.709981,67.6128955 159.675491,67.2318168 159.606511,66.9740283 C159.537894,66.7162398 159.382144,66.542332 159.139987,66.4508587 C158.896379,66.3593854 158.516262,66.3138295 158,66.3138295 L158,66 L162.539618,66 C163.063867,66 163.609536,66.033263 164.175899,66.0979813 C164.743352,66.1637843 165.270142,66.3011751 165.758449,66.5094306 C166.246755,66.7187707 166.641031,67.0260922 166.943091,67.4339259 C167.244063,67.8428442 167.39473,68.3887918 167.39473,69.0735764 C167.39473,69.9879482 167.112637,70.6839409 166.550268,71.163724 C165.986809,71.642784 165.28539,71.9714372 164.446374,72.1467912 L166.903519,75.6126544 C167.34245,76.2182585 167.774483,76.6933414 168.200708,77.0360952 C168.626569,77.3792106 169.22597,77.5860199 170,77.6572462 L170,78 Z" id="Fill-28" fill="#FEFEFE"></path>
                <path d="M189.114382,72.0424968 C189.114382,71.4126454 189.064352,70.7765749 188.963614,70.1346309 C188.862538,69.4926869 188.681008,68.9042958 188.419699,68.3711851 C188.157376,67.8384199 187.785526,67.410342 187.307191,67.0848785 C186.828519,66.760797 186.207529,66.5994472 185.445237,66.5994472 C184.743454,66.5994472 184.16303,66.762179 183.702274,67.0897155 C183.241518,67.4175976 182.879133,67.846021 182.61681,68.3763676 C182.354487,68.9067143 182.170252,69.4792123 182.06343,70.0969711 C181.956607,70.7147299 181.903196,71.3155591 181.903196,71.9018772 C181.903196,72.4757572 181.957959,73.0800415 182.068162,73.7161119 C182.177689,74.3532189 182.365304,74.9478291 182.631008,75.5023609 C182.896036,76.0582748 183.259435,76.5084648 183.719852,76.854313 C184.180608,77.2001612 184.761371,77.3739491 185.463153,77.3739491 C186.201782,77.3739491 186.808574,77.2150179 187.284542,76.8968099 C187.760848,76.5789474 188.131346,76.1577796 188.396036,75.633652 C188.662077,75.1105609 188.847326,74.5352989 188.954149,73.9078659 C189.060971,73.2814695 189.114382,72.6602557 189.114382,72.0424968 M191,71.9295174 C191,72.7476679 190.870529,73.5205574 190.610572,74.2499136 C190.351629,74.9792698 189.980117,75.6263964 189.494345,76.1906023 C189.009926,76.7548082 188.42815,77.1977427 187.751383,77.5183692 C187.074278,77.8400322 186.320436,78 185.490535,78 C184.374309,78 183.40547,77.7246343 182.584696,77.172521 C181.764259,76.6200622 181.129072,75.8858689 180.677781,74.9695958 C180.225476,74.0533226 180,73.0461822 180,71.9492111 C180,70.8446389 180.239674,69.8433721 180.718347,68.94161 C181.198033,68.04123 181.858236,67.3253484 182.699969,66.7950017 C183.542041,66.2656916 184.514259,66 185.618654,66 C186.429625,66 187.165888,66.1578947 187.824739,66.4733387 C188.482575,66.7877462 189.04914,67.2210066 189.521727,67.7731199 C189.994315,68.3238512 190.358728,68.9564667 190.615304,69.6661292 C190.871881,70.3775193 191,71.1324427 191,71.9295174" id="Fill-30" fill="#FEFEFE"></path>
                <path d="M213,66 L213,66.3063349 C212.313109,66.3063349 211.864675,66.4400918 211.657441,66.7079584 C211.450207,66.975472 211.34659,67.4490912 211.34659,68.1309335 L211.34659,72.8985354 C211.34659,73.9622375 211.21381,74.8759485 210.947563,75.640727 C210.681315,76.4044468 210.228077,76.9895888 209.586819,77.3936827 C208.945904,77.7977766 208.064818,78 206.943903,78 C205.706333,78 204.766233,77.7903653 204.124975,77.3700371 C203.48406,76.9486501 203.049006,76.3423328 202.819814,75.5489677 C202.590965,74.7570143 202.476369,73.7963649 202.476369,72.66949 L202.476369,68.0638786 C202.476369,67.6315511 202.447548,67.2867478 202.388535,67.0326451 C202.329521,66.7771308 202.194339,66.5925534 201.984703,66.4785601 C201.773695,66.3631551 201.446033,66.3063349 201,66.3063349 L201,66 L205.578699,66 L205.578699,66.3063349 C204.923031,66.3063349 204.510965,66.4386801 204.343188,66.7030175 C204.177127,66.9670019 204.092723,67.4205047 204.092723,68.0638786 L204.092723,73.1851068 C204.092723,73.911417 204.163746,74.580907 204.30579,75.1956944 C204.449207,75.8104817 204.732609,76.3063349 205.156683,76.6821952 C205.579728,77.0577025 206.213781,77.2447503 207.056097,77.2447503 C207.569378,77.2447503 208.062416,77.1593436 208.532466,76.9871184 C209.002516,76.815952 209.42659,76.5480854 209.805032,76.1849303 C210.052066,75.9495324 210.230479,75.6259044 210.338899,75.2154579 C210.44732,74.8039527 210.514911,74.3786836 210.543731,73.9400035 C210.571523,73.4999118 210.584904,73.121934 210.584904,72.8032469 L210.584904,68.0638786 C210.584904,67.574378 210.549907,67.2023999 210.478885,66.9507676 C210.40649,66.6991353 210.255868,66.5293806 210.023245,66.4400918 C209.790622,66.3508029 209.433796,66.3063349 208.950708,66.3063349 L208.950708,66 L213,66 Z" id="Fill-32" fill="#FEFEFE"></path>
                <path d="M229.235089,69.4846641 C229.235089,68.7149141 229.0405,68.0557999 228.652587,67.5073215 C228.26499,66.9599277 227.713495,66.6855077 227,66.6855077 C226.83452,66.6855077 226.662079,66.707201 226.485524,66.7491413 C226.308654,66.7910817 226.134314,66.8290449 225.963139,66.8623079 L225.963139,71.940705 C226.174181,71.9739681 226.38554,72.0018078 226.596583,72.0245857 C226.808891,72.0473637 227.025629,72.0589334 227.248062,72.0589334 C227.659073,72.0589334 228.013764,71.9370895 228.310552,71.6919554 C228.607024,71.4468213 228.834836,71.1293763 228.994938,70.7381741 C229.155039,70.3458873 229.235089,69.9290148 229.235089,69.4846641 M231,69.3183489 C231,70.1792106 230.831039,70.8513408 230.494384,71.3351009 C230.157412,71.8177764 229.709698,72.1554685 229.14966,72.3470925 C228.590571,72.5401627 227.975795,72.6366978 227.307863,72.6366978 C227.091125,72.6366978 226.871223,72.6265743 226.64879,72.6074119 C226.425407,72.5871648 226.197595,72.5643869 225.963139,72.539078 L225.963139,75.8852666 C225.963139,76.3755348 225.998576,76.7475746 226.071033,77.0017475 C226.142224,77.2555589 226.287771,77.428382 226.507673,77.5198554 C226.726626,77.6113287 227.053473,77.6568846 227.487897,77.6568846 L227.487897,78 L223,78 L223,77.6568846 C223.444866,77.6568846 223.771397,77.6113287 223.980541,77.5198554 C224.189369,77.428382 224.322576,77.2555589 224.382693,77.0017475 C224.44281,76.7475746 224.472868,76.3755348 224.472868,75.8852666 L224.472868,68.1143718 C224.472868,67.6125339 224.443759,67.2318168 224.387122,66.9740283 C224.330486,66.7162398 224.197279,66.5419705 223.9894,66.4504971 C223.780256,66.3593854 223.450245,66.3134679 223,66.3134679 L223,66 L226.828825,66 C227.302484,66 227.784686,66.0480868 228.276064,66.142091 C228.767125,66.2371799 229.21832,66.4049412 229.629647,66.6460982 C230.040975,66.8876168 230.371935,67.2242242 230.623161,67.6544742 C230.874387,68.0850859 231,68.6400723 231,69.3183489" id="Fill-34" fill="#FEFEFE"></path>
                <mask id="mask-4" fill="white">
                    <use xlink:href="#path-3"></use>
                </mask>
                <g id="Clip-37"></g>
                <polygon id="Fill-36" fill="#FEFEFE" mask="url(#mask-4)" points="49 61 238 61 238 60 49 60"></polygon>
                <polygon id="Fill-38" fill="#FEFEFE" mask="url(#mask-4)" points="122 69 125 71.9998252 122 75 119 71.9998252"></polygon>
                <path d="M28,3 C28,3 35.2298153,10.061256 35.8701519,14.9213884 C36.5108287,19.7818619 34.6806637,22.4412118 32.5759229,24 C32.5759229,24 38.7989603,16.755658 28,3" id="Fill-39" fill="#FEFEFE" mask="url(#mask-4)"></path>
                <path d="M31.2951727,24 C31.2951727,24 34.9505882,24.7500697 33.7624677,25.7998885 C32.574687,26.8499861 30.1984461,27 27,27 C27,27 34.5850127,25.9499024 31.2951727,24" id="Fill-40" fill="#FEFEFE" mask="url(#mask-4)"></path>
                <path d="M17.4611262,28 C17.4611262,28 13.7097468,28.1115948 14.0180082,30.1028869 C14.2352789,31.5049299 15.3517321,32.397333 29,31.8237215 C29,31.8237215 11.5986228,30.9633042 17.4611262,28" id="Fill-41" fill="#FEFEFE" mask="url(#mask-4)"></path>
                <path d="M19.9253381,33 C19.9253381,33 21.1402027,55.9642243 13,72.5875139 C13,72.5875139 14.3364866,74.8898627 26,73.6156804 C26,73.6156804 24.299325,46.3671991 24.6635134,41.7401049 C25.0280405,37.1130108 23.8131759,33.342837 19.9253381,33" id="Fill-42" fill="#FEFEFE" mask="url(#mask-4)"></path>
                <path d="M10.5327092,73 C10.5327092,73 6.81649509,73.0918221 7.00708834,75.019744 C7.19768159,76.9480073 9.9928131,77.0702091 24,76.9783871 C24,76.9783871 4.52973034,75.8461425 10.5327092,73" id="Fill-43" fill="#FEFEFE" mask="url(#mask-4)"></path>
                <path d="M8.45559807,78 C8.45559807,78 1.66474295,78.1448733 2.01294724,81.1882367 C2.36115154,84.2312584 9.29038214,86.1634713 29,84.215541 C29,84.215541 -5.92325254,83.548919 8.45559807,78" id="Fill-44" fill="#FEFEFE" mask="url(#mask-4)"></path>
                <path d="M33.167535,28 C33.167535,28 41.5575104,29.0933409 33.510022,33.2838036 C30.7373418,34.7277045 31.7406121,46.7669865 34.1377025,71 C34.1377025,71 29.600387,56.1504797 30.0284957,40.389842 C30.1841426,34.6521732 31.1129316,32.1908014 31.1129316,32.1908014 C31.1129316,32.1908014 37.7048505,29.2755644 33.167535,28" id="Fill-45" fill="#FEFEFE" mask="url(#mask-4)"></path>
                <path d="M38.2951727,74 C38.2951727,74 41.9505882,74.7500697 40.7624677,75.7998885 C39.574687,76.8499861 37.1984461,77 34,77 C34,77 41.5850127,75.9499024 38.2951727,74" id="Fill-46" fill="#FEFEFE" mask="url(#mask-4)"></path>
                <path d="M41.3630395,79 C41.3630395,79 47.6293832,80.7501914 45.5929072,83.2 C43.5564311,85.6501914 39.4831364,86 34,86 C34,86 47.0027488,83.5501914 41.3630395,79" id="Fill-47" fill="#FEFEFE" mask="url(#mask-4)"></path>
                <path d="M0.252313971,83 C0.252313971,83 -1.57001027,92.0012715 25.1908179,91.1730485 C49.7625389,90.4130197 48.47914,83.1900955 48.47914,83.1900955 C48.47914,83.1900955 55.3321154,94.7551836 19.3229747,93.960881 C-3.65958147,93.4541951 0.252313971,83 0.252313971,83" id="Fill-48" fill="#FEFEFE" mask="url(#mask-4)"></path>
                <path d="M23.5,0 C24.8808545,0 26,0.671716055 26,1.5 C26,2.32861566 24.8808545,3 23.5,3 C22.1191455,3 21,2.32861566 21,1.5 C21,0.671716055 22.1191455,0 23.5,0" id="Fill-49" fill="#FEFEFE" mask="url(#mask-4)"></path>
                <path d="M29,26.4285419 C29,26.4285419 20.4398301,27.8655881 17.5475583,26.1819998 C14.6549503,24.4987464 18.3923141,24.2605786 18.3923141,24.2605786 C18.3923141,24.2605786 16.2234464,22.5773253 15.3810437,19.9340313 C14.5383048,17.2907373 14.7823528,12.0051542 19.3661532,7.08201501 L23.467236,3 C23.467236,3 27.6795858,15.9762923 26.2284076,24.2645983 C26.2284076,24.2645983 23.5754777,25.4644816 19.9594656,24.6216825 C19.9594656,24.6216825 17.9092603,25.9421571 29,26.4285419" id="Fill-50" fill="#FEFEFE" mask="url(#mask-4)"></path>
                <path d="M27,2 C27,2 31.4639909,0.888833808 27.0536891,0 C27.0536891,0 28.6673604,0.977816334 27,2" id="Fill-51" fill="#FEFEFE" mask="url(#mask-4)"></path>
            </g>
        </g>
    </g>
</svg>