<?xml version="1.0" encoding="UTF-8"?>
<svg width="206px" height="106px" viewBox="0 0 206 106" version="1.1" xmlns="http://www.w3.org/2000/svg" xmlns:xlink="http://www.w3.org/1999/xlink">
    <title>71595083-E557-476C-AD0C-C915B558CEBA</title>
    <defs>
        <polygon id="path-1" points="0 0 16 0 16 18 0 18"></polygon>
        <polygon id="path-3" points="0 0 18 0 18 18 0 18"></polygon>
        <polygon id="path-5" points="0 0 16 0 16 18 0 18"></polygon>
    </defs>
    <g id="home" stroke="none" stroke-width="1" fill="none" fill-rule="evenodd">
        <g id="home:-Desktops---12-col" transform="translate(-63.000000, -71.000000)">
            <g id="Group-32" transform="translate(63.003344, 71.080268)">
                <g id="Group-3" transform="translate(-0.003344, 86.919732)">
                    <mask id="mask-2" fill="white">
                        <use xlink:href="#path-1"></use>
                    </mask>
                    <g id="Clip-2"></g>
                    <path d="M0,9.00009029 C0,3.77321201 3.81535076,0 8.70822558,0 C11.9487208,0 14.0738377,1.24870835 15.6276204,3.53213816 L13.7718845,4.84946679 C12.6582669,3.22154115 11.1053645,2.14709217 8.70822558,2.14709217 C5.029326,2.14709217 2.43059147,5.12304497 2.43059147,9.00009029 C2.43059147,12.8753298 5.029326,15.8557971 8.67565337,15.8557971 C11.240055,15.8557971 13.0288858,14.6811264 14.1099312,12.9845805 L16,14.1926584 C14.5474553,16.5799215 12.0842916,18.0001806 8.67565337,18.0001806 C3.74756534,18.0001806 0,14.2260657 0,9.00009029" id="Fill-1" fill="#FEFEFE" mask="url(#mask-2)"></path>
                </g>
                <g id="Group-6" transform="translate(18.996656, 86.919732)">
                    <mask id="mask-4" fill="white">
                        <use xlink:href="#path-3"></use>
                    </mask>
                    <g id="Clip-5"></g>
                    <path d="M15.5541119,9.00009029 C15.5541119,5.09054064 12.8389192,2.14709217 8.99867119,2.14709217 C5.19562971,2.14709217 2.44411634,5.09054064 2.44411634,9.00009029 C2.44411634,12.9493675 5.19562971,15.8557971 8.99867119,15.8557971 C12.8389192,15.8557971 15.5541119,12.9493675 15.5541119,9.00009029 M0,9.00009029 C0,3.70549464 4.10955264,0 8.99867119,0 C13.9249963,0 18,3.70549464 18,9.00009029 C18,14.2666961 13.9249963,18.0001806 8.99867119,18.0001806 C4.10955264,18.0001806 0,14.2666961 0,9.00009029" id="Fill-4" fill="#FEFEFE" mask="url(#mask-4)"></path>
                </g>
                <path d="M46.592229,98.778058 C50.1227454,98.778058 51.5285133,96.9932603 51.5285133,94.3956716 C51.5285133,91.7312299 50.0887637,90.0088869 46.592229,90.0088869 L44.430816,90.0088869 L44.430816,98.778058 L46.592229,98.778058 Z M41.9966555,87.9197324 L46.694174,87.9197324 C51.4256741,87.9197324 53.9966555,90.5516273 53.9966555,94.3956716 C53.9966555,98.209808 51.4256741,100.833786 46.694174,100.833786 L44.430816,100.833786 L44.430816,104.919732 L41.9966555,104.919732 L41.9966555,87.9197324 Z" id="Fill-7" fill="#FEFEFE"></path>
                <polygon id="Fill-9" fill="#FEFEFE" points="57.9966555 87.9197324 60.3176579 87.9197324 60.3176579 102.82442 67.9966555 102.82442 67.9966555 104.919732 57.9966555 104.919732"></polygon>
                <path d="M81.7307463,100.620612 L79.2909394,94.5514191 C78.8520744,93.5194563 78.4458814,91.9510815 78.4458814,91.9510815 C78.4458814,91.9510815 78.0405715,93.5194563 77.6343785,94.5514191 L75.1292275,100.620612 L81.7307463,100.620612 Z M78.3116611,87.9197324 L78.6498609,87.9197324 L85.9966555,104.919732 L83.4915045,104.919732 L82.473373,102.416766 L74.3486306,102.416766 L73.3331481,104.919732 L70.9966555,104.919732 L78.3116611,87.9197324 Z" id="Fill-11" fill="#FEFEFE"></path>
                <path d="M93.9412409,94.2652439 C93.0343141,93.2924427 92.0563628,91.827337 92.0563628,91.827337 C92.0563628,91.827337 92.2994848,93.4277811 92.2994848,94.7875227 L92.2994848,104.680847 L89.9966555,104.680847 L89.9966555,86.9197324 L90.3454035,86.9197324 L99.9455336,97.4724902 C100.922574,98.5170479 101.865924,99.9440045 101.865924,99.9440045 C101.865924,99.9440045 101.692005,98.3390189 101.692005,97.0147014 L101.692005,87.1268274 L103.996656,87.1268274 L103.996656,104.919732 L103.646997,104.919732 L93.9412409,94.2652439 Z" id="Fill-13" fill="#FEFEFE"></path>
                <polygon id="Fill-15" fill="#C2B500" points="111.894976 97.5098018 107.996656 97.5098018 107.996656 95.3287436 111.894976 95.3287436 111.894976 90.9197324 114.064737 90.9197324 114.064737 95.3287436 117.996656 95.3287436 117.996656 97.5098018 114.064737 97.5098018 114.064737 101.919732 111.894976 101.919732"></polygon>
                <g id="Group-19" transform="translate(120.996656, 86.919732)">
                    <mask id="mask-6" fill="white">
                        <use xlink:href="#path-5"></use>
                    </mask>
                    <g id="Clip-18"></g>
                    <path d="M0,9.00009029 C0,3.77321201 3.81266854,0 8.70838149,0 C11.94959,0 14.0751747,1.24870835 15.6292994,3.53213816 L13.773155,4.84946679 C12.6575312,3.22154115 11.1060481,2.14709217 8.70838149,2.14709217 C5.02867206,2.14709217 2.430246,5.12304497 2.430246,9.00009029 C2.430246,12.8753298 5.02867206,15.8557971 8.6758021,15.8557971 C11.2390072,15.8557971 13.0299928,14.6811264 14.1112762,12.9845805 L16,14.1926584 C14.5488966,16.5799215 12.0843102,18.0001806 8.6758021,18.0001806 C3.74662924,18.0001806 0,14.2260657 0,9.00009029" id="Fill-17" fill="#FEFEFE" mask="url(#mask-6)"></path>
                </g>
                <path d="M145.547864,98.4728215 C149.053798,98.4728215 150.368963,96.7214503 150.368963,94.2276596 C150.368963,91.7646564 149.053798,90.0088869 145.547864,90.0088869 L143.390502,90.0088869 L143.390502,98.4728215 L145.547864,98.4728215 Z M152.996656,104.919732 L150.300392,104.919732 L147.200612,100.397483 C146.726765,100.496003 146.188743,100.529429 145.648963,100.529429 L143.390502,100.529429 L143.390502,104.919732 L140.996656,104.919732 L140.996656,87.9197324 L145.648963,87.9197324 C150.200172,87.9197324 152.794458,90.4495886 152.794458,94.2276596 C152.794458,96.7883033 151.580392,98.7112051 149.389623,99.6893692 L152.996656,104.919732 Z" id="Fill-20" fill="#FEFEFE"></path>
                <path d="M166.729612,100.620612 L164.292311,94.5514191 C163.851654,93.5194563 163.444554,91.9510815 163.444554,91.9510815 C163.444554,91.9510815 163.03922,93.5194563 162.633003,94.5514191 L160.127705,100.620612 L166.729612,100.620612 Z M163.310326,87.9197324 L163.648545,87.9197324 L170.996656,104.919732 L168.491357,104.919732 L167.475815,102.416766 L159.347062,102.416766 L158.332403,104.919732 L155.996656,104.919732 L163.310326,87.9197324 Z" id="Fill-22" fill="#FEFEFE"></path>
                <path d="M178.940587,94.2652439 C178.033601,93.2924427 177.056497,91.827337 177.056497,91.827337 C177.056497,91.827337 177.299635,93.4277811 177.299635,94.7875227 L177.299635,104.680847 L174.996656,104.680847 L174.996656,86.9197324 L175.345426,86.9197324 L184.946181,97.4724902 C185.923285,98.5170479 186.866696,99.9440045 186.866696,99.9440045 C186.866696,99.9440045 186.692766,98.3390189 186.692766,97.0147014 L186.692766,87.1268274 L188.996656,87.1268274 L188.996656,104.919732 L188.646974,104.919732 L178.940587,94.2652439 Z" id="Fill-24" fill="#FEFEFE"></path>
                <polygon id="Fill-26" fill="#FEFEFE" points="193.996656 87.9197324 204.662662 87.9197324 204.662662 90.0088869 196.371239 90.0088869 196.371239 96.9598339 203.659808 96.9598339 203.659808 98.9504682 196.371239 98.9504682 196.371239 102.856967 204.996656 102.856967 204.996656 104.919732 193.996656 104.919732"></polygon>
                <path d="M63.9966555,34.9143795 C63.9966555,14.7624589 79.4145072,-0.0802675585 98.9685933,-0.0802675585 C111.66781,-0.0802675585 120.434332,4.83459569 126.38538,13.1592624 L118.119188,18.9734145 C113.581256,12.8550387 107.733321,9.64596935 98.6610432,9.64596935 C85.0597991,9.64596935 75.1823316,20.4775821 75.1823316,34.9143795 C75.1823316,49.657185 85.2606481,60.1899269 99.0690178,60.1899269 C107.940447,60.1899269 114.492249,56.8800444 119.628246,50.2656324 L127.996656,55.9807556 C120.940937,65.3046321 111.969084,69.9197324 98.6610432,69.9197324 C79.1114404,69.9197324 63.9966555,55.0743296 63.9966555,34.9143795" id="Fill-28" fill="#C2B500"></path>
                <path d="M82.9966555,34.9143795 C82.9966555,14.7624589 98.4145072,-0.0802675585 117.968593,-0.0802675585 C130.674983,-0.0802675585 139.434332,4.83459569 145.387173,13.1592624 L137.117395,18.9734145 C132.585739,12.8550387 126.735115,9.64596935 117.665526,9.64596935 C104.062489,9.64596935 94.1823316,20.4775821 94.1823316,34.9143795 C94.1823316,49.657185 104.260648,60.1899269 118.069018,60.1899269 C126.94224,60.1899269 133.489559,56.8800444 138.630039,50.2656324 L146.996656,55.9807556 C139.942731,65.3046321 130.971774,69.9197324 117.665526,69.9197324 C98.1114404,69.9197324 82.9966555,55.0743296 82.9966555,34.9143795" id="Fill-30" fill="#FEFEFE"></path>
            </g>
        </g>
    </g>
</svg>