<svg xmlns="http://www.w3.org/2000/svg" viewBox="0 0 1449.33 306.48"><defs><style>.cls-1{fill:#fff;}.cls-2{fill:#a09046;}.cls-3{fill:#231f20;}.cls-4,.cls-5{fill:none;stroke:#fff;stroke-miterlimit:10;}.cls-4{stroke-width:0.5px;}.cls-5{stroke-width:1.31px;}</style></defs><g id="Layer_2" data-name="Layer 2"><g id="Layer_1-2" data-name="Layer 1"><path class="cls-1" d="M373.44,99.31H374c3.9-4.24,20.63-21.32,24-25.22s5.73-6.65,5.73-8.59c0-1.26-.46-2.07-1.61-2.3s-1.49-.45-1.49-1.14.58-1,1.84-1c2.4,0,8.71.34,11.8.34,3.55,0,9.86-.34,13.41-.34,1.15,0,2,.23,2,1s-.57,1-1.72,1a22.45,22.45,0,0,0-6.65,1.26c-3.55,1.38-7.45,3.78-12.38,8.6C405.3,76.38,388,93.58,384.1,97.7c4.13,5.39,26.59,29.57,31.06,33.81,5,4.81,10.2,10,16.39,12.38a20,20,0,0,0,7.1,1.72c.81,0,1.49.23,1.49.91s-.57,1.15-2.75,1.15h-10c-3.44,0-5.5,0-7.91-.23-6.19-.57-9.28-3.09-14.21-7.45s-27.62-30.94-30-34.27L374,104h-.57v10.43c0,10.55,0,19.6.34,24.53.23,3.21,1.27,5.73,4.13,6.19a48.15,48.15,0,0,0,5.62.46c.91,0,1.49.34,1.49.91,0,.81-.92,1.15-2.18,1.15-6.42,0-13.64-.34-16.5-.34-2.64,0-9.86.34-14.44.34-1.49,0-2.3-.34-2.3-1.15,0-.57.46-.91,1.84-.91a18.56,18.56,0,0,0,4.12-.46c2.29-.46,2.87-3,3.33-6.31.57-4.81.57-13.86.57-24.41V94.26c0-17.42,0-20.63-.23-24.29-.23-3.9-1.15-5.73-4.93-6.54a23.47,23.47,0,0,0-4.47-.34c-1.26,0-1.95-.23-1.95-1s.81-1,2.53-1c6.07,0,13.29.34,16,.34s10-.34,13.87-.34c1.6,0,2.4.23,2.4,1s-.68,1-1.6,1a17,17,0,0,0-3.21.34c-3.09.58-4,2.53-4.24,6.54-.23,3.66-.23,6.87-.23,24.29Z"/><path class="cls-1" d="M435.09,110.77c0-16.62,11.69-38.17,42.29-38.17,25.44,0,41.26,14.1,41.26,36.45s-16.28,39.88-42.29,39.88C447,148.93,435.09,128.07,435.09,110.77Zm68.53,1.83c0-21.55-12.95-34.84-29.22-34.84-11.23,0-24.41,6-24.41,30,0,20,11.46,35.87,30.48,35.87C487.58,143.66,503.62,140.33,503.62,112.6Z"/><path class="cls-1" d="M602.4,141.14c0,2.63,0,2.75-1.25,3.43-6.77,3.33-16.74,4.36-24.65,4.36-24.75,0-46.64-11.23-46.64-38.16,0-15.59,8.36-26.48,17.65-31.86,9.63-5.62,18.68-6.31,27.16-6.31a114.57,114.57,0,0,1,17.88,1.61c2.06.34,5.61.91,8,1,1.15.11,1.38.46,1.38,1.14a132,132,0,0,0-.69,16.05c0,1.49-.57,2.18-1.38,2.18s-.91-.46-1-1.26a13,13,0,0,0-3.44-8c-3-3.09-10.54-7.45-21.89-7.45C568,77.87,561,78,554,83.6c-5.62,4.59-9.28,11.81-9.28,23.73,0,21,13.52,36.21,35.07,36.21,2.63,0,4.7,0,7.1-1,1.49-.68,2-1.72,2-3.44v-8.94c0-4.81,0-8.48-.11-11.46-.12-3.32-1.15-4.35-4.36-5.27a18.08,18.08,0,0,0-3.89-.34c-.92,0-1.61-.46-1.61-1,0-.8.8-.92,2.18-.92,5.27,0,12.49.23,15.47.23,3.21,0,8.48-.23,11.81-.23,1.37,0,2.06.12,2.06.92a1.17,1.17,0,0,1-1.26,1,13.62,13.62,0,0,0-2.75.34c-2.75.46-3.79,1.84-3.9,5.27-.12,3-.12,6.88-.12,11.69Z"/><path class="cls-1" d="M634.94,123.14c-.57,0-.68.12-.91.69l-5.39,13.07a17.64,17.64,0,0,0-1.49,6c0,1.71.92,2.75,4,2.75h1.49c1.26,0,1.49.45,1.49,1,0,.8-.57,1-1.6,1-3.33,0-8-.34-11.23-.34-1,0-6.42.34-11.69.34-1.27,0-1.84-.23-1.84-1,0-.58.34-1,1.15-1s2.06-.12,3-.12c4.58-.69,6.3-3.66,8.36-8.59l26.36-61.32c1.15-2.75,2-3.89,3-3.89,1.49,0,1.95.91,3,3.09,2.41,5.39,19.26,45.27,25.68,60.05,3.89,8.83,6.76,10.09,8.59,10.43a24.32,24.32,0,0,0,3.78.35c.92,0,1.38.34,1.38,1s-.58,1-4.36,1c-3.55,0-10.89,0-19.37-.23-1.83-.11-3-.11-3-.8s.23-.92,1.27-1a1.54,1.54,0,0,0,.91-2.18l-7.79-19.6a1,1,0,0,0-1-.69Zm21.55-5.38c.46,0,.57-.23.46-.58l-9.52-24.75c-.11-.34-.22-.92-.45-.92s-.46.58-.58.92l-9.74,24.64c-.23.46,0,.69.35.69Z"/><path class="cls-1" d="M709.32,134.38c.23,7.56,1.49,9.85,3.43,10.54a17.25,17.25,0,0,0,5.28.69c1.14,0,1.71.45,1.71,1,0,.8-.91,1-2.29,1-6.53,0-11.23-.34-13.06-.34-.92,0-5.73.34-10.89.34-1.37,0-2.29-.11-2.29-1,0-.58.69-1,1.6-1a21,21,0,0,0,4.59-.46c2.63-.69,3-3.32,3.09-11.81l.92-57.76c0-2,.69-3.32,1.72-3.32,1.26,0,2.63,1.49,4.35,3.21,1.26,1.26,16.39,16.73,31.06,31.06,6.88,6.76,20.28,20.51,21.78,21.89h.45l-1-43.33c-.11-6-1-7.67-3.44-8.59a17,17,0,0,0-5.27-.57c-1.26,0-1.6-.46-1.6-1,0-.8,1-.91,2.52-.91,5.27,0,10.66.23,12.84.23,1.14,0,4.92-.23,9.85-.23,1.38,0,2.29.11,2.29.91,0,.58-.57,1-1.71,1a10.35,10.35,0,0,0-3.1.34c-2.75.8-3.55,2.52-3.67,8l-1.14,61.43c0,2.18-.81,3.1-1.61,3.1a6,6,0,0,1-4.12-2.07c-6.31-5.84-18.91-17.88-29.46-28.08-11-10.54-21.66-22.34-23.61-24.06h-.34Z"/><path class="cls-1" d="M944.77,95.38c0-17.42,0-20.63-.23-24.3-.23-3.89-1.15-5.73-4.93-6.53a23.61,23.61,0,0,0-4.47-.34c-1.26,0-1.95-.23-1.95-1s.8-1,2.52-1c6.08,0,13.3.34,16.51.34,3.55,0,10.77-.34,17.65-.34,14.32,0,33.46,0,46,13.06,5.73,6,11.12,15.47,11.12,29.11a45.58,45.58,0,0,1-12.49,32c-5.27,5.38-17.19,13.52-38.4,13.52-4.12,0-8.82-.34-13.18-.69s-8.36-.69-11.23-.69c-1.26,0-3.78,0-6.53.12s-5.62.23-7.91.23c-1.49,0-2.29-.35-2.29-1.15,0-.57.46-.91,1.83-.91a18.67,18.67,0,0,0,4.13-.46c2.29-.46,2.86-3,3.32-6.31.58-4.81.58-13.86.58-24.41ZM959.09,108c0,12.15.12,21,.23,23.15.12,2.86.34,7.45,1.26,8.71,1.49,2.18,6,4.58,15,4.58,11.69,0,19.48-2.29,26.36-8.25,7.33-6.3,9.62-16.73,9.62-28.54,0-14.55-6.07-24-11-28.65C990,68.91,977,67.53,968,67.53c-2.29,0-6.53.35-7.45.8a2.09,2.09,0,0,0-1.37,2.3c-.12,3.89-.12,13.86-.12,22.92Z"/><path class="cls-1" d="M1045.15,103.29c0-14.79,0-17.54-.11-20.63-.23-3.32-1.26-4.47-3.44-5.16a13.05,13.05,0,0,0-3.67-.46c-1,0-1.6-.22-1.6-1.14,0-.57.8-.8,2.41-.8,3.78,0,10.65.23,13.52.23,2.52,0,9-.23,13-.23,1.26,0,2.06.23,2.06.8,0,.92-.57,1.14-1.6,1.14a13.94,13.94,0,0,0-3,.35c-2.75.46-3.55,1.83-3.78,5.27-.23,3.09-.23,5.84-.23,20.63v17.19c0,9.4,0,17.19.46,21.32.34,2.63,1,4.12,4,4.58a37.42,37.42,0,0,0,5.15.35c1.15,0,1.61.57,1.61,1,0,.68-.81,1-2,1-6.65,0-13.52-.35-16.27-.35-2.3,0-9.17.35-13.18.35-1.27,0-2-.35-2-1,0-.46.34-1,1.6-1a14.84,14.84,0,0,0,3.56-.35c2.06-.46,2.63-1.83,3-4.7.46-4,.46-11.8.46-21.2Z"/><path class="cls-1" d="M1087.78,147.41c-1.83-.8-2.18-1.37-2.18-3.89,0-6.31.46-13.18.58-15s.45-3,1.37-3,1.15,1,1.15,2a23.91,23.91,0,0,0,1,5.85c2.52,8.48,9.28,11.57,16.39,11.57,10.31,0,15.35-7,15.35-13.06,0-5.62-1.71-10.89-11.23-18.34l-5.27-4.13c-12.61-9.85-17-17.87-17-27.16,0-12.61,10.54-21.66,26.47-21.66a55.6,55.6,0,0,1,15.25,2c1,.23,1.6.57,1.6,1.37,0,1.49-.46,4.82-.46,13.76,0,2.52-.34,3.44-1.26,3.44s-1.15-.69-1.15-2.07a13.84,13.84,0,0,0-3-7.56c-1.71-2.18-5-5.62-12.49-5.62-8.48,0-13.64,4.93-13.64,11.81,0,5.27,2.64,9.28,12.15,16.5l3.21,2.41c13.87,10.43,18.8,18.34,18.8,29.22a23.09,23.09,0,0,1-10.77,19.94c-5.74,3.67-12.15,4.7-18.23,4.7C1097.87,150.39,1092.71,149.59,1087.78,147.41Z"/><path class="cls-1" d="M1162.84,124.26c-.57,0-.69.12-.92.69L1156.54,138a17.74,17.74,0,0,0-1.49,6c0,1.72.91,2.76,4,2.76h1.49c1.26,0,1.49.45,1.49,1,0,.8-.57,1-1.61,1-3.32,0-8-.35-11.23-.35-1,0-6.41.35-11.69.35-1.26,0-1.83-.23-1.83-1,0-.58.34-1,1.15-1s2.06-.12,3-.12c4.58-.69,6.3-3.67,8.36-8.6l26.36-61.31c1.15-2.75,2-3.9,3-3.9,1.49,0,2,.92,3,3.1,2.41,5.38,19.25,45.27,25.67,60,3.9,8.83,6.76,10.09,8.6,10.43a24.22,24.22,0,0,0,3.78.35c.92,0,1.38.34,1.38,1s-.58,1-4.36,1c-3.55,0-10.89,0-19.37-.23-1.83-.12-3-.12-3-.8s.23-.92,1.26-1a1.53,1.53,0,0,0,.92-2.18L1187.6,125a1,1,0,0,0-1-.69Zm21.55-5.38c.45,0,.57-.23.45-.58l-9.51-24.75c-.11-.35-.23-.92-.45-.92s-.46.57-.58.92l-9.74,24.64c-.23.46,0,.69.34.69Z"/><path class="cls-1" d="M1244.43,120.48c0,12.49,0,18.68,2.18,20.51,1.72,1.49,5.62,2.07,13.41,2.07,5.38,0,9.28-.12,11.8-2.75a11.64,11.64,0,0,0,2.52-5.85c.12-.91.35-1.49,1.15-1.49s.92,1,.92,2.18a74.33,74.33,0,0,1-1.49,11.23c-.69,2.18-1.15,2.64-6.42,2.64-7.22,0-13.07-.12-18.11-.35s-9.28-.23-13.41-.23c-1.14,0-3.32.12-5.73.12s-4.93.23-7,.23c-1.26,0-2-.35-2-1,0-.46.35-1,1.61-1a14.75,14.75,0,0,0,3.55-.35c2.06-.46,2.64-2.29,3-5.16.46-4.12.46-11.8.46-20.74V103.29c0-14.79,0-17.54-.12-20.63-.23-3.32-1.14-4.36-4.35-5.27a13.43,13.43,0,0,0-3.33-.35c-1.14,0-1.71-.34-1.71-1s.68-.91,2.17-.91c4.7,0,11.12.23,13.87.23,2.41,0,10.66-.23,14.56-.23,1.49,0,2.17.23,2.17.91s-.57,1-1.83,1a22.35,22.35,0,0,0-3.9.35c-2.75.46-3.55,1.83-3.78,5.27-.23,3.09-.23,5.84-.23,20.63Z"/><path class="cls-1" d="M1278.92,84.61c-2.29-5.39-3.78-6.31-7.45-7.22a17.45,17.45,0,0,0-3.89-.35c-.92,0-1.15-.45-1.15-1,0-.8,1-.91,2.52-.91,5.39,0,11.12.23,14.67.23,2.52,0,7.79-.23,12.84-.23,1.26,0,2.4.23,2.4.91s-.68,1-1.6,1a7.47,7.47,0,0,0-3.9.69,2.14,2.14,0,0,0-1,2c0,1.26.92,3.9,2.29,7.33l17,43.67h.34c4.35-10.09,17.31-41.49,19.71-47.91a13.47,13.47,0,0,0,.92-3.55c0-1-.46-1.37-1.38-1.72a15.51,15.51,0,0,0-4-.46c-.91,0-1.72-.34-1.72-1s.92-.91,2.87-.91c5,0,9.51.23,10.77.23,1.72,0,6.42-.23,9.51-.23,1.26,0,2.07.23,2.07.91s-.58,1-1.61,1a8,8,0,0,0-4.93,1.15c-1.26.92-2.63,2.41-5.27,8.6-4,9.16-6.65,14.44-12.15,26.35-6.42,14.22-11.11,24.87-13.41,29.8-2.52,5.62-3.44,7.11-4.81,7.11s-2.18-1.26-4.12-5.85Z"/><path class="cls-1" d="M1350.43,111.88c0-16.61,11.69-38.16,42.29-38.16,25.44,0,41.26,14.1,41.26,36.45s-16.28,39.88-42.29,39.88C1362.35,150.05,1350.43,129.19,1350.43,111.88Zm68.54,1.84c0-21.55-13-34.84-29.23-34.84-11.23,0-24.41,6-24.41,30,0,20.06,11.46,35.88,30.48,35.88C1402.92,144.78,1419,141.45,1419,113.72Z"/><path class="cls-1" d="M833.25,96.33c-4.82-6.42-5.73-11.12-5.85-16.27C827.29,71,835.31,59,855.25,59a39.24,39.24,0,0,1,13.87,2.41c2,.69,2,1.6,2,3A136,136,0,0,1,869.8,79c-.22,1.72-.68,2-1.37,2s-.8-.46-.8-2.18a14.87,14.87,0,0,0-3.33-9.63C862,66.42,858,64,851.58,64c-4.81,0-12.26,3.33-12.26,13.07,0,10.77,9.86,19.94,19,30.14,3.89,4.47,18,17.19,20.17,19.14a34.56,34.56,0,0,0,5.5-17.65,6.76,6.76,0,0,0-2.18-5.27c-1.49-1.38-3.9-1.72-5.62-1.72-.68,0-1.37-.23-1.37-.92,0-.92.91-1.14,1.83-1.14a127.5,127.5,0,0,1,13.75.8c2.18.23,3.9.92,3.9,2.29,0,8.82-4.7,19.48-11.23,27.16A118.3,118.3,0,0,0,899,141.14c3.67,2.18,10,4,12.26,4,1,0,1.61.11,1.61,1,0,.68-.92,1-3.44,1h-8.83c-13.06,0-17.19-1.26-27-8.83-3.79,3.44-11.46,10.43-27.16,10.43-24.53,0-31.86-15.36-31.86-25.33C814.57,110.08,826.37,99.66,833.25,96.33Zm35.87,38.4c-6.65-5.74-17.65-16.51-20.63-19.72s-10.32-11.46-12.26-14.32c-3.9,2.86-7.91,8.25-7.91,17.42,0,14.32,10.08,23.49,22,23.49C859.15,141.6,866.71,137,869.12,134.73Z"/><rect class="cls-2" x="349.23" y="174.67" width="1080.56" height="2.02"/><circle class="cls-2" cx="153.24" cy="153.24" r="153.24"/><circle class="cls-3" cx="153.24" cy="153.24" r="146.15"/><path class="cls-1" d="M203.5,142c0-17.43,0-20.55-.23-24.13-.22-3.79-1.13-5.58-4.87-6.36a20.89,20.89,0,0,0-3.85-.34c-.45,0-.91-.22-.91-.67,0-.67.57-.89,1.82-.89,5.09,0,16.31.33,16.87.33,1.36,0,8.5-.33,15.3-.33,11.22,0,31.95-1,45.43,12.73,5.67,5.81,11,15.08,11,28.37a45.32,45.32,0,0,1-12.24,31.49c-4.87,5-15.07,12.85-34.33,12.85-4.87,0-10.88-.34-15.75-.67s-8.84-.68-9.41-.68c-.22,0-2.15,0-4.53.12s-9,.22-10.65.22c-1.24,0-1.81-.22-1.81-.89,0-.34.23-.67.91-.67a18,18,0,0,0,3.4-.45c2.26-.45,2.83-2.9,3.28-6.14.57-4.69.57-13.52.57-24.24Zm13.59,12.06c0,11.84.12,22.11.23,24.23.11,2.8.34,7.26,1.25,8.49,1.47,2.12,5.89,4.47,19.26,4.47,10.53,0,20.28-3.8,27-10.39,5.9-5.69,9.07-16.42,9.07-26.69,0-14.18-6.23-23.34-10.88-28.14-10.65-11.06-23.57-12.62-37.05-12.62-2.27,0-6.46.33-7.36.78a2,2,0,0,0-1.36,2.23c-.12,3.8-.12,15.19-.12,23.79Z"/><path class="cls-1" d="M41.73,143.45c0-17.42,0-20.55-.22-24.12-.22-3.8-1.12-5.59-4.8-6.37a21.24,21.24,0,0,0-3.8-.33c-.45,0-.89-.23-.89-.67,0-.67.56-.9,1.78-.9,5,0,16.41.34,17.08.34,1,0,7.48-.34,10.83-.34,1.23,0,1.79.23,1.79.9,0,.44-.45.67-.89.67a16.94,16.94,0,0,0-2.8.33c-3,.56-3.9,2.46-4.13,6.37-.22,3.57-.22,6.7-.22,24.12v6.7H51.11c1.9-2.12,22.12-22.67,26.14-27,3.13-3.24,6-6.15,6-8a2.19,2.19,0,0,0-1.45-2.35c-.56-.22-1-.45-1-.89s.56-.79,1.34-.79c2.24,0,5.7.34,8.38.34.56,0,7.93-.34,10.72-.34,1.23,0,1.67.23,1.67.79s-.22.78-1.11.78a16.64,16.64,0,0,0-6.26,1.56c-4.58,2-7,4.8-12.06,9.61-2.79,2.68-22.22,21.66-24.57,24.45,2.91,3.24,26.14,27.25,30.71,31.5,9.39,8.71,11.28,10.5,16.64,12.73a20.59,20.59,0,0,0,6.93,1.45c.78,0,1.45.22,1.45.67s-.56.9-2.46.9h-5.69c-3.13,0-5.25,0-7.71-.23-5.92-.56-8.71-3-13.51-6.81-5-4.13-28.7-29.71-34.06-36.3h4.23v11c0,10.72,0,19.54.56,24.23.33,3.24,1,5.7,4.35,6.14a37.05,37.05,0,0,0,4.36.45c.67,0-3.9.34-3.9.67,0,.56-.56.9-1.79.9-5.47,0-11.95-.34-12.84-.34s-7.37.34-10.72.34c-1.23,0-1.79-.23-1.79-.9,0-.33.23-.67.9-.67a16.85,16.85,0,0,0,3.35-.45c2.23-.44,2.79-2.9,3.24-6.14.55-4.69.55-13.51.55-24.23Z"/><path class="cls-1" d="M124.13,193.7a67.47,67.47,0,0,1-104.29-.8Z"/><path class="cls-1" d="M288,193.7a67.47,67.47,0,0,1-104.29-.8Z"/><line class="cls-4" x1="284.97" y1="194.79" x2="236.7" y2="74.08"/><line class="cls-4" x1="120.37" y1="194.79" x2="72.17" y2="74.49"/><line class="cls-4" x1="23.68" y1="194.79" x2="72.17" y2="74.49"/><line class="cls-4" x1="186.22" y1="194.79" x2="236.7" y2="74.08"/><line class="cls-5" x1="81.11" y1="255.31" x2="224.1" y2="255.31"/><path class="cls-1" d="M72,64.83a4.68,4.68,0,0,1-9.1,1.53,4.59,4.59,0,0,1-.26-1.53,4.68,4.68,0,1,1,9.36,0Z"/><path class="cls-1" d="M155.37,77.27h-9.13s-7.63.5-5.23,7.88c2,6.21,4.61,8.95,4.61,8.95l4.52,5.31h5.22Z"/><path class="cls-1" d="M155.36,78.2v-16H140.07l6.41,15.74Z"/><path class="cls-1" d="M150.84,77.27H160s7.62.5,5.23,7.88c-2,6.21-4.61,8.95-4.61,8.95l-4.52,5.31h-5.23Z"/><path class="cls-1" d="M150.86,78.2v-16h15.29l-6.42,15.74Z"/><rect class="cls-1" x="147.12" y="98.99" width="11.69" height="2.83"/><rect class="cls-1" x="149.87" y="101.27" width="6.2" height="12.59"/><rect class="cls-1" x="149.87" y="109.63" width="6.2" height="104.29"/><rect class="cls-1" x="143.46" y="209.73" width="19.01" height="40.41"/><polygon class="cls-1" points="162.34 250.13 143.74 250.13 110.96 253.51 110.87 254.84 195.06 254.84 195.11 253.25 162.34 250.13"/><rect class="cls-1" x="140.08" y="228.35" width="25.76" height="5.88"/><path class="cls-1" d="M138,62.59c-14.8,1.36-30.36,6.64-30.36,6.64S86.47,77,75,75.82,62.63,65.4,62.63,65.4l1.17.09c3.76,9,11.12,8.44,11.12,8.44,8.89.94,27.34-5.6,27.34-5.6,15.48-6.41,27.42-8.88,35.72-9.7,0,0,6-.34,11.62-.31v3.91Z"/><path class="cls-1" d="M234.17,64.83a4.68,4.68,0,0,0,9.1,1.53,4.59,4.59,0,0,0,.26-1.53,4.68,4.68,0,1,0-9.36,0Z"/><path class="cls-1" d="M168.16,62.59c14.8,1.36,30.36,6.64,30.36,6.64s21.14,7.74,32.61,6.59S243.5,65.4,243.5,65.4l-1.17.09c-3.76,9-11.12,8.44-11.12,8.44-8.89.94-27.33-5.6-27.33-5.6-15.49-6.41-27.43-8.88-35.73-9.7,0,0-6-.34-11.62-.31v3.91Z"/><rect class="cls-1" x="148.86" y="58.35" width="8.34" height="4.44"/><path class="cls-1" d="M155.23,53.6V50.25s8.14-7.18,0-17.87H150c-8.14,10.69,0,17.87,0,17.87V53.6l-4,5.11h13.25Z"/><circle class="cls-1" cx="152.8" cy="28.47" r="4.79"/><path class="cls-2" d="M237,215.71c28.2-1.44,42.9-18.38,42.9-18.38H237.2Z"/><path class="cls-2" d="M71.75,215.71c28.21-1.44,42.91-18.38,42.91-18.38H72Z"/><path class="cls-2" d="M152.7,96.8V82.4h7.13a2.31,2.31,0,0,0,1.83-3.13s4.08,2,.21,8.76a35.22,35.22,0,0,1-6.25,8.77Z"/><rect class="cls-2" x="152.83" y="99.85" width="4.62" height="0.88"/><rect class="cls-2" x="153.17" y="101.86" width="1.84" height="109.67"/><path class="cls-2" d="M152.83,76.28V62.15s6.86,0,11.21.41l-5.77,13.72Z"/><path class="cls-2" d="M157.18,58.35l-3.33-4.76V50.2s8.29-8.42-.34-17.32h-.95V58.21Z"/><circle class="cls-2" cx="152.83" cy="28.46" r="3.7"/><circle class="cls-1" cx="151.64" cy="27.61" r="2.58"/><rect class="cls-2" x="152.9" y="120.1" width="1.83" height="70.82"/><path class="cls-2" d="M127.37,164c0-8,5.1-13.27,10.41-16.41-2.52-3.54-3.33-6.33-3.33-9.39,0-5.38,5.51-12.53,14.63-12.53a17.75,17.75,0,0,1,8.24,1.7,1.57,1.57,0,0,1,.89,1.71,77.81,77.81,0,0,1-.48,7.83c-.21,1-.41,1.15-.68,1.15s-.41-.27-.41-1.29a8.19,8.19,0,0,0-2.11-5.79,9.41,9.41,0,0,0-6.81-3c-4.08,0-8.65,2.52-8.65,8.92,0,5.31,3.68,9.73,10.76,17.42,2.32,2.52,10.69,10.35,12.87,12.19a20.84,20.84,0,0,0,3.47-11.3,4.64,4.64,0,0,0-1.29-3.34,4.85,4.85,0,0,0-3.34-1.09c-.41,0-.82-.13-.82-.47s.55-.48,1.09-.48a76,76,0,0,1,8.17.48c1,.13,1.23.68,1.23,1.36,0,5.51-3.75,12.39-6.74,16.06a59.47,59.47,0,0,0,9.39,6.74c2.18,1.3,5.65,2.66,8.1,2.66.62,0,1,.07,1,.48s-.55.47-1.16.47h-6.67c-5,0-6.67-.47-14.16-6.4a22.86,22.86,0,0,1-17,7.36C132,179.05,127.37,169.92,127.37,164Zm31.79,6.4c-3.81-3.13-10.55-9.6-12.32-11.51a110.84,110.84,0,0,1-8-9.53,13,13,0,0,0-6.12,11.44c0,8.51,6,14.64,13.61,14.64A17.62,17.62,0,0,0,159.16,170.4Z"/><rect class="cls-2" x="153.1" y="211.52" width="6.93" height="16.91"/><rect class="cls-2" x="153.1" y="234.35" width="6.93" height="15.88"/><rect class="cls-2" x="153.1" y="230.27" width="11.03" height="2.19"/><rect class="cls-2" x="213.15" y="115.54" width="2.45" height="73.63" rx="0.74"/><path class="cls-2" d="M53.52,146.91V116.77a1.23,1.23,0,0,0-1.22-1.23h0a1.23,1.23,0,0,0-1.22,1.23v32Z"/><path class="cls-2" d="M53.52,155.81V188a1.22,1.22,0,0,1-1.22,1.22h0A1.22,1.22,0,0,1,51.08,188V152.86Z"/><path class="cls-1" d="M1435.18,82.74a9.54,9.54,0,0,1-5.4-5.32,10.35,10.35,0,0,1-.76-4,9.76,9.76,0,0,1,.79-3.91,10,10,0,0,1,2.18-3.23,9.83,9.83,0,0,1,3.25-2.16,10.13,10.13,0,0,1,4-.77,10.56,10.56,0,0,1,4,.75,9.75,9.75,0,0,1,3.23,2.12,9.34,9.34,0,0,1,2.13,3.22,10.33,10.33,0,0,1,.76,4,10,10,0,0,1-.77,3.89,9.8,9.8,0,0,1-2.17,3.21,10,10,0,0,1-3.25,2.16,10.25,10.25,0,0,1-3.94.77A10.72,10.72,0,0,1,1435.18,82.74Zm-3.86-5.91a9.11,9.11,0,0,0,1.83,2.84,8.53,8.53,0,0,0,2.75,1.92,8.07,8.07,0,0,0,3.3.69,8.29,8.29,0,0,0,7.86-5.4,9.42,9.42,0,0,0,.63-3.44,9,9,0,0,0-2.46-6.22,8.54,8.54,0,0,0-2.73-1.93,7.92,7.92,0,0,0-3.3-.7,8.6,8.6,0,0,0-3.38.67,8.2,8.2,0,0,0-2.73,1.87,8.3,8.3,0,0,0-1.8,2.82,9.74,9.74,0,0,0-.62,3.49A8.78,8.78,0,0,0,1431.32,76.83Zm6.42-2.49v1.17c0,1.11,0,1.83,0,2.16a1.49,1.49,0,0,0,.18.64c.1.12.43.18,1,.18.16,0,.24.07.26.2s-.11.23-.28.23h-.49l-.38,0-1.41,0-1.28,0-.41,0h-.47c-.15,0-.23-.06-.23-.2s.1-.21.29-.21a1.87,1.87,0,0,0,.88-.15c.13-.09.2-.3.22-.64a9.11,9.11,0,0,0,0-1V72.05c0-1.23,0-2.15,0-2.77V69a.69.69,0,0,0-.3-.61,2.08,2.08,0,0,0-.9-.19.2.2,0,0,1-.23-.23c0-.12.1-.18.31-.18h.82c.61,0,1.07,0,1.38,0l.72,0,1.1,0a9.81,9.81,0,0,1,2.09.17,3.15,3.15,0,0,1,1.12.47,2.39,2.39,0,0,1,.71.8,2.32,2.32,0,0,1,.29,1.2,3.36,3.36,0,0,1-.41,1.59,7.26,7.26,0,0,1-1.54,1.77c.49.57,1.09,1.27,1.79,2.13s1.21,1.44,1.46,1.72c.55.59.94.89,1.18.89s.26.08.26.23-.1.18-.31.18h-.61a8.47,8.47,0,0,1-1.06,0,2.09,2.09,0,0,1-.79-.23,8.53,8.53,0,0,1-2-2.15c-.17-.22-.35-.47-.52-.73s-.39-.57-.61-.91a5.93,5.93,0,0,0-.33-.51Zm0-1a1.36,1.36,0,0,0,.47.2,2.29,2.29,0,0,0,.56.08,2.22,2.22,0,0,0,1.1-.23c.58-.32.87-1,.87-2.18a2.81,2.81,0,0,0-.63-1.92,2.15,2.15,0,0,0-1.7-.72,1.77,1.77,0,0,0-.67.1Z"/><path class="cls-1" d="M353.33,224.21c0-7.41,0-12.32-.2-14.48-.14-1.89-.74-3.1-2.36-3.44a16.58,16.58,0,0,0-2.56-.26c-.87,0-1.21-.27-1.21-.68s.2-.67,1.48-.67c2.9,0,9.77.2,10.91.2,3.24,0,7-.2,10.1-.2,9.16,0,13.61,2.15,16.3,4.65a12.23,12.23,0,0,1,3.64,8.95c0,10.37-9.5,16-18.79,16a10.57,10.57,0,0,1-2.09-.2c-.4-.13-.74-.27-.74-.67s.27-.67,1.48-.67c5.59,0,8.29-4.38,8.29-10.44,0-4.65-.88-8.35-3.3-11a8.59,8.59,0,0,0-6.4-2.76,11.37,11.37,0,0,0-1.82.13c-.54.14-.81.54-.81,1.69v25.72c0,5.26,0,11.38.34,14.21.13,1.95.6,3.24,2.62,3.64a26.29,26.29,0,0,0,3,.34c1,0,1.28.2,1.28.74,0,.33-.34.6-1.35.6-4.65,0-11.79-.2-12.39-.2-.34,0-7.68.2-10,.2-.94,0-1.35-.2-1.35-.67s.54-.67,1.28-.67,1.35-.14,2-.27c1.35-.27,2-1.22,2.23-3.77.27-2.83.4-7.62.4-14.15Z"/><path class="cls-1" d="M401.36,224.21c0-11-.07-12.32-.21-14.48-.13-1.95-.74-3.1-2.42-3.5a19.48,19.48,0,0,0-2.22-.2c-.88-.07-1.22-.34-1.22-.74s.41-.61,1.49-.61c3.83,0,7.07.2,10,.2l19-.07a23.08,23.08,0,0,0,3.64-.27,5.07,5.07,0,0,1,1.08-.26c.33,0,.4.26.4.6s-.13,1-.34,3c-.2,1.35-.33,3.71-.54,7.21,0,.54-.27.94-.67.94s-.61-.33-.67-.94a8,8,0,0,0-.34-2.36c-.34-1.54-1.21-2.42-4.44-2.69-2.23-.2-8.09-.34-10.11-.34-.4,0-.54.2-.54.68v14.81c0,.47.07.81.54.81,1.89.07,7.34,0,9.77-.07,3.3-.13,4.17-.33,4.91-1.55.41-.6.61-.87.95-.87s.4.4.4.81c0,.67-.33,3.09-.54,5.72-.06,1.55-.06,4.85-.06,5.59s-.21,1.28-.61,1.28-.61-.47-.74-1.08-.14-1-.2-1.55c-.27-2-1.21-3.09-4.52-3.3-1.88-.13-7.4-.27-9.49-.27-.34,0-.41.34-.41.88v4.65c0,2.29-.06,6.26,0,8.82.07,4.71,1,5.79,8.49,5.79A18.64,18.64,0,0,0,428,250c1.89-.74,2.7-2.22,3.3-5.32.14-.81.41-1.21.81-1.21s.61.67.61,1.48a54.83,54.83,0,0,1-1.08,9c-.47,1.75-.94,1.81-3.43,1.81-9.3,0-14.35-.4-21.42-.4-3.17,0-6,.2-9.7.2-1.21,0-1.61-.2-1.61-.67s.33-.67,1.34-.67a14.42,14.42,0,0,0,2-.27c1.89-.27,2.16-2.83,2.29-7.08.14-2.69.21-6.66.21-10.84Z"/><path class="cls-1" d="M445.54,224.21c0-10.44-.14-11.79-.2-13.94-.14-2.76-.95-3.64-2.56-4a24,24,0,0,0-2.7-.26c-.81-.07-1.21-.34-1.21-.74s.47-.61,1.48-.61c2.9,0,9.36.2,10.31.2,1.28,0,7.74-.2,10.84-.2,6.33,0,10.77.61,13.74,2.29a11.43,11.43,0,0,1,6.13,10.3c0,5.66-3.24,10-9,13.54,4.11,5.93,9,13.13,13.13,17.85,3.57,4,5.19,5.11,7.08,5.38.74.14,1.14.14,1.68.21.74,0,1.14.27,1.14.67,0,.6-.67.67-1.34.67H488c-6.94,0-9.9-.67-12.26-2.22-2.16-1.28-4.31-4.17-6.94-8.42-3.1-5.12-4.64-7.88-5.86-9.7a1,1,0,0,0-.8-.4h-4.45c-.34,0-.54.13-.54.54v3.43a100.42,100.42,0,0,0,.34,11.32c.13,1.75.6,3.23,2.62,3.7a17.09,17.09,0,0,0,3,.41c1.07.06,1.21.33,1.21.74s-.47.6-1.42.6c-4.51,0-11.85-.2-12.32-.2-.81,0-7.34.2-9.63.2-1,0-1.35-.2-1.35-.67s.47-.67,1.21-.67,1.55-.14,2.29-.27c1.35-.34,1.89-1.55,2.09-3.84.27-2.83.34-7.55.34-14.08Zm11.58,4.51a1,1,0,0,0,.61,1,12,12,0,0,0,5.18.88,6.76,6.76,0,0,0,4.25-1.08c1.41-1.08,2.62-4,2.62-8.49,0-9.56-6.06-12-9.56-12a9.18,9.18,0,0,0-2.69.27c-.27.13-.41.2-.41.74Z"/><path class="cls-1" d="M498.07,254.65c-1.14-.47-1.48-1.35-1.48-2.69a84.83,84.83,0,0,1,.41-9.9c.13-1.22.4-1.62.81-1.62s.53.61.6,1.14a13.89,13.89,0,0,0,.34,2.09c1.14,5.53,6.19,8.69,11.45,8.69,6.39,0,8.35-3.3,8.35-6.2s-.54-5.18-6.27-9.09l-4.17-2.89c-8.22-5.79-10.51-10.51-10.51-16.44,0-7.74,6.4-14,17.18-14a37.14,37.14,0,0,1,7.74.67,28.33,28.33,0,0,1,3.3.81c.67.2.88.4.88.94-.14,2.16-.27,3.5-.27,9.5,0,1.21-.21,1.68-.74,1.68-.34,0-.61-.2-.74-1.28a9.4,9.4,0,0,0-1.22-3.91c-1.28-2.15-4.37-4.44-9.22-4.44-5.53,0-7.55,3.1-7.55,6.2,0,2.29.81,4.91,5.39,8l3.44,2.29c9.42,6.26,12.39,10.44,12.39,17.24A13.7,13.7,0,0,1,521,253.64a22.48,22.48,0,0,1-11.72,2.89C504.27,256.53,500.7,255.86,498.07,254.65Z"/><path class="cls-1" d="M535.93,230.34c0-13.47,9-26.6,28.82-26.6,17.11,0,27.81,11.45,27.81,25.12,0,15.69-10.64,27.67-28.28,27.67C544.41,256.53,535.93,242.26,535.93,230.34Zm43.16,1.48c0-11.18-4.64-23.91-16.56-23.91-6.2,0-13.14,3.44-13.14,19.4,0,12.72,5.32,24.91,16.91,24.91C570.47,252.22,579.09,250.41,579.09,231.82Z"/><path class="cls-1" d="M605.57,206.9c.07-2,.33-3.23,1.14-3.23.54,0,.88.2,2.63,1.62,2.83,2.35,6.33,5.72,21.75,19.86,6.87,6.33,11.52,10.84,13.34,12.46L644,212.36c-.13-3.77-.47-5.53-3.16-6a21.42,21.42,0,0,0-3-.33c-.87,0-1.21-.34-1.21-.68s.61-.67,1.35-.67c2.69,0,7.07.2,9.76.2,1.49,0,4.85-.2,7.68-.2,1,0,1.48.2,1.48.61s-.33.74-1.14.74a7.44,7.44,0,0,0-1.69.2c-2.22.27-2.89,1.41-3.09,5.59-.54,13.53-.54,27-.81,40.54,0,3.43-.47,4.17-1.35,4.17-1.08,0-3.16-1.61-7.54-5.45-4.58-4-10.51-9.36-14.55-13.06-3.77-3.44-10.5-9.77-15.42-14.55l.67,23c.14,4.85.41,6.67,2.29,7.34a17.83,17.83,0,0,0,3.57.48c1,.06,1.35.27,1.35.67s-.54.67-1.62.67c-2.35,0-4.51-.13-8.68-.2-1.55,0-6.54.2-9.16.2-.95,0-1.49-.13-1.49-.67s.34-.67,1.28-.67c.61-.07,1.49-.07,2.23-.21,2.62-.4,3-2.08,3.16-8.35C605.3,231.82,605.16,215.59,605.57,206.9Z"/><path class="cls-1" d="M673.59,241.65c-.33,0-.47.14-.6.47l-2.09,5.53a15.19,15.19,0,0,0-1.08,4.31c0,1.27.61,1.88,2,2,.75.13,1.82.2,2.36.27,1,0,1.21.33,1.21.67,0,.54-.54.67-1.41.67-3,0-5.32-.2-8.89-.2-.74,0-5.18.2-8.55.2-.95,0-1.35-.27-1.35-.67s.47-.67,1.28-.67a20.85,20.85,0,0,0,2.16-.27c2.35-.47,3.7-2.56,5.11-5.8l18-40.67c1.28-2.9,2-3.91,2.77-3.91s1.27.94,2.42,3.37c1.75,3.77,13.06,29.56,17.65,39.8,2.28,5.25,3.76,6.87,6.12,7.21a14,14,0,0,0,2.16.27c.87,0,1.28.27,1.28.67s-.48.67-1.75.67c-6.6,0-14.28-.13-18.59-.2-1.08,0-1.48-.2-1.48-.61s.33-.67.94-.8,1-.61.81-1.22l-4.51-10.7a.58.58,0,0,0-.54-.41Zm13.47-5.38c.41,0,.41-.21.34-.34l-5.93-14.41c-.2-.48-.33-.34-.47,0l-5.72,14.41c-.07.2.07.34.27.34Z"/><path class="cls-1" d="M732,236.13c0,6.8-.2,11.65.94,13.07,1,1.27,2.22,1.61,7.81,1.61,3.71,0,5.86-.07,7.75-1.08,1.61-.74,2.76-2.49,3.5-5.65.2-.74.34-1.28.88-1.28s.53.33.53,1.28A55.09,55.09,0,0,1,752,254c-.54,1.75-1.08,1.81-3.77,1.81-9.29,0-15.56-.4-22.7-.4-3.16,0-6.8.2-10.5.2-.94,0-1.48-.13-1.48-.74,0-.4.4-.6,1.34-.6s1.55-.14,2.29-.27c2.43-.41,2.49-1.62,2.7-7,.13-2.69.2-6.73.2-10.91V224.21c0-11-.07-12.19-.2-14.35-.14-1.88-.61-3-2.29-3.5A12.3,12.3,0,0,0,715,206c-.74,0-1.41-.14-1.41-.68s.67-.67,2-.67c3.84,0,7.34.2,10,.2.61,0,9-.2,11.38-.2,1.22,0,1.62.2,1.62.61,0,.6-.67.74-1.62.74a16.06,16.06,0,0,0-2.28.26c-1.82.34-2.29,1.62-2.43,4-.13,2.15-.2,3.5-.2,14.61Z"/><path class="cls-1" d="M784.12,224.21c0-10.44,0-12.39-.2-14.55-.13-1.88-.88-3.09-2.36-3.37a11.14,11.14,0,0,0-2-.26c-.81,0-1.28-.27-1.28-.74s.34-.61,1.48-.61c2.7,0,9.3.2,9.84.2s8.55-.2,11-.2c1.15,0,1.49.27,1.49.67s-.61.68-1.28.68-1.08.06-2,.2c-1.75.34-2.42,1.21-2.56,3.63-.2,2.16-.2,3.91-.2,14.35v11.85c0,5.32.07,11.59.34,14.41.13,1.75.54,3,2.56,3.44a22.94,22.94,0,0,0,3,.34c1.15,0,1.41.27,1.41.67s-.33.67-1.41.67c-4.58,0-11.78-.2-12.39-.2-.34,0-7.41.2-9.7.2-1.08,0-1.62-.13-1.62-.67s.54-.67,1.35-.67,1.35-.14,2.09-.27c1.41-.21,1.89-1.69,2.09-3.64.27-2.83.4-7.68.4-14.28Z"/><path class="cls-1" d="M815.85,206.9c.06-2,.33-3.23,1.14-3.23.54,0,.88.2,2.63,1.62,2.82,2.35,6.33,5.72,21.75,19.86,6.87,6.33,11.51,10.84,13.33,12.46l-.4-25.25c-.13-3.77-.47-5.53-3.17-6a21.28,21.28,0,0,0-3-.33c-.87,0-1.21-.34-1.21-.68s.6-.67,1.35-.67c2.69,0,7.07.2,9.76.2,1.48,0,4.85-.2,7.68-.2,1,0,1.48.2,1.48.61s-.34.74-1.14.74a7.36,7.36,0,0,0-1.69.2c-2.22.27-2.9,1.41-3.1,5.59-.54,13.53-.54,27-.8,40.54,0,3.43-.48,4.17-1.35,4.17-1.08,0-3.17-1.61-7.54-5.45-4.58-4-10.51-9.36-14.55-13.06-3.77-3.44-10.51-9.77-15.42-14.55l.67,23c.13,4.85.4,6.67,2.29,7.34a17.73,17.73,0,0,0,3.57.48c1,.06,1.35.27,1.35.67s-.54.67-1.62.67c-2.36,0-4.51-.13-8.69-.2-1.55,0-6.53.2-9.16.2-.94,0-1.48-.13-1.48-.67s.34-.67,1.28-.67c.61-.07,1.48-.07,2.22-.21,2.63-.4,3-2.08,3.17-8.35C815.58,231.82,815.44,215.59,815.85,206.9Z"/><path class="cls-1" d="M891.42,237.07c0,6.6-.07,13.88-1.69,18.45-1.88,5.19-6,10.38-13.67,14.89a24.84,24.84,0,0,1-3.5,1.75,3.05,3.05,0,0,1-1.48.4.55.55,0,0,1-.61-.54c0-.33.54-.87,1.55-1.48a16,16,0,0,0,3.57-3c3.57-4,3.91-8.35,3.91-26.06V224.21c0-10.44,0-12.32-.21-14.48-.13-1.89-.87-3.16-2.76-3.44-.94-.13-1.95-.2-2.69-.26s-1.28-.2-1.28-.74.33-.61,1.48-.61c2.9,0,10.37.2,10.91.2s8.62-.2,11.11-.2c1.15,0,1.55.2,1.55.61,0,.6-.47.67-1.35.74-.67.06-1,.06-2,.2-2.22.4-2.56,1.88-2.69,4s-.2,3.5-.2,13.94Z"/><path class="cls-1" d="M920.24,234.31c0,9.29,1.42,13.2,5.12,15.83A11.13,11.13,0,0,0,932.1,252a11.3,11.3,0,0,0,7.41-2.49c3.76-3.23,3.76-10.3,3.76-17.24v-8.08c0-9.9,0-11.65-.13-13.81-.13-2.56-.67-3.7-2.89-4.11-.74-.13-1.15-.13-2.5-.26-.87,0-1.21-.27-1.21-.68s.34-.67,1.55-.67c3.84,0,7.95.2,9,.2s5.58-.2,8.88-.2c1,0,1.42.2,1.42.67s-.27.61-1.15.68a12.78,12.78,0,0,0-2.08.26c-1.82.34-2.36,1.35-2.56,4.11-.14,2.16-.2,3.91-.2,13.81v6.6c0,7.68-.34,16-6.87,21.28-4.18,3.5-9.43,4.44-14,4.44-5.93,0-11.85-.87-16-4.51-3.57-3-6.26-7.88-6.26-17.57V224.21c0-10.44,0-12.32-.21-14.48-.13-1.89-.53-2.76-2.08-3.23a15.56,15.56,0,0,0-2.9-.47c-1-.07-1.41-.34-1.41-.74s.54-.61,1.81-.61c2.9,0,9.7.2,10.31.2s8.55-.2,11-.2c1.14,0,1.48.2,1.48.61s-.34.67-1.22.74c-.6.06-1.54.13-2.22.26-1.88.41-2.22,1.82-2.35,4s-.21,5.32-.21,13.94Z"/><path class="cls-1" d="M968.27,224.21c0-10.44-.14-11.79-.2-13.94-.14-2.76-1-3.64-2.56-4a24,24,0,0,0-2.7-.26c-.8-.07-1.21-.34-1.21-.74s.47-.61,1.48-.61c2.9,0,9.36.2,10.31.2,1.28,0,7.74-.2,10.84-.2,6.33,0,10.78.61,13.74,2.29a11.43,11.43,0,0,1,6.13,10.3c0,5.66-3.24,10-9,13.54,4.11,5.93,9,13.13,13.14,17.85,3.56,4,5.18,5.11,7.07,5.38.74.14,1.14.14,1.68.21.74,0,1.14.27,1.14.67,0,.6-.67.67-1.34.67h-6.06c-6.94,0-9.9-.67-12.26-2.22-2.16-1.28-4.31-4.17-6.94-8.42-3.09-5.12-4.64-7.88-5.85-9.7a1.08,1.08,0,0,0-.81-.4h-4.45c-.34,0-.54.13-.54.54v3.43a100.42,100.42,0,0,0,.34,11.32c.13,1.75.6,3.23,2.63,3.7a16.84,16.84,0,0,0,3,.41c1.07.06,1.21.33,1.21.74s-.47.6-1.41.6c-4.52,0-11.86-.2-12.33-.2-.81,0-7.34.2-9.63.2-1,0-1.35-.2-1.35-.67s.47-.67,1.21-.67,1.55-.14,2.3-.27c1.34-.34,1.88-1.55,2.08-3.84.27-2.83.34-7.55.34-14.08Zm11.58,4.51a1,1,0,0,0,.61,1,12,12,0,0,0,5.19.88,6.75,6.75,0,0,0,4.24-1.08c1.41-1.08,2.62-4,2.62-8.49,0-9.56-6.06-12-9.56-12a9.18,9.18,0,0,0-2.69.27c-.27.13-.41.2-.41.74Z"/><path class="cls-1" d="M1030,238.15a12.82,12.82,0,0,0-1.88-7.21c-2.49-4.58-9.16-15.69-11.45-19.12-2.56-3.91-3.3-4.78-5.45-5.46a11.51,11.51,0,0,0-1.76-.33c-.67-.07-1-.34-1-.74s.54-.61,1.35-.61c2.76,0,7.81.2,10.37.2,1.15,0,5.39-.2,9.63-.2.74,0,1.28.13,1.28.54s-.34.67-1.34.87c-1.82.2-2.09.88-2.09,1.42a4.4,4.4,0,0,0,.67,2c1.08,1.95,9.5,16.9,10.57,18.93,4.11-7.75,7.75-14.48,9-17.18a8.88,8.88,0,0,0,1.07-3.43c0-.74-.4-1.35-2.42-1.69-.6-.13-1.14-.33-1.14-.8s.4-.61,1.48-.61c2.76,0,5.05.2,7.61.2.94,0,6.46-.2,7.74-.2.81,0,1.35.13,1.35.61s-.47.74-1.35.74a10.43,10.43,0,0,0-2.62.54c-1.89.74-2.56,1.88-3.78,3.43-2.29,2.83-11.92,19.33-12.86,22.16a19.53,19.53,0,0,0-1.08,6.39v4.79c0,1.07,0,3.83.21,6.66.13,1.69.27,3.37,2.76,3.84,1.21.27,2.56.27,3.7.41.81.06,1.08.27,1.08.74s-.34.6-1.35.6c-4.85,0-10.44-.2-12.66-.2-1.95,0-7.41.2-10.44.2-.94,0-1.35-.27-1.35-.74s.41-.6,1.22-.6a14.38,14.38,0,0,0,2.35-.34c1.75-.47,2.16-1.69,2.3-3.64.2-2.83.26-5.86.26-6.93Z"/><path class="cls-1" d="M1100.89,236.13c0,6.8-.21,11.65.94,13.07.94,1.27,2.22,1.61,7.81,1.61,3.71,0,5.86-.07,7.75-1.08,1.61-.74,2.76-2.49,3.5-5.65.2-.74.33-1.28.88-1.28s.53.33.53,1.28a55.09,55.09,0,0,1-1.41,9.9c-.54,1.75-1.08,1.81-3.77,1.81-9.3,0-15.56-.4-22.7-.4-3.16,0-6.8.2-10.5.2-1,0-1.49-.13-1.49-.74,0-.4.41-.6,1.35-.6s1.55-.14,2.29-.27c2.42-.41,2.49-1.62,2.7-7,.13-2.69.2-6.73.2-10.91V224.21c0-11-.07-12.19-.2-14.35-.14-1.88-.61-3-2.3-3.5a12.11,12.11,0,0,0-2.62-.33c-.74,0-1.42-.14-1.42-.68s.68-.67,2-.67c3.83,0,7.33.2,10,.2.61,0,9-.2,11.38-.2,1.22,0,1.62.2,1.62.61,0,.6-.67.74-1.62.74a16.34,16.34,0,0,0-2.29.26c-1.81.34-2.29,1.62-2.42,4-.13,2.15-.2,3.5-.2,14.61Z"/><path class="cls-1" d="M1142.24,241.65c-.33,0-.47.14-.6.47l-2.09,5.53a15.19,15.19,0,0,0-1.08,4.31c0,1.27.61,1.88,2,2,.74.13,1.82.2,2.36.27,1,0,1.21.33,1.21.67,0,.54-.54.67-1.41.67-3,0-5.32-.2-8.89-.2-.74,0-5.19.2-8.56.2-.94,0-1.34-.27-1.34-.67s.47-.67,1.28-.67a20.64,20.64,0,0,0,2.15-.27c2.36-.47,3.71-2.56,5.12-5.8l18-40.67c1.28-2.9,2-3.91,2.76-3.91s1.28.94,2.43,3.37c1.75,3.77,13.06,29.56,17.64,39.8,2.29,5.25,3.77,6.87,6.13,7.21a14,14,0,0,0,2.16.27c.87,0,1.27.27,1.27.67s-.47.67-1.75.67c-6.6,0-14.27-.13-18.58-.2-1.08,0-1.49-.2-1.49-.61s.34-.67,1-.8,1-.61.8-1.22l-4.51-10.7a.56.56,0,0,0-.54-.41Zm13.47-5.38c.41,0,.41-.21.34-.34l-5.93-14.41c-.2-.48-.34-.34-.47,0l-5.72,14.41c-.07.2.06.34.27.34Z"/><path class="cls-1" d="M1177,211.28c-1.08-2.9-1.82-4.38-3.37-4.85a15.54,15.54,0,0,0-2.16-.4c-.8-.07-1.07-.34-1.07-.74s.47-.61,1.41-.61c4.18,0,8.76.2,9.77.2,1.61,0,6.39-.2,10-.2,1,0,1.42.2,1.42.67s-.47.68-1.08.68a7.47,7.47,0,0,0-1.68.26,1.37,1.37,0,0,0-1.22,1.49,36.31,36.31,0,0,0,1.62,6.06c.74,2.42,5.79,18.11,8,23.91l11.92-30.51c.68-1.75,1.22-2.43,1.89-2.43.87,0,1.28,1.22,2.29,3.17l13.47,29.83c2-5.65,5.45-17.1,7.34-23.77a29.23,29.23,0,0,0,1.35-5.72c0-1.42-.54-2-4.11-2.29-.61,0-1.15-.27-1.15-.61s.14-.74,1.42-.74c4.31,0,7.74.2,8.35.2s5.25-.13,7.61-.13c.81,0,1.34.06,1.34.6s-.27.68-1.07.68a10,10,0,0,0-2.16.33c-2,.41-3,2.36-4.71,7.14-2.9,8-9.3,26.13-14.21,38.93-.81,2.22-1.55,4.1-2.7,4.1-.87,0-1.41-1-2.49-3.36l-13.47-28.89c-2.76,6.87-8.75,21.21-12.12,28.42-1.08,2.42-1.89,3.83-3,3.83-.88,0-1.35-1-2.56-4.17Z"/><path class="cls-1" d="M1266.17,238.15a12.82,12.82,0,0,0-1.88-7.21c-2.5-4.58-9.16-15.69-11.45-19.12-2.56-3.91-3.3-4.78-5.46-5.46a11.15,11.15,0,0,0-1.75-.33c-.67-.07-1-.34-1-.74s.54-.61,1.35-.61c2.76,0,7.81.2,10.37.2,1.14,0,5.39-.2,9.63-.2.74,0,1.28.13,1.28.54s-.34.67-1.35.87c-1.82.2-2.09.88-2.09,1.42a4.45,4.45,0,0,0,.68,2c1.08,1.95,9.49,16.9,10.57,18.93,4.11-7.75,7.75-14.48,9-17.18a8.88,8.88,0,0,0,1.07-3.43c0-.74-.4-1.35-2.42-1.69-.61-.13-1.15-.33-1.15-.8s.41-.61,1.49-.61c2.76,0,5.05.2,7.61.2.94,0,6.46-.2,7.74-.2.81,0,1.35.13,1.35.61s-.47.74-1.35.74a10.51,10.51,0,0,0-2.63.54c-1.88.74-2.56,1.88-3.77,3.43-2.29,2.83-11.92,19.33-12.86,22.16a19.53,19.53,0,0,0-1.08,6.39v4.79c0,1.07,0,3.83.2,6.66.14,1.69.27,3.37,2.76,3.84,1.22.27,2.56.27,3.71.41.81.06,1.08.27,1.08.74s-.34.6-1.35.6c-4.85,0-10.44-.2-12.66-.2-1.95,0-7.41.2-10.44.2-.94,0-1.35-.27-1.35-.74s.41-.6,1.22-.6a14.55,14.55,0,0,0,2.35-.34c1.75-.47,2.16-1.69,2.29-3.64.2-2.83.27-5.86.27-6.93Z"/><path class="cls-1" d="M1306.31,224.21c0-11-.06-12.32-.2-14.48-.13-1.95-.74-3.1-2.42-3.5a19.48,19.48,0,0,0-2.22-.2c-.88-.07-1.22-.34-1.22-.74s.41-.61,1.48-.61c3.84,0,7.08.2,10,.2l19-.07a23.08,23.08,0,0,0,3.64-.27,5.15,5.15,0,0,1,1.07-.26c.34,0,.41.26.41.6s-.14,1-.34,3c-.2,1.35-.33,3.71-.54,7.21,0,.54-.27.94-.67.94s-.61-.33-.67-.94a8,8,0,0,0-.34-2.36c-.34-1.54-1.21-2.42-4.44-2.69-2.23-.2-8.09-.34-10.11-.34-.4,0-.54.2-.54.68v14.81c0,.47.07.81.54.81,1.89.07,7.34,0,9.77-.07,3.3-.13,4.17-.33,4.92-1.55.4-.6.6-.87.94-.87s.4.4.4.81c0,.67-.34,3.09-.54,5.72-.06,1.55-.06,4.85-.06,5.59s-.21,1.28-.61,1.28-.61-.47-.74-1.08-.14-1-.2-1.55c-.27-2-1.22-3.09-4.51-3.3-1.89-.13-7.41-.27-9.5-.27-.34,0-.41.34-.41.88v4.65c0,2.29-.06,6.26,0,8.82.07,4.71,1,5.79,8.49,5.79A18.64,18.64,0,0,0,1333,250c1.89-.74,2.7-2.22,3.3-5.32.14-.81.41-1.21.81-1.21s.61.67.61,1.48a54.83,54.83,0,0,1-1.08,9c-.47,1.75-.94,1.81-3.43,1.81-9.3,0-14.35-.4-21.42-.4-3.17,0-6,.2-9.7.2-1.21,0-1.61-.2-1.61-.67s.33-.67,1.34-.67a14.42,14.42,0,0,0,2-.27c1.89-.27,2.16-2.83,2.29-7.08.14-2.69.2-6.66.2-10.84Z"/><path class="cls-1" d="M1350.5,224.21c0-10.44-.14-11.79-.2-13.94-.14-2.76-1-3.64-2.56-4a24,24,0,0,0-2.7-.26c-.81-.07-1.21-.34-1.21-.74s.47-.61,1.48-.61c2.9,0,9.36.2,10.31.2,1.28,0,7.74-.2,10.84-.2,6.33,0,10.77.61,13.74,2.29a11.43,11.43,0,0,1,6.13,10.3c0,5.66-3.24,10-9,13.54,4.11,5.93,9,13.13,13.14,17.85,3.56,4,5.18,5.11,7.07,5.38.74.14,1.14.14,1.68.21.74,0,1.14.27,1.14.67,0,.6-.67.67-1.34.67h-6.06c-6.94,0-9.9-.67-12.26-2.22-2.16-1.28-4.31-4.17-6.94-8.42-3.09-5.12-4.64-7.88-5.86-9.7a1,1,0,0,0-.8-.4h-4.45c-.34,0-.54.13-.54.54v3.43a100.42,100.42,0,0,0,.34,11.32c.13,1.75.6,3.23,2.62,3.7a17.09,17.09,0,0,0,3,.41c1.07.06,1.21.33,1.21.74s-.47.6-1.42.6c-4.51,0-11.85-.2-12.32-.2-.81,0-7.34.2-9.63.2-1,0-1.35-.2-1.35-.67s.47-.67,1.21-.67,1.55-.14,2.29-.27c1.35-.34,1.89-1.55,2.09-3.84.27-2.83.34-7.55.34-14.08Zm11.58,4.51a1,1,0,0,0,.61,1,12,12,0,0,0,5.18.88,6.76,6.76,0,0,0,4.25-1.08c1.41-1.08,2.62-4,2.62-8.49,0-9.56-6.06-12-9.56-12a9.18,9.18,0,0,0-2.69.27c-.27.13-.41.2-.41.74Z"/><path class="cls-1" d="M1403,254.65c-1.15-.47-1.49-1.35-1.49-2.69a84.83,84.83,0,0,1,.41-9.9c.13-1.22.4-1.62.8-1.62s.54.61.61,1.14a13.89,13.89,0,0,0,.34,2.09c1.14,5.53,6.19,8.69,11.45,8.69,6.39,0,8.35-3.3,8.35-6.2s-.54-5.18-6.27-9.09l-4.17-2.89c-8.22-5.79-10.51-10.51-10.51-16.44,0-7.74,6.4-14,17.18-14a37.14,37.14,0,0,1,7.74.67,28.33,28.33,0,0,1,3.3.81c.67.2.88.4.88.94-.14,2.16-.27,3.5-.27,9.5,0,1.21-.21,1.68-.74,1.68-.34,0-.61-.2-.74-1.28a9.4,9.4,0,0,0-1.22-3.91c-1.28-2.15-4.38-4.44-9.22-4.44-5.53,0-7.55,3.1-7.55,6.2,0,2.29.81,4.91,5.39,8l3.44,2.29c9.43,6.26,12.39,10.44,12.39,17.24a13.7,13.7,0,0,1-7.14,12.19,22.48,22.48,0,0,1-11.72,2.89C1409.23,256.53,1405.66,255.86,1403,254.65Z"/></g></g></svg>