<?xml version="1.0" encoding="UTF-8"?>
<svg width="197px" height="112px" viewBox="0 0 197 112" version="1.1" xmlns="http://www.w3.org/2000/svg" xmlns:xlink="http://www.w3.org/1999/xlink">
    <title>7572916B-3D0E-4B4D-B878-DAF074D9431D</title>
    <defs>
        <polygon id="path-1" points="0 0 80.115803 0 80.115803 101.762047 0 101.762047"></polygon>
        <polygon id="path-3" points="0 112 197 112 197 0 0 0"></polygon>
    </defs>
    <g id="home" stroke="none" stroke-width="1" fill="none" fill-rule="evenodd">
        <g id="header-footer:-Desktops---12-col-V2" transform="translate(-64.000000, -43.000000)">
            <g id="Group-44" transform="translate(64.000000, 43.000000)">
                <polygon id="Fill-1" fill="#333161" points="0 5 80 5 80 0 0 0"></polygon>
                <g id="Group-43">
                    <path d="M44.7946746,28.8399622 C44.6905125,28.2144048 43.4153663,27.9285317 42.7383125,27.9285317 C42.0620986,27.9285317 37.9493743,28.7617675 37.9493743,28.7617675 C33.9240117,32.4713902 31.746687,33.4248607 30.6933054,34.059667 C29.4803206,34.7903248 29.308117,36.056574 29.308117,36.056574 C29.3341576,36.3432878 31.9625715,35.8480549 33.2637582,34.4935213 C34.6279461,33.0734051 36.0492553,32.6437548 36.0492553,32.6437548 L37.2202393,32.2006516 L35.2419987,34.4935213 L37.5066852,34.6238458 C37.5066852,34.6238458 40.7600719,34.4935213 41.4892068,33.3466661 C42.6131499,31.5784574 44.8988368,29.4655196 44.7946746,28.8399622" id="Fill-2" fill="#333161"></path>
                    <path d="M54.1128177,21.3368046 C54.1128177,21.3368046 57.7568125,16.0220891 63.7436152,16.9074546 C69.729578,17.7936609 69.9899833,26.2344819 69.8858212,29.2571686 C69.7816591,32.2790145 67.0230425,46.1909403 55.2056801,53.9027852 C43.3891578,61.6137892 38.9639471,63.9587886 37.1427897,75.005258 C37.1427897,75.005258 41.3588362,64.844995 51.4062822,61.4061108 C61.4528883,57.9663859 68.4283913,53.5378767 73.0610863,44.9406663 C73.0610863,44.9406663 76.8613242,45.253445 76.0809482,54.8924103 C76.0809482,54.8924103 77.9289861,54.6056964 80.1407515,51.7990961 L80.1407515,20.3993093 C76.3220332,15.6201853 73.3475322,10.837698 61.9484984,11.6810234 C59.2705235,13.8629071 54.2270601,18.3536357 54.1128177,21.3368046" id="Fill-4" fill="#333161"></path>
                    <path d="M63.2747176,39.9905229 C67.8553316,33.5819227 67.6999284,27.0160924 67.6999284,25.4009099 C67.6999284,23.7857274 66.2937395,19.3572181 62.1297741,19.2008288 C57.9649687,19.0444394 56.0388092,21.909896 56.0388092,21.909896 C56.0908903,23.16017 56.8721063,22.7961023 58.4336983,23.7335976 C59.9952904,24.6719337 59.6945642,27.3843641 59.5786418,28.8919238 C59.5526013,29.2307674 61.4266797,29.4914163 61.5568824,28.9961834 C61.7971273,28.0839121 61.7652067,27.58952 62.805988,27.4331306 C63.8476094,27.2767413 64.0038526,27.7459093 64.0038526,27.7459093 C64.7321475,32.3829377 63.3788797,35.1971052 62.1818552,37.6455235 C60.9839906,40.0947825 63.0143123,40.0426527 63.2747176,39.9905229" id="Fill-6" fill="#333161"></path>
                    <g id="Group-10" transform="translate(0.025705, 10.237953)">
                        <mask id="mask-2" fill="white">
                            <use xlink:href="#path-1"></use>
                        </mask>
                        <g id="Clip-9"></g>
                        <path d="M77.5125896,65.131961 C77.5125896,65.131961 66.5461647,69.100551 61.5312619,70.5509361 C54.5036777,72.5831569 44.664556,78.3149107 39.8235367,89.8818372 C39.8235367,89.8818372 37.8452961,82.8998093 40.9163991,78.002132 C44.8821204,71.6784529 52.6816804,67.2163116 66.2160379,63.9338168 C73.1537402,62.2513701 77.5067095,59.6961698 80.115803,57.6017297 L80.115803,51.5386995 C75.679672,54.1233278 66.5150841,59.2085041 61.3229376,60.2864135 C54.2953535,61.7452067 42.5821533,64.0902061 33.16052,81.0761077 C33.16052,81.0761077 29.5165253,76.1784304 26.4454223,71.9054697 C23.3734793,67.6333498 21.3952388,57.7850247 22.1243737,54.0333619 L26.7570687,53.9812321 C26.7570687,53.9812321 24.8309092,61.432428 30.9739552,70.342417 C30.9739552,70.342417 27.9028522,60.0778944 33.940896,53.7205832 C39.9797799,47.3641127 41.7496962,46.8949447 43.6237746,42.4143057 C43.6237746,42.4143057 35.3470849,49.7091122 31.7030902,50.4902182 C28.0590954,51.2721649 23.7380468,51.3242947 20.4065385,53.6684534 C17.0750302,56.0134528 14.1341299,58.6972959 13.7695624,59.4784019 C13.7695624,59.4784019 13.6393597,55.0238278 14.3936952,48.6404516 C14.3936952,48.6404516 16.2938141,47.5726319 18.6366222,47.6247616 C20.9794302,47.6768914 22.8274681,47.8072159 25.2475578,48.2494783 C25.9607324,48.3806435 29.6988091,48.6404516 29.8290117,48.3537378 C30.3498224,47.2068826 30.2448202,45.9053196 26.9914335,45.8271249 C23.7027661,45.7480894 16.2938141,46.2180983 14.4718168,44.550786 C14.4718168,44.550786 13.4310354,43.351801 13.4310354,42.1536567 L13.4310354,36.8389412 C13.4310354,36.8389412 13.799803,36.3529571 18.0116494,35.0673693 C21.6816846,33.946579 23.9724116,30.6119544 24.9090308,28.1114064 L24.7527876,27.5514316 C24.7527876,27.5514316 23.161795,27.720433 20.432579,29.2574208 C18.5585006,30.3126286 15.3958357,30.3689624 13.7695624,29.9872378 C13.7695624,29.9872378 16.5080185,27.9037281 18.0376899,26.9645511 C21.2650361,24.9844602 29.8810928,19.8521988 35.7108123,14.6938726 C35.7108123,14.6938726 32.2751419,16.4654445 27.9549333,17.7678483 C27.9549333,17.7678483 35.6587313,12.9744306 37.8973772,9.17063796 C37.8973772,9.17063796 37.0649201,10.0047145 32.379304,11.2549885 L43.1617651,0.0201792712 L43.155045,0.0025224089 C43.1029639,0.0025224089 41.0726423,0 41.0726423,0 L0,0 L0,75.8135219 L38.8869175,101.762383 L41.8538583,101.762383 L80.115803,75.6571326 L80.115803,63.8152636 L77.5125896,65.131961 Z" id="Fill-8" fill="#333161" mask="url(#mask-2)"></path>
                    </g>
                    <polygon id="Fill-11" fill="#BA9045" points="92.5643543 16.859697 95.3674918 27.6001141 98.158869 16.859697 102.071669 16.859697 102.071669 31.709959 99.0660876 31.709959 99.0660876 27.6917616 99.3407732 21.5000886 96.3755124 31.709959 94.3376306 31.709959 91.3723698 21.5000886 91.6478955 27.6917616 91.6478955 31.709959 88.651554 31.709959 88.651554 16.859697"></polygon>
                    <path d="M108.307537,26.1718421 L111.079594,26.1718421 L109.693566,20.8781466 L108.307537,26.1718421 Z M111.741528,28.6707085 L107.655684,28.6707085 L106.861027,31.7102113 L103.692482,31.7102113 L108.328538,16.8599493 L111.068674,16.8599493 L115.735809,31.7102113 L112.537024,31.7102113 L111.741528,28.6707085 Z" id="Fill-13" fill="#BA9045"></path>
                    <path d="M126.996156,30.0270919 C126.418225,30.6526493 125.71009,31.1234989 124.871753,31.4396409 C124.032576,31.7557828 123.113597,31.9138537 122.114816,31.9138537 C120.409581,31.9138537 119.084874,31.3849887 118.140695,30.3280993 C117.196515,29.2703692 116.710985,27.7316998 116.683265,25.7129318 L116.683265,23.0400192 C116.683265,20.9943456 117.130994,19.41784 118.023932,18.3130249 C118.916871,17.2082098 120.219737,16.6549615 121.931693,16.6549615 C123.542006,16.6549615 124.75583,17.0535021 125.574007,17.8489017 C126.393024,18.6443013 126.866794,19.8920529 126.996156,21.5921565 L124.081297,21.5921565 C124.000655,20.647094 123.802411,20.0030389 123.490765,19.6591505 C123.177438,19.3161029 122.689388,19.1445791 122.023254,19.1445791 C121.214318,19.1445791 120.627146,19.4397009 120.260898,20.0316262 C119.893811,20.6235515 119.703967,21.5652508 119.689687,22.8567242 L119.689687,25.5498161 C119.689687,26.902668 119.892131,27.8864075 120.296179,28.5018753 C120.700227,29.1173431 121.364681,29.4250769 122.2887,29.4250769 C122.879232,29.4250769 123.358042,29.3056829 123.725129,29.0685765 L123.989735,28.8844406 L123.989735,26.1610798 L121.890532,26.1610798 L121.890532,23.8967974 L126.996156,23.8967974 L126.996156,30.0270919 Z" id="Fill-15" fill="#BA9045"></path>
                    <path d="M139.203791,30.0270919 C138.625859,30.6526493 137.917724,31.1234989 137.079387,31.4396409 C136.24021,31.7557828 135.321231,31.9138537 134.322451,31.9138537 C132.617216,31.9138537 131.292508,31.3849887 130.348329,30.3280993 C129.40415,29.2703692 128.91862,27.7316998 128.890899,25.7129318 L128.890899,23.0400192 C128.890899,20.9943456 129.338628,19.41784 130.231567,18.3130249 C131.124505,17.2082098 132.427372,16.6549615 134.139327,16.6549615 C135.74964,16.6549615 136.963465,17.0535021 137.781642,17.8489017 C138.600658,18.6443013 139.074428,19.8920529 139.203791,21.5921565 L136.288931,21.5921565 C136.208289,20.647094 136.010045,20.0030389 135.698399,19.6591505 C135.385072,19.3161029 134.897022,19.1445791 134.230889,19.1445791 C133.421952,19.1445791 132.83478,19.4397009 132.468533,20.0316262 C132.101445,20.6235515 131.911601,21.5652508 131.897321,22.8567242 L131.897321,25.5498161 C131.897321,26.902668 132.099765,27.8864075 132.503813,28.5018753 C132.907862,29.1173431 133.572315,29.4250769 134.496334,29.4250769 C135.086866,29.4250769 135.565676,29.3056829 135.932764,29.0685765 L136.197369,28.8844406 L136.197369,26.1610798 L134.098166,26.1610798 L134.098166,23.8967974 L139.203791,23.8967974 L139.203791,30.0270919 Z" id="Fill-17" fill="#BA9045"></path>
                    <mask id="mask-4" fill="white">
                        <use xlink:href="#path-3"></use>
                    </mask>
                    <g id="Clip-20"></g>
                    <polygon id="Fill-19" fill="#BA9045" mask="url(#mask-4)" points="141.455541 31.7100431 144.451042 31.7100431 144.451042 16.8597811 141.455541 16.8597811"></polygon>
                    <path d="M150.798885,26.1718421 L153.570941,26.1718421 L152.184913,20.8781466 L150.798885,26.1718421 Z M154.232875,28.6707085 L150.147031,28.6707085 L149.352375,31.7102113 L146.18383,31.7102113 L150.819885,16.8599493 L153.560021,16.8599493 L158.227157,31.7102113 L155.028371,31.7102113 L154.232875,28.6707085 Z" id="Fill-21" fill="#BA9045" mask="url(#mask-4)"></path>
                    <polygon id="Fill-22" fill="#BA9045" mask="url(#mask-4)" points="169.98681 31.7097909 166.991309 31.7097909 162.608939 21.9690885 162.608939 31.7097909 159.613437 31.7097909 159.613437 16.8595289 162.608939 16.8595289 167.000549 26.6103209 167.000549 16.8595289 169.98681 16.8595289"></polygon>
                    <path d="M179.830048,23.131919 C179.830048,21.7925199 179.639364,20.7961683 179.259676,20.1437052 C178.879148,19.4904013 178.287776,19.1641698 177.4864,19.1641698 C176.691744,19.1641698 176.103731,19.4786301 175.724044,20.1075507 C175.342676,20.7373121 175.146112,21.6941459 175.132672,22.9788928 L175.132672,25.6206958 C175.132672,26.9197363 175.325876,27.8765701 175.713123,28.4920379 C176.100371,29.1075057 176.698464,29.4143988 177.50656,29.4143988 C178.287776,29.4143988 178.869068,29.1142321 179.249596,28.5122172 C179.630124,27.911043 179.823328,26.9777518 179.830048,25.7123433 L179.830048,23.131919 Z M182.83647,25.6206958 C182.83647,27.6133988 182.36606,29.1596355 181.424401,30.2619281 C180.483581,31.36338 179.178195,31.9132652 177.50656,31.9132652 C175.842486,31.9132652 174.534579,31.367584 173.58368,30.2762218 C172.63278,29.1857003 172.14977,27.6571206 172.13717,25.692164 L172.13717,23.1520983 C172.13717,21.1123103 172.60926,19.5198294 173.553439,18.373815 C174.497619,17.2286414 175.808045,16.6552137 177.4864,16.6552137 C179.137034,16.6552137 180.43822,17.2185517 181.38912,18.3435461 C182.340019,19.4693813 182.822189,21.0484092 182.83647,23.08063 L182.83647,25.6206958 Z" id="Fill-23" fill="#BA9045" mask="url(#mask-4)"></path>
                    <path d="M91.6474755,43.5044067 L91.6474755,53.3670255 L92.5437739,53.3670255 C93.5425543,53.3670255 94.2456488,53.1030134 94.6538971,52.5766707 C95.0604655,52.0494873 95.2746699,51.1405793 95.2956703,49.8482651 L95.2956703,47.2678408 C95.2956703,45.8805159 95.1016263,44.9135925 94.7143784,44.3662297 C94.3271304,43.818867 93.6685569,43.5313124 92.7378178,43.5044067 L91.6474755,43.5044067 Z M88.651974,55.8558023 L88.651974,41.0055403 L92.5748545,41.0055403 C94.30697,41.0055403 95.6879583,41.5562662 96.7169794,42.6577181 C97.7460005,43.75917 98.2701713,45.2692521 98.2911717,47.1862829 L98.2911717,49.5935018 C98.2911717,51.5450055 97.7762412,53.0769485 96.7472201,54.18849 C95.718199,55.3000315 94.3002499,55.8558023 92.4933728,55.8558023 L88.651974,55.8558023 Z" id="Fill-24" fill="#BA9045" mask="url(#mask-4)"></path>
                    <polygon id="Fill-25" fill="#BA9045" mask="url(#mask-4)" points="100.573583 55.8553819 103.569084 55.8553819 103.569084 41.0051199 100.573583 41.0051199"></polygon>
                    <path d="M116.17455,54.1730192 C115.596619,54.7985766 114.888484,55.2694263 114.050147,55.5855682 C113.21097,55.9017101 112.291991,56.0597811 111.29321,56.0597811 C109.587975,56.0597811 108.263268,55.530916 107.319089,54.4740267 C106.374909,53.4162966 105.88938,51.8776271 105.861659,49.8588592 L105.861659,47.1859466 C105.861659,45.140273 106.309388,43.5637674 107.202326,42.4589523 C108.095265,41.3541372 109.398131,40.8008888 111.110087,40.8008888 C112.7204,40.8008888 113.934225,41.1994295 114.752401,41.9948291 C115.571418,42.7902287 116.045188,44.0379803 116.17455,45.7380839 L113.259691,45.7380839 C113.179049,44.7930213 112.980805,44.1489663 112.669159,43.8050778 C112.355832,43.4620302 111.867782,43.2905064 111.201648,43.2905064 C110.392712,43.2905064 109.80554,43.5856283 109.439292,44.1775536 C109.072205,44.7694789 108.882361,45.7111782 108.868081,47.0026515 L108.868081,49.6957434 C108.868081,51.0485954 109.070525,52.0323349 109.474573,52.6478027 C109.878621,53.2632704 110.543075,53.5710043 111.467094,53.5710043 C112.057626,53.5710043 112.536436,53.4516103 112.903523,53.2145039 L113.168129,53.030368 L113.168129,50.3070072 L111.068926,50.3070072 L111.068926,48.0427248 L116.17455,48.0427248 L116.17455,54.1730192 Z" id="Fill-26" fill="#BA9045" mask="url(#mask-4)"></path>
                    <polygon id="Fill-27" fill="#BA9045" mask="url(#mask-4)" points="118.426469 55.8553819 121.42197 55.8553819 121.42197 41.0051199 118.426469 41.0051199"></polygon>
                    <path d="M126.944495,47.930898 L128.64637,47.930898 C129.243622,47.930898 129.692192,47.7316277 129.991238,47.3339279 C130.290284,46.9362281 130.440647,46.4048406 130.440647,45.7380839 C130.440647,44.2490218 129.859355,43.5040704 128.697611,43.5040704 L126.944495,43.5040704 L126.944495,47.930898 Z M128.432166,50.4297644 L126.944495,50.4297644 L126.944495,55.855466 L123.948994,55.855466 L123.948994,41.005204 L128.727852,41.005204 C130.229803,41.005204 131.389026,41.3944957 132.208043,42.1730793 C133.02622,42.9525036 133.436148,44.0581595 133.436148,45.4925694 C133.436148,47.4650932 132.718774,48.8448508 131.285704,49.633524 L133.883878,55.7125295 L133.883878,55.855466 L130.664092,55.855466 L128.432166,50.4297644 Z" id="Fill-28" fill="#BA9045" mask="url(#mask-4)"></path>
                    <path d="M142.932459,47.2778463 C142.932459,45.9384472 142.741775,44.9420957 142.362088,44.2896326 C141.98156,43.6363287 141.390188,43.3109379 140.588811,43.3109379 C139.794155,43.3109379 139.206143,43.6245575 138.826455,44.2534781 C138.445087,44.8832395 138.248523,45.8400733 138.235083,47.1248202 L138.235083,49.7666231 C138.235083,51.0656637 138.428287,52.0224975 138.815535,52.6379653 C139.202783,53.253433 139.800875,53.5603261 140.608972,53.5603261 C141.390188,53.5603261 141.971479,53.2601595 142.352007,52.6581445 C142.732535,52.0569704 142.925739,51.1236791 142.932459,49.8582706 L142.932459,47.2778463 Z M145.938881,49.7666231 C145.938881,51.7593262 145.468471,53.3055628 144.526812,54.4078555 C143.585993,55.5093074 142.280606,56.0591925 140.608972,56.0591925 C138.944897,56.0591925 137.636991,55.5135114 136.686091,54.42299 C135.735192,53.3316277 135.252182,51.8030479 135.239581,49.8380914 L135.239581,47.2980256 C135.239581,45.2582376 135.711671,43.6665976 136.65585,42.5197424 C137.60003,41.3745687 138.910457,40.8011411 140.588811,40.8011411 C142.239445,40.8011411 143.540632,41.3644791 144.491531,42.4894734 C145.442431,43.6153086 145.924601,45.1943366 145.938881,47.2265574 L145.938881,49.7666231 Z" id="Fill-29" fill="#BA9045" mask="url(#mask-4)"></path>
                    <polygon id="Fill-30" fill="#BA9045" mask="url(#mask-4)" points="151.084826 53.3673618 156.342494 53.3673618 156.342494 55.8552978 148.089325 55.8552978 148.089325 41.0058766 151.084826 41.0058766"></polygon>
                    <path d="M161.916177,50.3176854 L164.688233,50.3176854 L163.302205,45.0239899 L161.916177,50.3176854 Z M165.350167,52.8165518 L161.264323,52.8165518 L160.469667,55.8560545 L157.301122,55.8560545 L161.937177,41.0057925 L164.677313,41.0057925 L169.344449,55.8560545 L166.145663,55.8560545 L165.350167,52.8165518 Z" id="Fill-31" fill="#BA9045" mask="url(#mask-4)"></path>
                    <polygon id="Fill-32" fill="#BA9045" mask="url(#mask-4)" points="174.643362 41.0055403 177.446499 51.7459574 180.237876 41.0055403 184.150676 41.0055403 184.150676 55.8558023 181.145095 55.8558023 181.145095 51.8376049 181.41978 45.6459319 178.45452 55.8558023 176.416638 55.8558023 173.451377 45.6459319 173.726903 51.8376049 173.726903 55.8558023 170.730561 55.8558023 170.730561 41.0055403"></polygon>
                    <path d="M193.993578,47.2778463 C193.993578,45.9384472 193.802894,44.9420957 193.423207,44.2896326 C193.042679,43.6363287 192.451307,43.3109379 191.64993,43.3109379 C190.855274,43.3109379 190.267262,43.6245575 189.887574,44.2534781 C189.506206,44.8832395 189.309642,45.8400733 189.296202,47.1248202 L189.296202,49.7666231 C189.296202,51.0656637 189.489406,52.0224975 189.876654,52.6379653 C190.263902,53.253433 190.861994,53.5603261 191.670091,53.5603261 C192.451307,53.5603261 193.032599,53.2601595 193.413126,52.6581445 C193.793654,52.0569704 193.986858,51.1236791 193.993578,49.8582706 L193.993578,47.2778463 Z M197,49.7666231 C197,51.7593262 196.52959,53.3055628 195.587931,54.4078555 C194.647112,55.5093074 193.341725,56.0591925 191.670091,56.0591925 C190.006017,56.0591925 188.69811,55.5135114 187.74721,54.42299 C186.796311,53.3316277 186.313301,51.8030479 186.300701,49.8380914 L186.300701,47.2980256 C186.300701,45.2582376 186.77279,43.6665976 187.71697,42.5197424 C188.661149,41.3745687 189.971576,40.8011411 191.64993,40.8011411 C193.300564,40.8011411 194.601751,41.3644791 195.55265,42.4894734 C196.50355,43.6153086 196.98572,45.1943366 197,47.2265574 L197,49.7666231 Z" id="Fill-33" fill="#BA9045" mask="url(#mask-4)"></path>
                    <polygon id="Fill-34" fill="#BA9045" mask="url(#mask-4)" points="91.6474755 77.5132051 96.9051433 77.5132051 96.9051433 80.0011411 88.651974 80.0011411 88.651974 65.1517199 91.6474755 65.1517199"></polygon>
                    <polygon id="Fill-35" fill="#BA9045" mask="url(#mask-4)" points="98.7700655 80.0015615 101.765567 80.0015615 101.765567 65.1512995 98.7700655 65.1512995"></polygon>
                    <polygon id="Fill-36" fill="#BA9045" mask="url(#mask-4)" points="107.390742 77.5132051 113.504388 77.5132051 113.504388 80.0011411 103.88619 80.0011411 103.88619 78.1967779 109.938515 67.6505863 103.824029 67.6505863 103.824029 65.1517199 113.392665 65.1517199 113.392665 66.9157245"></polygon>
                    <polygon id="Fill-37" fill="#BA9045" mask="url(#mask-4)" points="118.456457 77.5132051 124.570103 77.5132051 124.570103 80.0011411 114.951905 80.0011411 114.951905 78.1967779 121.00423 67.6505863 114.889744 67.6505863 114.889744 65.1517199 124.45838 65.1517199 124.45838 66.9157245"></polygon>
                    <polygon id="Fill-38" fill="#BA9045" mask="url(#mask-4)" points="126.547755 80.0015615 129.543257 80.0015615 129.543257 65.1512995 126.547755 65.1512995"></polygon>
                    <path d="M139.865304,72.2804678 L141.923347,72.2804678 C142.493718,72.2804678 142.935567,72.0938096 143.248894,71.7196523 C143.56054,71.3454949 143.716783,70.8014954 143.716783,70.0876537 C143.716783,69.3469063 143.55718,68.7566626 143.237973,68.3186043 C142.918767,67.8797051 142.490358,67.6568923 141.954427,67.6501659 L139.865304,67.6501659 L139.865304,72.2804678 Z M139.865304,74.7793343 L139.865304,80.0015615 L136.869803,80.0015615 L136.869803,65.1512995 L141.923347,65.1512995 C143.390857,65.1512995 144.561001,65.6070147 145.433778,66.5176043 C146.307396,67.4298755 146.743365,68.6128853 146.743365,70.0674744 C146.743365,71.5229044 146.311597,72.6714412 145.448899,73.5147666 C144.587041,74.358092 143.390857,74.7793343 141.862865,74.7793343 L139.865304,74.7793343 Z" id="Fill-39" fill="#BA9045" mask="url(#mask-4)"></path>
                    <path d="M144.715648,78.5330991 C144.715648,78.0706575 144.870211,77.6897737 145.179337,77.3904479 C145.488464,77.091122 145.890832,76.9422999 146.387282,76.9422999 C146.869452,76.9422999 147.2693,77.0894404 147.589347,77.3854031 C147.908553,77.6813657 148.068157,78.0630903 148.068157,78.5330991 C148.068157,79.0089936 147.906033,79.3915589 147.583467,79.6799544 C147.2609,79.9691906 146.861892,80.1138087 146.387282,80.1138087 C145.904272,80.1138087 145.505264,79.967509 145.189417,79.6757503 C144.873571,79.3823101 144.715648,79.0022672 144.715648,78.5330991" id="Fill-40" fill="#BA9045" mask="url(#mask-4)"></path>
                    <path d="M160.754685,75.0550336 C160.679923,76.7484107 160.204473,78.0297945 159.328335,78.9000255 C158.452197,79.7702566 157.214852,80.2049517 155.618819,80.2049517 C153.941305,80.2049517 152.655239,79.653385 151.7623,78.5477291 C150.868522,77.442914 150.421633,75.8672492 150.421633,73.8207348 L150.421633,71.3218684 C150.421633,69.2820804 150.883642,67.7097788 151.807661,66.6049637 C152.73168,65.5001486 154.016067,64.9469003 155.65998,64.9469003 C157.277013,64.9469003 158.504279,65.4000931 159.343456,66.3039563 C160.181793,67.2078195 160.658923,68.5068601 160.774845,70.2002372 L157.769263,70.2002372 C157.741543,69.1525967 157.58026,68.430347 157.285414,68.0326472 C156.989727,67.6349474 156.447916,67.4356771 155.65998,67.4356771 C154.857764,67.4356771 154.290752,67.7165053 153.958105,68.2781616 C153.625458,68.8381364 153.448215,69.7613381 153.428054,71.046085 L153.428054,73.8510037 C153.428054,75.3266129 153.592698,76.3397805 153.921985,76.8913472 C154.252111,77.4420732 154.817443,77.7170158 155.618819,77.7170158 C156.406756,77.7170158 156.950247,77.5253127 157.249293,77.1402249 C157.548339,76.7568188 157.718022,76.0614747 157.759183,75.0550336 L160.754685,75.0550336 Z" id="Fill-41" fill="#BA9045" mask="url(#mask-4)"></path>
                    <path d="M162.691008,78.5330991 C162.691008,78.0706575 162.845572,77.6897737 163.154698,77.3904479 C163.463824,77.091122 163.866193,76.9422999 164.362643,76.9422999 C164.844813,76.9422999 165.244661,77.0894404 165.564707,77.3854031 C165.883914,77.6813657 166.043517,78.0630903 166.043517,78.5330991 C166.043517,79.0089936 165.881394,79.3915589 165.558827,79.6799544 C165.236261,79.9691906 164.837252,80.1138087 164.362643,80.1138087 C163.879633,80.1138087 163.480625,79.967509 163.164778,79.6757503 C162.848932,79.3823101 162.691008,79.0022672 162.691008,78.5330991" id="Fill-42" fill="#BA9045" mask="url(#mask-4)"></path>
                </g>
            </g>
        </g>
    </g>
</svg>