<svg width="199" height="49" xmlns="http://www.w3.org/2000/svg" xmlns:xlink="http://www.w3.org/1999/xlink"><defs><path id="a" d="M0 48h198.992V.414H0z"/></defs><g fill="none" fill-rule="evenodd"><path fill="#FFF" d="M0 8.051v3.894h5.907v18.842h4.37V11.945h5.336V8.051zM29.864 20.402l-1.853 10.386h-5.178L18.78 8.05h4.465l2.153 15.2 2.297-15.2h4.322l2.296 15.2 2.155-15.2h4.464l-4.053 22.737h-5.178zM44.098 11.945V8.05h15.613v22.738H44.098v-3.895H55.61v-5.622H44.098v-3.704H55.61v-5.622zM67.249 26.894h11.243l1.117 3.894h-16.73V8.05h4.37zM88.327 8.051h4.102l-4.956 22.736h-5.321L76.816 8.051h4.37l3.42 17.496zM99.697 11.945v5.622h11.512v3.704H99.697v5.622h11.512v3.895H95.595V8.05h15.614v3.895zM64.917 33.662l3.29 7.891 3.305-7.89h1.9v9.39h-1.316v-7.812h-.03l-3.26 7.812h-1.184l-3.261-7.812h-.03v7.812h-1.314v-9.39zM83.954 33.662v1.052h-5.82V37.7h5.425v1.053h-5.424v3.248h5.863v1.052h-7.253v-9.39z"/><g transform="translate(0 .586)"><path d="M90.401 41.415c.156 0 .351-.011.585-.033a3.69 3.69 0 00.745-.156c.264-.085.524-.207.782-.363.258-.158.49-.373.696-.644.205-.273.373-.613.505-1.02.131-.408.195-.901.195-1.48a5.62 5.62 0 00-.183-1.505 2.74 2.74 0 00-.598-1.131 2.608 2.608 0 00-1.075-.71c-.438-.162-.979-.245-1.623-.245h-2.34v7.287h2.311zm-.116-8.34c1.608 0 2.846.369 3.713 1.106.867.736 1.301 1.859 1.301 3.367 0 .789-.097 1.488-.292 2.098a3.808 3.808 0 01-.908 1.54c-.408.416-.93.733-1.563.953-.633.218-1.385.328-2.25.328h-3.584v-9.391h3.583z" fill="#FFF"/><mask id="b" fill="#fff"><use xlink:href="#a"/></mask><path fill="#FFF" mask="url(#b)" d="M98.077 42.467h1.389v-9.391h-1.389zM108.166 38.587l-1.74-4.38h-.03l-1.768 4.38h3.538zm-.966-5.511l4.08 9.39h-1.535l-1.141-2.827h-4.415l-1.17 2.828h-1.417l4.064-9.391h1.534zM115.952 48h.458V.414h-.458zM126.86 12.518l-1.513-4.233h-.025l-1.538 4.233h3.076zm-.839-5.326l3.547 9.075h-1.335l-.991-2.732h-3.84l-1.017 2.732h-1.232l3.533-9.075h1.335zM138.732 15.25c.136 0 .305-.01.508-.03a2.987 2.987 0 001.329-.502c.225-.154.426-.361.603-.624a3.49 3.49 0 00.44-.985c.113-.394.171-.871.171-1.43 0-.542-.053-1.028-.159-1.455a2.81 2.81 0 00-.52-1.094 2.303 2.303 0 00-.935-.686c-.382-.157-.852-.235-1.412-.235h-2.034v7.042h2.01zm-.1-8.058c1.397 0 2.473.356 3.227 1.068.755.712 1.132 1.797 1.132 3.254 0 .762-.085 1.438-.255 2.027-.169.59-.433 1.085-.788 1.487a3.42 3.42 0 01-1.36.922c-.55.212-1.204.318-1.957.318h-3.115V7.192h3.115zM145.279 16.267h1.207V7.192h-1.207zM154.75 16.16a4.304 4.304 0 01-1.59.312c-.678 0-1.283-.126-1.816-.375a4.099 4.099 0 01-1.361-1.011 4.404 4.404 0 01-.851-1.462 5.131 5.131 0 01-.293-1.716c0-.661.092-1.29.273-1.888a4.65 4.65 0 01.814-1.57c.36-.449.809-.807 1.347-1.074.539-.267 1.167-.401 1.888-.401.49 0 .955.058 1.393.172.435.115.826.295 1.169.54.342.246.63.558.864.935.232.377.392.833.476 1.366h-1.207a2.355 2.355 0 00-.331-.896 2.153 2.153 0 00-.596-.617 2.674 2.674 0 00-.808-.362 3.724 3.724 0 00-.96-.12c-.551 0-1.023.109-1.417.33a2.873 2.873 0 00-.967.87 3.838 3.838 0 00-.552 1.234 5.656 5.656 0 00-.178 1.417c0 .475.067.93.203 1.367.136.436.335.822.598 1.156.262.335.587.603.972.802.386.199.832.298 1.34.298a3.25 3.25 0 001.26-.229c.364-.152.67-.362.92-.629.252-.267.44-.581.567-.941.127-.36.182-.748.165-1.162h-2.898v-1.018h3.978v4.779h-.761l-.32-1.13a3.027 3.027 0 01-1.321 1.023M159.745 16.267h1.207V7.192h-1.207zM162.784 8.209V7.192h7.258v1.017h-3.026v8.059h-1.207v-8.06zM175.278 12.518l-1.513-4.233h-.025l-1.538 4.233h3.076zm-.839-5.326l3.547 9.075h-1.335l-.991-2.732h-3.84l-1.017 2.732h-1.232l3.533-9.075h1.335zM180.845 7.192v8.06h4.806v1.015h-6.012V7.192zM122.674 20.225l2.86 7.627 2.871-7.627h1.655V29.3h-1.145v-7.55h-.025l-2.834 7.55h-1.03l-2.834-7.55h-.026v7.55h-1.144v-9.075zM137.47 25.552l-1.513-4.233h-.025l-1.538 4.233h3.076zm-.839-5.326l3.546 9.075h-1.335l-.99-2.731h-3.84l-1.017 2.73h-1.233l3.534-9.074h1.335zM146.354 24.344c.255-.042.478-.125.668-.247.19-.123.344-.29.458-.496.114-.208.172-.477.172-.808 0-.457-.127-.83-.382-1.118-.254-.288-.665-.433-1.233-.433h-3v3.165h2.516c.28 0 .547-.02.801-.063zm-.254-4.118c.864 0 1.54.212 2.028.636.488.423.731 1.003.731 1.74 0 .552-.125 1.035-.375 1.45-.25.415-.65.699-1.2.852v.025c.261.05.475.136.64.254.165.119.297.26.395.426.097.166.17.349.216.553.047.203.082.415.108.635.017.22.03.444.038.675.01.227.03.452.064.673.033.22.083.43.145.629.065.2.16.375.287.527h-1.347a.749.749 0 01-.172-.38 3.826 3.826 0 01-.057-.541c-.009-.2-.018-.413-.025-.642a4.545 4.545 0 00-.077-.673 6.783 6.783 0 00-.127-.63 1.469 1.469 0 00-.243-.521 1.194 1.194 0 00-.43-.356c-.179-.09-.416-.133-.713-.133h-2.949V29.3h-1.207v-9.075h4.27zM152.506 20.225v4.525l4.603-4.525h1.564l-3.827 3.661 3.978 5.414H157.3l-3.28-4.589-1.514 1.412V29.3H151.3v-9.075zM166.808 20.225v1.017h-5.06v2.885h4.716v1.017h-4.717v3.14h5.098V29.3h-6.304v-9.075zM168.104 21.242v-1.017h7.258v1.017h-3.026v8.059h-1.207v-8.059zM177.179 29.301h1.208v-9.075h-1.208zM182.455 20.225l4.78 7.36h.026v-7.36h1.143V29.3h-1.322l-4.742-7.283h-.026V29.3h-1.143v-9.075zM196.59 29.193a4.304 4.304 0 01-1.59.312c-.679 0-1.284-.125-1.816-.375a4.083 4.083 0 01-1.362-1.01 4.409 4.409 0 01-.85-1.463 5.127 5.127 0 01-.293-1.716c0-.66.091-1.29.273-1.888a4.636 4.636 0 01.814-1.569c.36-.449.809-.808 1.347-1.074.538-.268 1.167-.4 1.887-.4.492 0 .956.056 1.393.17.435.115.827.295 1.17.54.342.246.63.558.864.935.233.378.392.833.476 1.367h-1.207a2.35 2.35 0 00-.332-.896 2.14 2.14 0 00-.596-.617 2.665 2.665 0 00-.808-.363 3.724 3.724 0 00-.96-.12c-.55 0-1.023.11-1.417.33a2.852 2.852 0 00-.965.871c-.25.361-.434.772-.553 1.234a5.644 5.644 0 00-.178 1.417c0 .474.066.93.202 1.366.137.436.335.822.599 1.158.262.333.587.601.972.801.386.197.832.297 1.34.297a3.25 3.25 0 001.26-.228c.364-.152.67-.364.92-.63.251-.266.44-.58.566-.94a3.09 3.09 0 00.165-1.163h-2.898v-1.017h3.978V29.3h-.76l-.32-1.129a3.011 3.011 0 01-1.322 1.022M126.481 34.55c-.462-.322-1.01-.482-1.646-.482-.542 0-1.007.099-1.392.303a2.717 2.717 0 00-.953.822c-.25.342-.435.734-.554 1.175a5.287 5.287 0 00-.178 1.37c0 .52.06 1.009.178 1.47.12.463.304.864.554 1.209.25.343.57.616.96.82.39.204.854.305 1.397.305.4 0 .752-.066 1.062-.198a2.418 2.418 0 001.328-1.38c.127-.321.203-.668.23-1.041h1.206c-.118 1.144-.512 2.033-1.18 2.67-.67.635-1.586.953-2.747.953-.704 0-1.319-.12-1.843-.363a3.603 3.603 0 01-1.31-.997 4.295 4.295 0 01-.782-1.5 6.4 6.4 0 01-.26-1.856c0-.661.093-1.283.28-1.863.186-.58.46-1.087.82-1.52a3.84 3.84 0 011.347-1.022c.538-.25 1.154-.375 1.85-.375.474 0 .923.063 1.347.19.423.127.801.314 1.131.56.33.245.606.553.827.922.22.369.363.795.432 1.277h-1.208c-.136-.644-.435-1.127-.896-1.45M131.813 39.158c.118.444.305.844.56 1.2.253.357.58.643.978.86.4.214.873.324 1.424.324.55 0 1.025-.11 1.424-.324.398-.217.724-.503.978-.86.254-.356.441-.756.56-1.2a5.254 5.254 0 000-2.707 3.684 3.684 0 00-.56-1.202 2.835 2.835 0 00-.978-.858c-.399-.216-.874-.324-1.424-.324-.55 0-1.025.108-1.424.324a2.838 2.838 0 00-.979.858 3.662 3.662 0 00-.559 1.202 5.247 5.247 0 000 2.707m-1.112-3.14a4.483 4.483 0 01.82-1.519 3.998 3.998 0 011.36-1.055c.542-.263 1.173-.394 1.894-.394.72 0 1.35.131 1.893.394.543.262.997.614 1.361 1.055.364.44.638.947.82 1.518a5.84 5.84 0 01.274 1.787c0 .618-.092 1.212-.275 1.786a4.474 4.474 0 01-.819 1.518 3.919 3.919 0 01-1.36 1.05c-.544.258-1.174.388-1.894.388s-1.352-.13-1.895-.389a3.933 3.933 0 01-1.36-1.049 4.474 4.474 0 01-.819-1.518 5.837 5.837 0 01-.274-1.786c0-.619.091-1.213.274-1.787M143.037 33.264l2.86 7.63 2.872-7.63h1.654v9.078h-1.145v-7.551h-.025l-2.835 7.552h-1.03l-2.834-7.553h-.026v7.553h-1.143v-9.079zM156.765 37.613c.687.008 1.188-.132 1.506-.42.318-.288.476-.703.476-1.245 0-.543-.158-.955-.476-1.24-.318-.283-.819-.426-1.506-.426H154.4v3.331h2.365zm.406-4.349c.916 0 1.61.237 2.078.707.472.471.706 1.128.706 1.977 0 .848-.234 1.51-.706 1.983-.469.475-1.162.707-2.078.7h-2.77v3.711h-1.207v-9.078h3.977zM165.893 38.59l-1.513-4.23h-.025l-1.539 4.23h3.077zm-.84-5.325l3.547 9.078h-1.335l-.99-2.734h-3.84l-1.017 2.734h-1.233l3.533-9.078h1.335zM171.524 33.264l4.78 7.361h.025v-7.36h1.143v9.078h-1.32l-4.743-7.285h-.026v7.285h-1.143v-9.079zM183.942 42.343h-1.208V38.63l-3.508-5.366h1.437l2.72 4.322 2.657-4.322h1.373l-3.47 5.366z"/></g></g></svg>